<svg id="Layer_1" data-name="Layer 1" xmlns="http://www.w3.org/2000/svg" viewBox="0 0 202.83 164.57"><defs><style>.cls-1{fill:#00f368;}.cls-2{fill:#3a3a3a;}.cls-3{fill:#d7d7d7;}</style></defs><rect class="cls-1" y="71.23" width="181.16" height="22.11"/><polygon class="cls-1" points="202.83 82.29 173.84 56.06 173.84 108.51 202.83 82.29"/><path class="cls-2" d="M109.46,17.7a23.33,23.33,0,0,0-2.59-3.63l3.83-6.64L97.81,0,94,6.65a22.88,22.88,0,0,0-8.88,0L81.26,0,68.39,7.46l3.84,6.64a23.07,23.07,0,0,0-4.42,7.69H60.13V36.67h7.67a23.78,23.78,0,0,0,1.85,4.06,22.65,22.65,0,0,0,2.6,3.62L68.43,51l12.88,7.42,3.84-6.65a23,23,0,0,0,8.87,0l3.84,6.64L110.74,51l-3.85-6.64a22.84,22.84,0,0,0,4.43-7.69H119l0-14.87h-7.67A22.39,22.39,0,0,0,109.46,17.7ZM93.37,35.8a7.61,7.61,0,1,1,2.78-10.4A7.6,7.6,0,0,1,93.37,35.8Z"/><circle class="cls-3" cx="35.52" cy="42.57" r="15.85"/><circle class="cls-3" cx="143.61" cy="42.57" r="15.85"/><path class="cls-2" d="M69.66,146.88a22.65,22.65,0,0,0,2.6,3.62l-3.83,6.65,12.88,7.42,3.84-6.65a23,23,0,0,0,8.87,0l3.84,6.64,12.88-7.45-3.85-6.64a22.74,22.74,0,0,0,4.43-7.69H119l0-14.87h-7.67a22.39,22.39,0,0,0-1.85-4.06,23.33,23.33,0,0,0-2.59-3.63l3.83-6.64-12.89-7.43L94,112.8a23.07,23.07,0,0,0-8.88,0l-3.84-6.64-12.87,7.44,3.84,6.64a23.07,23.07,0,0,0-4.42,7.69H60.13v14.87h7.67A23.78,23.78,0,0,0,69.66,146.88Zm16.09-18.1A7.61,7.61,0,1,1,83,139.17,7.61,7.61,0,0,1,85.75,128.78Z"/><circle class="cls-3" cx="143.61" cy="122.01" r="15.85"/><circle class="cls-3" cx="35.52" cy="122.01" r="15.85"/></svg>