<svg width="94" height="95" viewBox="0 0 94 95" fill="none" xmlns="http://www.w3.org/2000/svg">
<circle cx="47" cy="47.5741" r="47" fill="#20D15B"/>
<path d="M68.25 19.875H56C54.5528 19.875 53.375 21.0527 53.375 22.5V24.25C51.4447 24.25 49.875 25.8197 49.875 27.75C49.875 29.6803 51.4447 31.25 53.375 31.25V35.625H60.375V33.875C60.375 32.9099 61.1599 32.125 62.125 32.125C63.0901 32.125 63.875 32.9099 63.875 33.875V35.625H68.25C69.6973 35.625 70.875 34.4473 70.875 33V22.5C70.875 21.0527 69.6973 19.875 68.25 19.875ZM69.125 33C69.125 33.4821 68.733 33.875 68.25 33.875H65.625C65.625 31.9447 64.0553 30.375 62.125 30.375C60.1947 30.375 58.625 31.9447 58.625 33.875H55.125V29.5H53.375C52.4099 29.5 51.625 28.7151 51.625 27.75C51.625 26.7849 52.4099 26 53.375 26H55.125V22.5C55.125 22.0179 55.517 21.625 56 21.625H68.25C68.733 21.625 69.125 22.0179 69.125 22.5V33Z" fill="white"/>
<path d="M53.375 37.375C51.4447 37.375 49.875 38.9447 49.875 40.875H46.375V36.5H44.625C43.6599 36.5 42.875 35.7151 42.875 34.75C42.875 33.7849 43.6599 33 44.625 33H46.375V25.125H44.0291C34.7086 25.125 27.125 32.7086 27.125 42.0291C27.125 47.1199 29.3851 51.8886 33.3253 55.1121L36.75 57.9147V60.2869C35.7341 60.6491 35 61.6116 35 62.7509C35 63.961 35.8269 64.9725 36.9425 65.2744C36.8209 65.5762 36.75 65.9044 36.75 66.25C36.75 67.4067 37.5069 68.3797 38.5473 68.7289C38.9095 71.7634 41.4951 74.125 44.625 74.125C47.7549 74.125 50.3405 71.7634 50.7027 68.7289C51.7431 68.3797 52.5 67.4067 52.5 66.25C52.5 65.9044 52.4291 65.5762 52.3075 65.2735C53.4231 64.9707 54.25 63.9601 54.25 62.75C54.25 61.6107 53.5159 60.6482 52.5 60.286V57.9139L55.9248 55.1112C59.8649 51.8886 62.125 47.1199 62.125 42.0291V40.875H56.875C56.875 38.9447 55.3053 37.375 53.375 37.375ZM44.0291 26.875H44.625V31.25C42.6947 31.25 41.125 32.8197 41.125 34.75C41.125 36.6803 42.6947 38.25 44.625 38.25V40.875H41.125C41.125 38.9447 39.5553 37.375 37.625 37.375C35.6947 37.375 34.125 38.9447 34.125 40.875H28.9188C29.5103 33.056 36.0614 26.875 44.0291 26.875ZM34.433 53.7576C31.0546 50.9935 29.0544 46.9632 28.8872 42.625H35.875V40.875C35.875 39.9099 36.6599 39.125 37.625 39.125C38.5901 39.125 39.375 39.9099 39.375 40.875V42.625H44.625V46.125C42.6947 46.125 41.125 47.6947 41.125 49.625C41.125 51.5553 42.6947 53.125 44.625 53.125V60.125H38.5V57.0853L34.433 53.7576ZM44.625 72.375C42.5127 72.375 40.7452 70.8691 40.3384 68.875H48.9116C48.5047 70.8691 46.7372 72.375 44.625 72.375ZM49.875 67.125H39.375C38.892 67.125 38.5 66.7321 38.5 66.25C38.5 65.7679 38.892 65.375 39.375 65.375H49.875C50.358 65.375 50.75 65.7679 50.75 66.25C50.75 66.7321 50.358 67.125 49.875 67.125ZM51.625 63.625H49.875H39.375H37.625C37.142 63.625 36.75 63.2321 36.75 62.75C36.75 62.2679 37.142 61.875 37.625 61.875H51.625C52.108 61.875 52.5 62.2679 52.5 62.75C52.5 63.2321 52.108 63.625 51.625 63.625ZM54.817 53.7576L50.75 57.0853V60.125H46.375V51.375H44.625C43.6599 51.375 42.875 50.5901 42.875 49.625C42.875 48.6599 43.6599 47.875 44.625 47.875H46.375V42.625H51.625V40.875C51.625 39.9099 52.4099 39.125 53.375 39.125C54.3401 39.125 55.125 39.9099 55.125 40.875V42.625H60.3628C60.1956 46.9632 58.1954 50.9935 54.817 53.7576Z" fill="white"/>
</svg>
