<svg width="22" height="16" viewBox="0 0 22 16" fill="none" xmlns="http://www.w3.org/2000/svg">
<path d="M6.10975 0.397949L1.80686 6.83391C0.982898 8.01232 0.433594 9.19074 0.433594 10.6411C0.433594 13.4512 2.44771 15.1735 4.82803 15.1735C7.29991 15.1735 9.13092 13.2699 9.13092 10.6411C9.13092 9.10009 8.49007 7.64973 7.1168 6.92455L10.138 0.397949H6.10975ZM18.6522 6.92455L21.6734 0.397949H17.6452L13.3423 6.83391C12.5183 8.01232 11.969 9.19074 11.969 10.6411C11.969 13.4512 13.9831 15.1735 16.3634 15.1735C18.8353 15.1735 20.6663 13.2699 20.6663 10.6411C20.6663 9.10009 20.0255 7.64973 18.6522 6.92455Z" fill="black"/>
</svg>
