<svg width="267" height="162" viewBox="0 0 267 162" fill="none" xmlns="http://www.w3.org/2000/svg">
<g clip-path="url(#clip0)">
<path d="M132.811 162C206.16 162 265.622 159.586 265.622 156.608C265.622 153.63 206.16 151.216 132.811 151.216C59.4615 151.216 0 153.63 0 156.608C0 159.586 59.4615 162 132.811 162Z" fill="#E6E6E6"/>
<path d="M137.314 157.236C172.089 157.236 200.28 129.004 200.28 94.1782C200.28 59.3525 172.089 31.1207 137.314 31.1207C102.539 31.1207 74.3477 59.3525 74.3477 94.1782C74.3477 129.004 102.539 157.236 137.314 157.236Z" fill="#3F3D56"/>
<path d="M137.313 152.016C169.21 152.016 195.067 126.121 195.067 94.1781C195.067 62.2354 169.21 36.3407 137.313 36.3407C105.417 36.3407 79.5596 62.2354 79.5596 94.1781C79.5596 126.121 105.417 152.016 137.313 152.016Z" fill="white"/>
<path d="M137.105 102.112C141.366 102.112 144.819 98.6536 144.819 94.3868C144.819 90.1201 141.366 86.6613 137.105 86.6613C132.844 86.6613 129.391 90.1201 129.391 94.3868C129.391 98.6536 132.844 102.112 137.105 102.112Z" fill="#3F3D56"/>
<path d="M138.773 39.2639H135.437V45.5279H138.773V39.2639Z" fill="#3F3D56"/>
<path d="M138.773 143.246H135.437V149.51H138.773V143.246Z" fill="#3F3D56"/>
<path d="M88.3169 96.0572V92.7164H82.062V96.0572H88.3169Z" fill="#3F3D56"/>
<path d="M192.148 96.0572V92.7164H185.893V96.0572H192.148Z" fill="#3F3D56"/>
<path d="M134.881 97.7406L137.732 91.2124L173.454 111.026L134.881 97.7406Z" fill="#3F3D56"/>
<path d="M145.445 15.8783H129.182V34.6702H145.445V15.8783Z" fill="#3F3D56"/>
<path d="M137.313 21.0983C147.677 21.0983 156.078 18.7612 156.078 15.8783C156.078 12.9954 147.677 10.6583 137.313 10.6583C126.95 10.6583 118.548 12.9954 118.548 15.8783C118.548 18.7612 126.95 21.0983 137.313 21.0983Z" fill="#3F3D56"/>
<path d="M172.445 105.349L171.403 106.811C171.403 106.811 166.607 112.448 166.399 109.734C166.191 107.019 169.943 105.14 169.943 105.14L172.028 103.887L172.445 105.349Z" fill="#FFB8B8"/>
<path d="M202.124 110.28L202.996 111.849C202.996 111.849 206.032 118.602 203.493 117.629C200.954 116.656 200.864 112.455 200.864 112.455L200.626 110.032L202.124 110.28Z" fill="#FFB8B8"/>
<path d="M197.43 82.4575C200.936 82.4575 203.779 79.611 203.779 76.0996C203.779 72.5883 200.936 69.7418 197.43 69.7418C193.924 69.7418 191.082 72.5883 191.082 76.0996C191.082 79.611 193.924 82.4575 197.43 82.4575Z" fill="#2F2E41"/>
<path d="M196.839 128.317L197.673 133.746V135.416H202.468V133.328C202.468 133.328 202.677 129.57 201.843 128.526C201.009 127.482 196.839 128.317 196.839 128.317Z" fill="#FFB8B8"/>
<path d="M188.291 128.317L189.125 133.746V135.416H193.92V133.328C193.92 133.328 194.129 129.57 193.295 128.526C192.461 127.482 188.291 128.317 188.291 128.317Z" fill="#FFB8B8"/>
<path d="M191.518 84.7096C191.518 84.7096 189.674 85.6831 190.933 87.8977C192.193 90.1123 199.585 113.023 199.585 113.023L203.849 111.811L200.088 97.3215L197.935 88.2145L191.518 84.7096Z" fill="#20D15B"/>
<path d="M196.735 82.6941C199.383 82.6941 201.53 80.544 201.53 77.8917C201.53 75.2395 199.383 73.0894 196.735 73.0894C194.086 73.0894 191.939 75.2395 191.939 77.8917C191.939 80.544 194.086 82.6941 196.735 82.6941Z" fill="#FFB8B8"/>
<path d="M198.924 78.6226L198.299 88.4361L193.92 85.3042C193.92 85.3042 195.38 79.4578 194.963 79.0401L198.924 78.6226Z" fill="#FFB8B8"/>
<path d="M198.925 87.6009L194.208 84.103C194.208 84.103 192.044 83.2161 191.419 84.2601C190.793 85.3041 187.666 100.755 189.334 103.679C189.334 103.679 198.299 105.558 200.176 104.514L201.01 99.0849C201.01 99.0849 202.052 95.7441 200.384 93.6561L198.925 87.6009Z" fill="#20D15B"/>
<path d="M192.67 84.4689C192.67 84.4689 191.002 83.2161 189.542 85.3041C188.083 87.3921 170.569 103.887 170.569 103.887L173.488 107.228L184.955 97.6233L192.253 91.7769L192.67 84.4689Z" fill="#20D15B"/>
<path d="M200.279 104.409C200.279 104.409 189.959 102.426 188.916 103.887L188.708 106.184C188.708 106.184 186.414 110.569 187.665 117.668C188.916 124.767 188.082 129.152 188.082 129.152C188.082 129.152 193.712 128.526 197.882 129.152C202.052 129.778 202.677 129.152 202.677 129.152L200.279 104.409Z" fill="#2F2E41"/>
<path d="M202.885 134.581L196.839 134.79L198.924 150.45C198.924 150.45 197.256 157.131 199.132 157.549C200.437 157.812 201.763 157.952 203.094 157.966C203.094 157.966 204.97 159.846 207.055 159.637C208.44 159.46 209.782 159.035 211.017 158.384C211.017 158.384 211.434 157.131 209.974 156.714C208.515 156.296 204.553 155.043 203.719 150.658L202.885 134.581Z" fill="#2F2E41"/>
<path d="M194.337 134.581L188.291 134.79L190.376 150.45C190.376 150.45 188.708 157.131 190.584 157.549C191.889 157.812 193.215 157.952 194.546 157.966C194.546 157.966 196.422 159.846 198.507 159.637C199.892 159.46 201.234 159.035 202.469 158.384C202.469 158.384 202.886 157.131 201.426 156.714C199.967 156.296 196.005 155.043 195.171 150.658L194.337 134.581Z" fill="#2F2E41"/>
<path d="M199.651 72.039C201.102 72.039 202.278 70.8611 202.278 69.4082C202.278 67.9552 201.102 66.7773 199.651 66.7773C198.2 66.7773 197.024 67.9552 197.024 69.4082C197.024 70.8611 198.2 72.039 199.651 72.039Z" fill="#2F2E41"/>
<path d="M203.154 67.9831C203.154 67.3328 202.913 66.7056 202.479 66.2224C202.044 65.7392 201.446 65.4343 200.8 65.3665C200.891 65.3571 200.983 65.3523 201.074 65.3523C201.771 65.3523 202.439 65.6295 202.932 66.1228C203.424 66.6162 203.701 67.2854 203.701 67.9831C203.701 68.6809 203.424 69.35 202.932 69.8434C202.439 70.3368 201.771 70.6139 201.074 70.6139C200.983 70.6139 200.891 70.6092 200.8 70.5997C201.446 70.5319 202.044 70.227 202.479 69.7438C202.913 69.2606 203.154 68.6334 203.154 67.9831Z" fill="#2F2E41"/>
<path d="M196.692 77.3825C199.11 77.3825 201.07 76.2046 201.07 74.7517C201.07 73.2987 199.11 72.1208 196.692 72.1208C194.274 72.1208 192.313 73.2987 192.313 74.7517C192.313 76.2046 194.274 77.3825 196.692 77.3825Z" fill="#2F2E41"/>
<path d="M250.543 151.445C250.544 151.406 250.549 151.368 250.549 151.329C250.549 150.726 250.399 150.133 250.111 149.605C249.823 149.076 249.407 148.628 248.901 148.303C248.395 147.977 247.815 147.785 247.215 147.743C246.615 147.701 246.014 147.811 245.467 148.062C244.955 147.469 244.262 147.061 243.495 146.901C242.729 146.74 241.931 146.836 241.223 147.173C240.516 147.51 239.939 148.07 239.58 148.767C239.221 149.464 239.1 150.259 239.236 151.032C239.218 151.032 239.2 151.029 239.182 151.029C238.611 151.028 238.047 151.164 237.539 151.425C237.03 151.686 236.591 152.065 236.259 152.53C235.926 152.995 235.709 153.533 235.625 154.1C235.542 154.666 235.595 155.244 235.779 155.785C235.964 156.327 236.275 156.816 236.687 157.213C237.098 157.61 237.599 157.903 238.146 158.067C238.693 158.231 239.272 158.262 239.834 158.158C240.396 158.053 240.924 157.815 241.376 157.465C241.661 158.02 242.085 158.492 242.608 158.834C243.131 159.175 243.733 159.374 244.356 159.41C244.979 159.447 245.601 159.321 246.16 159.043C246.719 158.766 247.196 158.348 247.544 157.829C247.971 158.14 248.462 158.353 248.981 158.453C249.499 158.552 250.034 158.535 250.545 158.404C251.057 158.272 251.533 158.029 251.94 157.692C252.347 157.355 252.675 156.932 252.9 156.453C253.124 155.975 253.241 155.452 253.241 154.923C253.24 154.394 253.124 153.872 252.898 153.394C252.673 152.915 252.345 152.492 251.938 152.156C251.531 151.819 251.054 151.576 250.543 151.445Z" fill="#E6E6E6"/>
<path d="M265.504 96.8096C266.33 96.8096 267 96.1391 267 95.3119C267 94.4847 266.33 93.8141 265.504 93.8141C264.678 93.8141 264.009 94.4847 264.009 95.3119C264.009 96.1391 264.678 96.8096 265.504 96.8096Z" fill="#E6E6E6"/>
</g>
<defs>
<clipPath id="clip0">
<rect width="267" height="162" fill="white"/>
</clipPath>
</defs>
</svg>
