<svg width="1043" height="254" viewBox="0 0 1043 254" fill="none" xmlns="http://www.w3.org/2000/svg">
<g clip-path="url(#clip0)">
<rect width="1043" height="254" fill="white"/>
<mask id="mask0" mask-type="alpha" maskUnits="userSpaceOnUse" x="1" y="36" width="1043" height="144">
<path fill-rule="evenodd" clip-rule="evenodd" d="M261.649 36.4544C262.809 35.8485 264.192 35.8485 265.353 36.4544L522.001 170.487L778.649 36.4544C779.809 35.8485 781.192 35.8485 782.352 36.4544L1040.85 171.454C1042.81 172.477 1043.57 174.893 1042.55 176.852C1041.52 178.81 1039.11 179.568 1037.15 178.546L780.501 44.5126L523.852 178.546C522.692 179.151 521.309 179.151 520.149 178.546L263.501 44.5126L6.85249 178.546C4.89431 179.568 2.47786 178.81 1.45521 176.852C0.432565 174.893 1.19097 172.477 3.14915 171.454L261.649 36.4544Z" fill="black"/>
</mask>
<g mask="url(#mask0)">
<rect x="1.00098" y="-14" width="1043" height="294" fill="url(#paint0_linear)"/>
</g>
<path d="M124.102 144.246L128.252 141.997C131.417 140.281 132.486 137.117 130.901 134.191C129.315 131.265 126.08 130.434 122.915 132.15L118.765 134.399L124.102 144.246ZM124.845 142.26L120.835 134.86L123.494 133.419C125.927 132.1 128.297 132.745 129.494 134.954C130.691 137.162 129.938 139.5 127.504 140.819L124.845 142.26ZM137.271 137.108L138.678 136.346L133.341 126.499L131.934 127.262L137.271 137.108ZM144.886 120.242L145.697 130.267L137.768 124.1L136.249 124.923L145.918 132.422L147.311 131.667L146.293 119.479L144.886 120.242ZM155.176 125.821L153.453 122.642L158.39 119.966L157.742 118.77L152.805 121.446L151.166 118.422L156.708 115.418L156.045 114.194L149.096 117.96L154.432 127.807L161.578 123.934L160.915 122.71L155.176 125.821ZM173.52 117.462L169.393 115.422C170.505 114.182 170.698 112.658 169.875 111.139C168.716 109.001 166.467 108.545 163.907 109.933L160.067 112.014L165.403 121.861L166.81 121.098L165.186 118.102L167.62 116.783C167.831 116.669 168.034 116.54 168.223 116.42L171.987 118.293L173.52 117.462ZM166.929 115.61L164.538 116.906L162.136 112.475L164.528 111.179C166.328 110.203 167.705 110.494 168.468 111.901C169.23 113.308 168.73 114.634 166.929 115.61ZM183.033 110.013C182.573 110.844 181.899 111.446 181.069 111.896C178.804 113.124 176.282 112.398 175.108 110.232C173.918 108.037 174.702 105.556 176.981 104.32C178.093 103.718 179.212 103.567 180.454 103.912L180.854 102.567C179.412 102.057 177.808 102.253 176.246 103.099C173.194 104.753 172.123 108.082 173.701 110.994C175.279 113.906 178.653 114.825 181.677 113.186C183.056 112.439 184.191 111.277 184.726 109.914L182.645 106.074L181.295 106.805L183.033 110.013ZM190.328 106.769L188.605 103.59L193.542 100.913L192.894 99.7178L187.957 102.394L186.318 99.3695L191.86 96.3656L191.197 95.1418L184.248 98.9081L189.584 108.755L196.73 104.882L196.067 103.658L190.328 106.769Z" fill="#3A3A3A" fill-opacity="0.4"/>
<path d="M637.102 144.246L641.252 141.997C644.417 140.281 645.486 137.117 643.901 134.191C642.315 131.265 639.08 130.434 635.915 132.15L631.765 134.399L637.102 144.246ZM637.845 142.26L633.835 134.86L636.494 133.419C638.927 132.1 641.297 132.745 642.494 134.954C643.691 137.162 642.938 139.5 640.504 140.819L637.845 142.26ZM650.271 137.108L651.678 136.346L646.341 126.499L644.934 127.262L650.271 137.108ZM657.886 120.242L658.697 130.267L650.768 124.1L649.249 124.923L658.918 132.422L660.311 131.667L659.293 119.479L657.886 120.242ZM668.176 125.821L666.453 122.642L671.39 119.966L670.742 118.77L665.805 121.446L664.166 118.422L669.708 115.418L669.045 114.194L662.096 117.96L667.432 127.807L674.578 123.934L673.915 122.71L668.176 125.821ZM686.52 117.462L682.393 115.422C683.505 114.182 683.698 112.658 682.875 111.139C681.716 109.001 679.467 108.545 676.907 109.933L673.067 112.014L678.403 121.861L679.81 121.098L678.186 118.102L680.62 116.783C680.831 116.669 681.034 116.54 681.223 116.42L684.987 118.293L686.52 117.462ZM679.929 115.61L677.538 116.906L675.136 112.475L677.528 111.179C679.328 110.203 680.705 110.494 681.468 111.901C682.23 113.308 681.73 114.634 679.929 115.61ZM696.033 110.013C695.573 110.844 694.899 111.446 694.069 111.896C691.804 113.124 689.282 112.398 688.108 110.232C686.918 108.037 687.702 105.556 689.981 104.32C691.093 103.718 692.212 103.567 693.454 103.912L693.854 102.567C692.412 102.057 690.808 102.253 689.246 103.099C686.194 104.753 685.123 108.082 686.701 110.994C688.279 113.906 691.653 114.825 694.677 113.186C696.056 112.439 697.191 111.277 697.726 109.914L695.645 106.074L694.295 106.805L696.033 110.013ZM703.328 106.769L701.605 103.59L706.542 100.913L705.894 99.7178L700.957 102.394L699.318 99.3695L704.86 96.3656L704.197 95.1418L697.248 98.9081L702.584 108.755L709.73 104.882L709.067 103.658L703.328 106.769Z" fill="#3A3A3A" fill-opacity="0.4"/>
<path d="M327.722 102.392C329.267 103.199 330.882 103.357 332.323 102.81L331.868 101.435C330.68 101.843 329.544 101.737 328.452 101.167C326.211 99.9959 325.397 97.5124 326.545 95.3143C327.694 93.1162 330.197 92.3664 332.438 93.537C333.53 94.1075 334.273 94.9652 334.617 96.1737L336.005 95.7618C335.631 94.2666 334.572 93.0455 333.041 92.2453C330.02 90.6672 326.661 91.6379 325.127 94.5734C323.593 97.5089 324.715 100.821 327.722 102.392ZM339.365 108.474C342.385 110.053 345.752 109.068 347.278 106.146C348.804 103.225 347.69 99.8988 344.669 98.3207C341.62 96.7278 338.246 97.7269 336.727 100.634C335.209 103.541 336.316 106.882 339.365 108.474ZM340.024 107.212C337.798 106.049 336.997 103.573 338.146 101.375C339.294 99.1768 341.784 98.4196 344.01 99.5828C346.208 100.731 347.009 103.207 345.86 105.405C344.712 107.604 342.222 108.361 340.024 107.212ZM360.718 106.85L356.85 114.252L354.762 103.738L353.599 103.13L348.413 113.057L349.831 113.798L353.698 106.395L355.787 116.91L356.95 117.517L362.136 107.591L360.718 106.85ZM373.774 113.671L365.912 119.943L366.599 109.922L365.067 109.122L364.249 121.331L365.652 122.064L375.192 114.412L373.774 113.671ZM374.895 125.322L376.569 122.117L381.547 124.718L382.176 123.512L377.199 120.912L378.792 117.863L384.379 120.782L385.024 119.548L378.018 115.888L372.832 125.815L380.036 129.579L380.681 128.345L374.895 125.322ZM392.075 135.868L391.462 131.306C393.111 131.536 394.483 130.845 395.283 129.313C396.409 127.157 395.531 125.038 392.95 123.689L389.078 121.667L383.892 131.594L385.31 132.334L386.888 129.314L389.342 130.596C389.554 130.707 389.775 130.804 389.981 130.893L390.529 135.061L392.075 135.868ZM389.929 129.368L387.518 128.108L389.852 123.641L392.263 124.901C394.078 125.849 394.606 127.154 393.865 128.572C393.124 129.99 391.744 130.316 389.929 129.368ZM403.567 139.598C402.621 139.681 401.745 139.458 400.908 139.021C398.625 137.828 397.818 135.331 398.959 133.147C400.114 130.934 402.611 130.199 404.908 131.399C406.028 131.984 406.779 132.828 407.187 134.052L408.525 133.632C408.144 132.151 407.085 130.93 405.511 130.107C402.434 128.5 399.074 129.47 397.54 132.406C396.007 135.341 397.129 138.653 400.178 140.246C401.567 140.972 403.165 141.266 404.595 140.948L406.618 137.076L405.256 136.365L403.567 139.598ZM410.333 143.837L412.007 140.632L416.985 143.232L417.615 142.027L412.637 139.426L414.23 136.378L419.817 139.297L420.462 138.063L413.456 134.403L408.27 144.33L415.474 148.093L416.119 146.86L410.333 143.837Z" fill="#3A3A3A" fill-opacity="0.4"/>
<path d="M840.722 102.392C842.268 103.199 843.883 103.357 845.324 102.81L844.869 101.435C843.68 101.843 842.544 101.737 841.452 101.167C839.212 99.9959 838.397 97.5124 839.546 95.3143C840.694 93.1162 843.198 92.3664 845.439 93.537C846.53 94.1075 847.274 94.9652 847.617 96.1737L849.006 95.7618C848.632 94.2666 847.573 93.0455 846.041 92.2453C843.021 90.6672 839.661 91.6379 838.128 94.5734C836.594 97.5089 837.716 100.821 840.722 102.392ZM852.365 108.474C855.386 110.053 858.752 109.068 860.279 106.146C861.805 103.225 860.691 99.8988 857.67 98.3207C854.621 96.7278 851.247 97.7269 849.728 100.634C848.209 103.541 849.316 106.882 852.365 108.474ZM853.024 107.212C850.798 106.049 849.998 103.573 851.146 101.375C852.294 99.1768 854.784 98.4196 857.011 99.5828C859.209 100.731 860.009 103.207 858.861 105.405C857.712 107.604 855.223 108.361 853.024 107.212ZM873.718 106.85L869.851 114.252L867.762 103.738L866.599 103.13L861.413 113.057L862.831 113.798L866.699 106.395L868.787 116.91L869.95 117.517L875.136 107.591L873.718 106.85ZM886.775 113.671L878.913 119.943L879.599 109.922L878.067 109.122L877.249 121.331L878.653 122.064L888.193 114.412L886.775 113.671ZM887.895 125.322L889.57 122.117L894.547 124.718L895.177 123.512L890.199 120.912L891.792 117.863L897.38 120.782L898.024 119.548L891.019 115.888L885.832 125.815L893.036 129.579L893.681 128.345L887.895 125.322ZM905.075 135.868L904.462 131.306C906.111 131.536 907.483 130.845 908.284 129.313C909.41 127.157 908.531 125.038 905.95 123.689L902.079 121.667L896.893 131.594L898.311 132.334L899.889 129.314L902.342 130.596C902.555 130.707 902.775 130.804 902.981 130.893L903.529 135.061L905.075 135.868ZM902.929 129.368L900.519 128.108L902.852 123.641L905.263 124.901C907.078 125.849 907.606 127.154 906.865 128.572C906.125 129.99 904.745 130.316 902.929 129.368ZM916.568 139.598C915.621 139.681 914.745 139.458 913.908 139.021C911.625 137.828 910.818 135.331 911.959 133.147C913.115 130.934 915.611 130.199 917.909 131.399C919.029 131.984 919.78 132.828 920.187 134.052L921.526 133.632C921.144 132.151 920.085 130.93 918.511 130.107C915.434 128.5 912.075 129.47 910.541 132.406C909.007 135.341 910.129 138.653 913.178 140.246C914.568 140.972 916.166 141.266 917.596 140.948L919.618 137.076L918.257 136.365L916.568 139.598ZM923.333 143.837L925.008 140.632L929.985 143.232L930.615 142.027L925.637 139.426L927.23 136.378L932.818 139.297L933.462 138.063L926.457 134.403L921.271 144.33L928.475 148.093L929.119 146.86L923.333 143.837Z" fill="#3A3A3A" fill-opacity="0.4"/>
<rect x="471.001" y="144" width="25" height="25" rx="12.5" fill="#20D15B"/>
<path d="M449.989 110.6L447.673 117.464L445.357 110.6H444.253L441.889 117.428L439.621 110.6H438.385L441.193 119H442.477L444.769 112.292L447.061 119H448.321L451.129 110.6H449.989ZM457.696 115.856C457.696 113.9 456.388 112.58 454.552 112.58C452.716 112.58 451.36 113.936 451.36 115.82C451.36 117.716 452.728 119.072 454.78 119.072C455.836 119.072 456.712 118.712 457.288 118.04L456.652 117.296C456.184 117.812 455.56 118.064 454.816 118.064C453.556 118.064 452.656 117.32 452.512 116.204H457.672C457.684 116.096 457.696 115.952 457.696 115.856ZM454.552 113.552C455.668 113.552 456.472 114.308 456.592 115.376H452.512C452.632 114.296 453.448 113.552 454.552 113.552ZM464.835 112.58C463.815 112.58 462.867 112.868 462.207 113.396L462.687 114.26C463.179 113.84 463.947 113.576 464.703 113.576C465.843 113.576 466.407 114.14 466.407 115.112V115.34H464.583C462.687 115.34 462.027 116.18 462.027 117.2C462.027 118.304 462.939 119.072 464.379 119.072C465.375 119.072 466.083 118.736 466.467 118.16V119H467.559V115.16C467.559 113.42 466.575 112.58 464.835 112.58ZM464.571 118.184C463.695 118.184 463.167 117.788 463.167 117.152C463.167 116.612 463.491 116.168 464.631 116.168H466.407V117.056C466.119 117.788 465.435 118.184 464.571 118.184ZM470.795 113.708V112.64H469.691V119H470.843V115.832C470.843 114.44 471.611 113.684 472.847 113.684C472.931 113.684 473.015 113.684 473.111 113.696V112.58C471.995 112.58 471.203 112.964 470.795 113.708ZM480.22 115.856C480.22 113.9 478.912 112.58 477.076 112.58C475.24 112.58 473.884 113.936 473.884 115.82C473.884 117.716 475.252 119.072 477.304 119.072C478.36 119.072 479.236 118.712 479.812 118.04L479.176 117.296C478.708 117.812 478.084 118.064 477.34 118.064C476.08 118.064 475.18 117.32 475.036 116.204H480.196C480.208 116.096 480.22 115.952 480.22 115.856ZM477.076 113.552C478.192 113.552 478.996 114.308 479.116 115.376H475.036C475.156 114.296 475.972 113.552 477.076 113.552ZM488.438 112.58C487.466 112.58 486.674 112.928 486.194 113.54V110.096H485.042V119H486.194V115.724C486.194 114.344 486.986 113.612 488.21 113.612C489.302 113.612 489.926 114.224 489.926 115.472V119H491.078V115.34C491.078 113.468 489.986 112.58 488.438 112.58ZM498.993 115.856C498.993 113.9 497.685 112.58 495.849 112.58C494.013 112.58 492.657 113.936 492.657 115.82C492.657 117.716 494.025 119.072 496.077 119.072C497.133 119.072 498.009 118.712 498.585 118.04L497.949 117.296C497.481 117.812 496.857 118.064 496.113 118.064C494.853 118.064 493.953 117.32 493.809 116.204H498.969C498.981 116.096 498.993 115.952 498.993 115.856ZM495.849 113.552C496.965 113.552 497.769 114.308 497.889 115.376H493.809C493.929 114.296 494.745 113.552 495.849 113.552ZM501.697 113.708V112.64H500.593V119H501.745V115.832C501.745 114.44 502.513 113.684 503.749 113.684C503.833 113.684 503.917 113.684 504.013 113.696V112.58C502.897 112.58 502.105 112.964 501.697 113.708ZM511.122 115.856C511.122 113.9 509.814 112.58 507.978 112.58C506.142 112.58 504.786 113.936 504.786 115.82C504.786 117.716 506.154 119.072 508.206 119.072C509.262 119.072 510.138 118.712 510.714 118.04L510.078 117.296C509.61 117.812 508.986 118.064 508.242 118.064C506.982 118.064 506.082 117.32 505.938 116.204H511.098C511.11 116.096 511.122 115.952 511.122 115.856ZM507.978 113.552C509.094 113.552 509.898 114.308 510.018 115.376H505.938C506.058 114.296 506.874 113.552 507.978 113.552ZM512.782 116.348H513.694L513.922 110.6H512.566L512.782 116.348ZM513.25 119.072C513.694 119.072 514.018 118.724 514.018 118.304C514.018 117.872 513.694 117.536 513.25 117.536C512.794 117.536 512.458 117.872 512.458 118.304C512.458 118.724 512.794 119.072 513.25 119.072Z" fill="#20D15B"/>
<path d="M264 -19V248" stroke="#3A3A3A" stroke-width="2" stroke-dasharray="2 8"/>
<path d="M522 -19V248" stroke="#3A3A3A" stroke-width="2" stroke-dasharray="2 8"/>
<path d="M780 -19V248" stroke="#3A3A3A" stroke-width="2" stroke-dasharray="2 8"/>
<path d="M79.66 222H86.02C90.6 222 93.74 219.24 93.74 215C93.74 210.76 90.6 208 86.02 208H79.66V222ZM82.9 219.34V210.66H85.86C88.64 210.66 90.46 212.32 90.46 215C90.46 217.68 88.64 219.34 85.86 219.34H82.9ZM97.1834 222H100.423V208H97.1834V222ZM109.346 222.24C113.346 222.24 115.286 220.24 115.286 217.9C115.286 212.76 107.146 214.54 107.146 211.96C107.146 211.08 107.886 210.36 109.806 210.36C111.046 210.36 112.386 210.72 113.686 211.46L114.686 209C113.386 208.18 111.586 207.76 109.826 207.76C105.846 207.76 103.926 209.74 103.926 212.12C103.926 217.32 112.066 215.52 112.066 218.14C112.066 219 111.286 219.64 109.366 219.64C107.686 219.64 105.926 219.04 104.746 218.18L103.646 220.62C104.886 221.58 107.126 222.24 109.346 222.24ZM125.2 222.24C127.64 222.24 129.66 221.36 130.98 219.74L128.9 217.82C127.96 218.92 126.78 219.48 125.38 219.48C122.76 219.48 120.9 217.64 120.9 215C120.9 212.36 122.76 210.52 125.38 210.52C126.78 210.52 127.96 211.08 128.9 212.16L130.98 210.24C129.66 208.64 127.64 207.76 125.22 207.76C120.86 207.76 117.62 210.78 117.62 215C117.62 219.22 120.86 222.24 125.2 222.24ZM140.655 222.24C145.055 222.24 148.315 219.18 148.315 215C148.315 210.82 145.055 207.76 140.655 207.76C136.235 207.76 132.995 210.84 132.995 215C132.995 219.16 136.235 222.24 140.655 222.24ZM140.655 219.48C138.155 219.48 136.275 217.66 136.275 215C136.275 212.34 138.155 210.52 140.655 210.52C143.155 210.52 145.035 212.34 145.035 215C145.035 217.66 143.155 219.48 140.655 219.48ZM161.521 208L157.201 218L152.941 208H149.441L155.481 222H158.681L164.741 208H161.521ZM170.13 219.4V216.16H176.63V213.64H170.13V210.6H177.49V208H166.91V222H177.75V219.4H170.13ZM193.728 222L190.588 217.5C192.408 216.72 193.468 215.18 193.468 213.08C193.468 209.94 191.128 208 187.388 208H181.328V222H184.568V218.1H187.388H187.548L190.248 222H193.728ZM190.188 213.08C190.188 214.6 189.188 215.52 187.208 215.52H184.568V210.64H187.208C189.188 210.64 190.188 211.54 190.188 213.08Z" fill="black"/>
<path d="M103.358 235.136C103.772 235.136 104.096 234.812 104.096 234.398C104.096 234.002 103.772 233.678 103.358 233.678C102.944 233.678 102.62 234.02 102.62 234.416C102.62 234.812 102.944 235.136 103.358 235.136ZM102.908 246.818H103.808V237.422H102.908V246.818ZM112.191 237.35C110.409 237.35 109.095 238.142 108.465 239.456V237.422H107.601V246.818H108.501V241.814C108.501 239.582 109.851 238.16 112.065 238.16C113.973 238.16 115.107 239.276 115.107 241.4V246.818H116.007V241.328C116.007 238.7 114.477 237.35 112.191 237.35ZM122.089 246.89C124.483 246.89 125.797 245.846 125.797 244.316C125.797 240.734 119.569 242.732 119.569 239.906C119.569 238.898 120.379 238.142 122.215 238.142C123.223 238.142 124.249 238.412 125.041 238.988L125.455 238.268C124.717 237.71 123.421 237.35 122.233 237.35C119.857 237.35 118.669 238.502 118.669 239.924C118.669 243.614 124.897 241.598 124.897 244.334C124.897 245.396 124.105 246.098 122.125 246.098C120.739 246.098 119.461 245.576 118.741 244.964L118.327 245.684C119.065 246.368 120.541 246.89 122.089 246.89ZM128.758 235.136C129.172 235.136 129.496 234.812 129.496 234.398C129.496 234.002 129.172 233.678 128.758 233.678C128.344 233.678 128.02 234.02 128.02 234.416C128.02 234.812 128.344 235.136 128.758 235.136ZM128.308 246.818H129.208V237.422H128.308V246.818ZM140.598 237.422V239.546C139.842 238.142 138.384 237.35 136.656 237.35C133.992 237.35 131.976 239.222 131.976 241.904C131.976 244.586 133.992 246.476 136.656 246.476C138.348 246.476 139.788 245.702 140.562 244.334V245.918C140.562 248.42 139.392 249.572 136.89 249.572C135.378 249.572 134.028 249.068 133.092 248.204L132.606 248.888C133.56 249.842 135.198 250.382 136.908 250.382C139.932 250.382 141.462 248.96 141.462 245.81V237.422H140.598ZM136.728 245.666C134.514 245.666 132.894 244.118 132.894 241.904C132.894 239.69 134.514 238.16 136.728 238.16C138.96 238.16 140.58 239.69 140.58 241.904C140.58 244.118 138.96 245.666 136.728 245.666ZM149.861 237.35C148.115 237.35 146.819 238.106 146.171 239.384V233.462H145.271V246.818H146.171V241.814C146.171 239.582 147.521 238.16 149.735 238.16C151.643 238.16 152.777 239.276 152.777 241.4V246.818H153.677V241.328C153.677 238.7 152.147 237.35 149.861 237.35ZM161.667 245.594C161.289 245.936 160.767 246.116 160.209 246.116C159.057 246.116 158.463 245.45 158.463 244.244V238.196H161.451V237.422H158.463V235.37H157.563V237.422H155.835V238.196H157.563V244.334C157.563 245.918 158.463 246.89 160.119 246.89C160.821 246.89 161.577 246.674 162.045 246.224L161.667 245.594ZM166.93 246.89C169.324 246.89 170.638 245.846 170.638 244.316C170.638 240.734 164.41 242.732 164.41 239.906C164.41 238.898 165.22 238.142 167.056 238.142C168.064 238.142 169.09 238.412 169.882 238.988L170.296 238.268C169.558 237.71 168.262 237.35 167.074 237.35C164.698 237.35 163.51 238.502 163.51 239.924C163.51 243.614 169.738 241.598 169.738 244.334C169.738 245.396 168.946 246.098 166.966 246.098C165.58 246.098 164.302 245.576 163.582 244.964L163.168 245.684C163.906 246.368 165.382 246.89 166.93 246.89Z" fill="black"/>
<path d="M364.624 237.35C362.932 237.35 361.51 238.196 360.772 239.636V237.422H359.908V250.31H360.808V244.676C361.564 246.08 362.968 246.89 364.624 246.89C367.27 246.89 369.268 244.946 369.268 242.12C369.268 239.312 367.27 237.35 364.624 237.35ZM364.57 246.08C362.41 246.08 360.79 244.478 360.79 242.12C360.79 239.762 362.41 238.16 364.57 238.16C366.73 238.16 368.368 239.762 368.368 242.12C368.368 244.478 366.73 246.08 364.57 246.08ZM372.918 239.474V237.422H372.054V246.818H372.954V241.922C372.954 239.6 374.196 238.214 376.284 238.214C376.356 238.214 376.428 238.232 376.5 238.232V237.35C374.736 237.35 373.494 238.106 372.918 239.474ZM382.564 246.89C385.264 246.89 387.262 244.91 387.262 242.12C387.262 239.33 385.264 237.35 382.564 237.35C379.864 237.35 377.866 239.33 377.866 242.12C377.866 244.91 379.864 246.89 382.564 246.89ZM382.564 246.08C380.404 246.08 378.784 244.478 378.784 242.12C378.784 239.762 380.404 238.16 382.564 238.16C384.724 238.16 386.344 239.762 386.344 242.12C386.344 244.478 384.724 246.08 382.564 246.08ZM394.77 237.35C393.114 237.35 391.71 238.16 390.954 239.564V233.462H390.054V246.818H390.918V244.604C391.656 246.044 393.078 246.89 394.77 246.89C397.416 246.89 399.414 244.928 399.414 242.12C399.414 239.294 397.416 237.35 394.77 237.35ZM394.716 246.08C392.556 246.08 390.936 244.478 390.936 242.12C390.936 239.762 392.556 238.16 394.716 238.16C396.876 238.16 398.514 239.762 398.514 242.12C398.514 244.478 396.876 246.08 394.716 246.08ZM402.201 246.818H403.101V233.462H402.201V246.818ZM414.85 242.084C414.85 239.294 412.942 237.35 410.368 237.35C407.794 237.35 405.868 239.33 405.868 242.12C405.868 244.91 407.866 246.89 410.71 246.89C412.132 246.89 413.428 246.368 414.256 245.36L413.734 244.766C413.014 245.648 411.916 246.08 410.728 246.08C408.478 246.08 406.84 244.568 406.75 242.336H414.832C414.832 242.246 414.85 242.156 414.85 242.084ZM410.368 238.142C412.366 238.142 413.842 239.6 413.968 241.634H406.768C406.912 239.582 408.37 238.142 410.368 238.142ZM429.335 237.35C427.517 237.35 426.149 238.25 425.537 239.618C425.033 238.124 423.791 237.35 422.099 237.35C420.389 237.35 419.111 238.124 418.499 239.438V237.422H417.635V246.818H418.535V241.814C418.535 239.582 419.849 238.16 421.973 238.16C423.809 238.16 424.907 239.276 424.907 241.4V246.818H425.807V241.814C425.807 239.582 427.121 238.16 429.245 238.16C431.081 238.16 432.179 239.276 432.179 241.4V246.818H433.079V241.328C433.079 238.7 431.603 237.35 429.335 237.35Z" fill="black"/>
<path d="M356.66 222H363.02C367.6 222 370.74 219.24 370.74 215C370.74 210.76 367.6 208 363.02 208H356.66V222ZM359.9 219.34V210.66H362.86C365.64 210.66 367.46 212.32 367.46 215C367.46 217.68 365.64 219.34 362.86 219.34H359.9ZM377.403 219.4V216.16H383.903V213.64H377.403V210.6H384.763V208H374.183V222H385.023V219.4H377.403ZM399.181 210.6V208H388.601V222H391.841V216.9H398.321V214.3H391.841V210.6H399.181ZM402.375 222H405.615V208H402.375V222ZM419.577 208V216.5L412.617 208H409.937V222H413.137V213.5L420.117 222H422.777V208H419.577ZM430.31 219.4V216.16H436.81V213.64H430.31V210.6H437.67V208H427.09V222H437.93V219.4H430.31Z" fill="black"/>
<path d="M611.624 237.532C609.932 237.532 608.51 238.378 607.772 239.818V237.604H606.908V250.492H607.808V244.858C608.564 246.262 609.968 247.072 611.624 247.072C614.27 247.072 616.268 245.128 616.268 242.302C616.268 239.494 614.27 237.532 611.624 237.532ZM611.57 246.262C609.41 246.262 607.79 244.66 607.79 242.302C607.79 239.944 609.41 238.342 611.57 238.342C613.73 238.342 615.368 239.944 615.368 242.302C615.368 244.66 613.73 246.262 611.57 246.262ZM619.918 239.656V237.604H619.054V247H619.954V242.104C619.954 239.782 621.196 238.396 623.284 238.396C623.356 238.396 623.428 238.414 623.5 238.414V237.532C621.736 237.532 620.494 238.288 619.918 239.656ZM629.564 247.072C632.264 247.072 634.262 245.092 634.262 242.302C634.262 239.512 632.264 237.532 629.564 237.532C626.864 237.532 624.866 239.512 624.866 242.302C624.866 245.092 626.864 247.072 629.564 247.072ZM629.564 246.262C627.404 246.262 625.784 244.66 625.784 242.302C625.784 239.944 627.404 238.342 629.564 238.342C631.724 238.342 633.344 239.944 633.344 242.302C633.344 244.66 631.724 246.262 629.564 246.262ZM641.338 245.776C640.96 246.118 640.438 246.298 639.88 246.298C638.728 246.298 638.134 245.632 638.134 244.426V238.378H641.122V237.604H638.134V235.552H637.234V237.604H635.506V238.378H637.234V244.516C637.234 246.1 638.134 247.072 639.79 247.072C640.492 247.072 641.248 246.856 641.716 246.406L641.338 245.776ZM647.564 247.072C650.264 247.072 652.262 245.092 652.262 242.302C652.262 239.512 650.264 237.532 647.564 237.532C644.864 237.532 642.866 239.512 642.866 242.302C642.866 245.092 644.864 247.072 647.564 247.072ZM647.564 246.262C645.404 246.262 643.784 244.66 643.784 242.302C643.784 239.944 645.404 238.342 647.564 238.342C649.724 238.342 651.344 239.944 651.344 242.302C651.344 244.66 649.724 246.262 647.564 246.262ZM659.338 245.776C658.96 246.118 658.438 246.298 657.88 246.298C656.728 246.298 656.134 245.632 656.134 244.426V238.378H659.122V237.604H656.134V235.552H655.234V237.604H653.506V238.378H655.234V244.516C655.234 246.1 656.134 247.072 657.79 247.072C658.492 247.072 659.248 246.856 659.716 246.406L659.338 245.776ZM668.675 237.604L664.913 246.01L661.151 237.604H660.197L664.427 246.964L663.923 248.098C663.347 249.376 662.717 249.772 661.853 249.772C661.151 249.772 660.593 249.538 660.107 249.034L659.657 249.718C660.197 250.276 660.989 250.564 661.835 250.564C663.077 250.564 664.013 250.006 664.769 248.278L669.593 237.604H668.675ZM676.276 237.532C674.584 237.532 673.162 238.378 672.424 239.818V237.604H671.56V250.492H672.46V244.858C673.216 246.262 674.62 247.072 676.276 247.072C678.922 247.072 680.92 245.128 680.92 242.302C680.92 239.494 678.922 237.532 676.276 237.532ZM676.222 246.262C674.062 246.262 672.442 244.66 672.442 242.302C672.442 239.944 674.062 238.342 676.222 238.342C678.382 238.342 680.02 239.944 680.02 242.302C680.02 244.66 678.382 246.262 676.222 246.262ZM691.663 242.266C691.663 239.476 689.755 237.532 687.181 237.532C684.607 237.532 682.681 239.512 682.681 242.302C682.681 245.092 684.679 247.072 687.523 247.072C688.945 247.072 690.241 246.55 691.069 245.542L690.547 244.948C689.827 245.83 688.729 246.262 687.541 246.262C685.291 246.262 683.653 244.75 683.563 242.518H691.645C691.645 242.428 691.663 242.338 691.663 242.266ZM687.181 238.324C689.179 238.324 690.655 239.782 690.781 241.816H683.581C683.725 239.764 685.183 238.324 687.181 238.324ZM696.823 247.072C699.217 247.072 700.531 246.028 700.531 244.498C700.531 240.916 694.303 242.914 694.303 240.088C694.303 239.08 695.113 238.324 696.949 238.324C697.957 238.324 698.983 238.594 699.775 239.17L700.189 238.45C699.451 237.892 698.155 237.532 696.967 237.532C694.591 237.532 693.403 238.684 693.403 240.106C693.403 243.796 699.631 241.78 699.631 244.516C699.631 245.578 698.839 246.28 696.859 246.28C695.473 246.28 694.195 245.758 693.475 245.146L693.061 245.866C693.799 246.55 695.275 247.072 696.823 247.072Z" fill="black"/>
<path d="M600.66 222H607.02C611.6 222 614.74 219.24 614.74 215C614.74 210.76 611.6 208 607.02 208H600.66V222ZM603.9 219.34V210.66H606.86C609.64 210.66 611.46 212.32 611.46 215C611.46 217.68 609.64 219.34 606.86 219.34H603.9ZM621.403 219.4V216.16H627.903V213.64H621.403V210.6H628.763V208H618.183V222H629.023V219.4H621.403ZM642.646 208L638.326 218L634.066 208H630.566L636.606 222H639.806L645.866 208H642.646ZM651.255 219.4V216.16H657.755V213.64H651.255V210.6H658.615V208H648.035V222H658.875V219.4H651.255ZM662.453 222H672.713V219.36H665.693V208H662.453V222ZM682.069 222.24C686.469 222.24 689.729 219.18 689.729 215C689.729 210.82 686.469 207.76 682.069 207.76C677.649 207.76 674.409 210.84 674.409 215C674.409 219.16 677.649 222.24 682.069 222.24ZM682.069 219.48C679.569 219.48 677.689 217.66 677.689 215C677.689 212.34 679.569 210.52 682.069 210.52C684.569 210.52 686.449 212.34 686.449 215C686.449 217.66 684.569 219.48 682.069 219.48ZM699.224 208H693.164V222H696.404V218.14H699.224C702.964 218.14 705.304 216.2 705.304 213.08C705.304 209.94 702.964 208 699.224 208ZM699.044 215.5H696.404V210.64H699.044C701.024 210.64 702.024 211.54 702.024 213.08C702.024 214.6 701.024 215.5 699.044 215.5Z" fill="black"/>
<path d="M900.532 237.422L896.752 245.828L893.008 237.422H892.054L896.284 246.818H897.202L901.45 237.422H900.532ZM906.305 237.35C904.847 237.35 903.479 237.854 902.543 238.682L902.993 239.33C903.767 238.628 904.937 238.142 906.233 238.142C908.069 238.142 909.023 239.078 909.023 240.824V241.58H905.801C903.191 241.58 902.291 242.786 902.291 244.208C902.291 245.81 903.569 246.89 905.675 246.89C907.313 246.89 908.465 246.224 909.059 245.144V246.818H909.923V240.86C909.923 238.538 908.627 237.35 906.305 237.35ZM905.801 246.152C904.145 246.152 903.191 245.396 903.191 244.172C903.191 243.092 903.875 242.282 905.819 242.282H909.023V244.046C908.483 245.396 907.385 246.152 905.801 246.152ZM913.631 246.818H914.531V233.462H913.631V246.818ZM925.65 237.422V242.426C925.65 244.658 924.336 246.08 922.212 246.08C920.25 246.08 919.116 244.964 919.116 242.84V237.422H918.216V242.912C918.216 245.54 919.746 246.89 922.14 246.89C923.796 246.89 925.074 246.116 925.686 244.802V246.818H926.55V237.422H925.65ZM938.321 242.084C938.321 239.294 936.413 237.35 933.839 237.35C931.265 237.35 929.339 239.33 929.339 242.12C929.339 244.91 931.337 246.89 934.181 246.89C935.603 246.89 936.899 246.368 937.727 245.36L937.205 244.766C936.485 245.648 935.387 246.08 934.199 246.08C931.949 246.08 930.311 244.568 930.221 242.336H938.303C938.303 242.246 938.321 242.156 938.321 242.084ZM933.839 238.142C935.837 238.142 937.313 239.6 937.439 241.634H930.239C930.383 239.582 931.841 238.142 933.839 238.142Z" fill="black"/>
<path d="M868.66 222H875.02C879.6 222 882.74 219.24 882.74 215C882.74 210.76 879.6 208 875.02 208H868.66V222ZM871.9 219.34V210.66H874.86C877.64 210.66 879.46 212.32 879.46 215C879.46 217.68 877.64 219.34 874.86 219.34H871.9ZM889.403 219.4V216.16H895.903V213.64H889.403V210.6H896.763V208H886.183V222H897.023V219.4H889.403ZM900.601 222H910.861V219.36H903.841V208H900.601V222ZM913.672 222H916.912V208H913.672V222ZM931.396 208L927.076 218L922.816 208H919.316L925.356 222H928.556L934.616 208H931.396ZM940.005 219.4V216.16H946.505V213.64H940.005V210.6H947.365V208H936.785V222H947.625V219.4H940.005ZM963.603 222L960.463 217.5C962.283 216.72 963.343 215.18 963.343 213.08C963.343 209.94 961.003 208 957.263 208H951.203V222H954.443V218.1H957.263H957.423L960.123 222H963.603ZM960.063 213.08C960.063 214.6 959.063 215.52 957.083 215.52H954.443V210.64H957.083C959.063 210.64 960.063 211.54 960.063 213.08Z" fill="black"/>
</g>
<defs>
<linearGradient id="paint0_linear" x1="1.00098" y1="133" x2="1044" y2="133" gradientUnits="userSpaceOnUse">
<stop stop-color="#E95642"/>
<stop offset="0.262021" stop-color="#966995"/>
<stop offset="0.51168" stop-color="#4E85F5"/>
<stop offset="0.757988" stop-color="#56B296"/>
<stop offset="1" stop-color="#50E070"/>
</linearGradient>
<clipPath id="clip0">
<rect width="1043" height="254" fill="white"/>
</clipPath>
</defs>
</svg>
