<svg id="Layer_1" data-name="Layer 1" xmlns="http://www.w3.org/2000/svg" viewBox="0 0 400.09 287.78"><defs><style>.cls-1{fill:#232323;}.cls-2{fill:#494949;}.cls-3{fill:#606060;}.cls-4{fill:#3a3a3a;}</style></defs><ellipse cx="199.57" cy="57.32" rx="7.83" ry="4.52"/><ellipse cx="124.84" cy="100.47" rx="7.83" ry="4.52"/><ellipse cx="87.47" cy="122.04" rx="7.83" ry="4.52"/><ellipse cx="50.1" cy="143.62" rx="7.83" ry="4.52"/><ellipse cx="12.74" cy="165.19" rx="7.83" ry="4.52"/><ellipse cx="162.2" cy="78.9" rx="7.83" ry="4.52"/><ellipse cx="236.94" cy="78.9" rx="7.83" ry="4.52"/><ellipse cx="162.21" cy="122.05" rx="7.83" ry="4.52"/><ellipse cx="124.84" cy="143.62" rx="7.83" ry="4.52"/><ellipse cx="87.47" cy="165.19" rx="7.83" ry="4.52"/><ellipse cx="50.1" cy="186.77" rx="7.83" ry="4.52"/><ellipse cx="199.57" cy="100.47" rx="7.83" ry="4.52"/><ellipse cx="274.31" cy="100.47" rx="7.83" ry="4.52"/><ellipse cx="199.57" cy="143.62" rx="7.83" ry="4.52"/><ellipse cx="162.21" cy="165.19" rx="7.83" ry="4.52"/><ellipse cx="124.84" cy="186.77" rx="7.83" ry="4.52"/><ellipse cx="87.47" cy="208.34" rx="7.83" ry="4.52"/><ellipse cx="236.94" cy="122.05" rx="7.83" ry="4.52"/><ellipse cx="311.67" cy="122.05" rx="7.83" ry="4.52"/><ellipse cx="236.94" cy="165.19" rx="7.83" ry="4.52"/><ellipse cx="199.57" cy="186.77" rx="7.83" ry="4.52"/><ellipse cx="162.21" cy="208.34" rx="7.83" ry="4.52"/><ellipse cx="124.84" cy="229.91" rx="7.83" ry="4.52"/><ellipse cx="274.31" cy="143.62" rx="7.83" ry="4.52"/><ellipse cx="349.04" cy="143.62" rx="7.83" ry="4.52"/><ellipse cx="274.31" cy="186.77" rx="7.83" ry="4.52"/><ellipse cx="236.94" cy="208.34" rx="7.83" ry="4.52"/><ellipse cx="199.57" cy="229.91" rx="7.83" ry="4.52"/><ellipse cx="162.21" cy="251.49" rx="7.83" ry="4.52"/><ellipse cx="311.67" cy="165.19" rx="7.83" ry="4.52"/><ellipse cx="386.41" cy="165.19" rx="7.83" ry="4.52"/><ellipse cx="311.67" cy="208.34" rx="7.83" ry="4.52"/><ellipse cx="274.31" cy="229.91" rx="7.83" ry="4.52"/><ellipse cx="236.94" cy="251.49" rx="7.83" ry="4.52"/><ellipse cx="199.57" cy="273.06" rx="7.83" ry="4.52"/><ellipse cx="349.04" cy="186.77" rx="7.83" ry="4.52"/><ellipse cx="12.74" cy="165.19" rx="7.83" ry="4.52"/><rect x="4.91" y="163.05" width="15.66" height="2.14"/><ellipse class="cls-1" cx="12.74" cy="163.05" rx="7.83" ry="4.52"/><rect class="cls-2" x="11.03" y="135.23" width="3.54" height="27.27"/><ellipse class="cls-2" cx="12.8" cy="162.5" rx="1.77" ry="1.02"/><ellipse class="cls-3" cx="12.8" cy="135.23" rx="1.77" ry="1.02"/><ellipse cx="87.47" cy="165.19" rx="7.83" ry="4.52"/><rect x="79.64" y="163.05" width="15.66" height="2.14"/><ellipse class="cls-1" cx="87.47" cy="163.05" rx="7.83" ry="4.52"/><rect class="cls-2" x="85.76" y="135.23" width="3.54" height="27.27"/><ellipse class="cls-2" cx="87.53" cy="162.5" rx="1.77" ry="1.02"/><ellipse class="cls-3" cx="87.53" cy="135.23" rx="1.77" ry="1.02"/><ellipse cx="124.84" cy="143.62" rx="7.83" ry="4.52"/><rect x="117.01" y="141.48" width="15.66" height="2.14"/><ellipse class="cls-1" cx="124.84" cy="141.48" rx="7.83" ry="4.52"/><rect class="cls-2" x="123.13" y="113.65" width="3.54" height="27.27"/><ellipse class="cls-2" cx="124.9" cy="140.93" rx="1.77" ry="1.02"/><ellipse class="cls-3" cx="124.9" cy="113.65" rx="1.77" ry="1.02"/><ellipse cx="199.57" cy="143.62" rx="7.83" ry="4.52"/><rect x="191.74" y="141.48" width="15.66" height="2.14"/><ellipse class="cls-1" cx="199.57" cy="141.48" rx="7.83" ry="4.52"/><rect class="cls-2" x="197.86" y="113.65" width="3.54" height="27.27"/><ellipse class="cls-2" cx="199.63" cy="140.93" rx="1.77" ry="1.02"/><ellipse class="cls-3" cx="199.63" cy="113.65" rx="1.77" ry="1.02"/><ellipse cx="274.31" cy="143.62" rx="7.83" ry="4.52"/><rect x="266.48" y="141.48" width="15.66" height="2.14"/><ellipse class="cls-1" cx="274.31" cy="141.48" rx="7.83" ry="4.52"/><rect class="cls-2" x="272.6" y="113.65" width="3.54" height="27.27"/><ellipse class="cls-2" cx="274.37" cy="140.93" rx="1.77" ry="1.02"/><ellipse class="cls-3" cx="274.37" cy="113.65" rx="1.77" ry="1.02"/><ellipse cx="199.57" cy="100.47" rx="7.83" ry="4.52"/><rect x="191.74" y="98.33" width="15.66" height="2.14"/><ellipse class="cls-1" cx="199.57" cy="98.33" rx="7.83" ry="4.52"/><rect class="cls-2" x="197.86" y="70.51" width="3.54" height="27.27"/><ellipse class="cls-2" cx="199.63" cy="97.78" rx="1.77" ry="1.02"/><ellipse class="cls-3" cx="199.63" cy="70.51" rx="1.77" ry="1.02"/><ellipse cx="349.04" cy="143.62" rx="7.83" ry="4.52"/><rect x="341.21" y="141.48" width="15.66" height="2.14"/><ellipse class="cls-1" cx="349.04" cy="141.48" rx="7.83" ry="4.52"/><rect class="cls-2" x="347.33" y="113.65" width="3.54" height="27.27"/><ellipse class="cls-2" cx="349.1" cy="140.93" rx="1.77" ry="1.02"/><ellipse class="cls-3" cx="349.1" cy="113.65" rx="1.77" ry="1.02"/><ellipse cx="50.1" cy="186.77" rx="7.83" ry="4.52"/><rect x="42.27" y="184.63" width="15.66" height="2.14"/><ellipse class="cls-1" cx="50.1" cy="184.63" rx="7.83" ry="4.52"/><rect class="cls-2" x="48.4" y="156.8" width="3.54" height="27.27"/><ellipse class="cls-2" cx="50.17" cy="184.08" rx="1.77" ry="1.02"/><ellipse class="cls-3" cx="50.17" cy="156.8" rx="1.77" ry="1.02"/><ellipse cx="124.84" cy="186.77" rx="7.83" ry="4.52"/><rect x="117.01" y="184.63" width="15.66" height="2.14"/><ellipse class="cls-1" cx="124.84" cy="184.63" rx="7.83" ry="4.52"/><rect class="cls-2" x="123.13" y="156.8" width="3.54" height="27.27"/><ellipse class="cls-2" cx="124.9" cy="184.08" rx="1.77" ry="1.02"/><ellipse class="cls-3" cx="124.9" cy="156.8" rx="1.77" ry="1.02"/><ellipse cx="199.57" cy="186.77" rx="7.83" ry="4.52"/><rect x="191.74" y="184.63" width="15.66" height="2.14"/><ellipse class="cls-1" cx="199.57" cy="184.63" rx="7.83" ry="4.52"/><rect class="cls-2" x="197.86" y="156.8" width="3.54" height="27.27"/><ellipse class="cls-2" cx="199.63" cy="184.08" rx="1.77" ry="1.02"/><ellipse class="cls-3" cx="199.63" cy="156.8" rx="1.77" ry="1.02"/><ellipse cx="349.04" cy="186.77" rx="7.83" ry="4.52"/><rect x="341.21" y="184.63" width="15.66" height="2.14"/><ellipse class="cls-1" cx="349.04" cy="184.63" rx="7.83" ry="4.52"/><rect class="cls-2" x="347.33" y="156.8" width="3.54" height="27.27"/><ellipse class="cls-2" cx="349.1" cy="184.08" rx="1.77" ry="1.02"/><ellipse class="cls-3" cx="349.1" cy="156.8" rx="1.77" ry="1.02"/><ellipse cx="87.47" cy="122.04" rx="7.83" ry="4.52"/><rect x="79.64" y="119.9" width="15.66" height="2.14"/><ellipse class="cls-1" cx="87.47" cy="119.9" rx="7.83" ry="4.52"/><rect class="cls-2" x="85.76" y="92.08" width="3.54" height="27.27"/><ellipse class="cls-2" cx="87.53" cy="119.35" rx="1.77" ry="1.02"/><ellipse class="cls-3" cx="87.53" cy="92.08" rx="1.77" ry="1.02"/><ellipse cx="162.2" cy="122.04" rx="7.83" ry="4.52"/><rect x="154.37" y="119.9" width="15.66" height="2.14"/><ellipse class="cls-1" cx="162.2" cy="119.9" rx="7.83" ry="4.52"/><rect class="cls-2" x="160.5" y="92.08" width="3.54" height="27.27"/><ellipse class="cls-2" cx="162.27" cy="119.35" rx="1.77" ry="1.02"/><ellipse class="cls-3" cx="162.27" cy="92.08" rx="1.77" ry="1.02"/><ellipse cx="236.94" cy="122.04" rx="7.83" ry="4.52"/><rect x="229.11" y="119.9" width="15.66" height="2.14"/><ellipse class="cls-1" cx="236.94" cy="119.9" rx="7.83" ry="4.52"/><rect class="cls-2" x="235.23" y="92.08" width="3.54" height="27.27"/><ellipse class="cls-2" cx="237" cy="119.35" rx="1.77" ry="1.02"/><ellipse class="cls-3" cx="237" cy="92.08" rx="1.77" ry="1.02"/><ellipse cx="199.57" cy="273.06" rx="7.83" ry="4.52"/><rect x="191.74" y="270.92" width="15.66" height="2.14"/><ellipse class="cls-1" cx="199.57" cy="270.92" rx="7.83" ry="4.52"/><rect class="cls-2" x="197.86" y="243.1" width="3.54" height="27.27"/><ellipse class="cls-2" cx="199.63" cy="270.37" rx="1.77" ry="1.02"/><ellipse class="cls-3" cx="199.63" cy="243.1" rx="1.77" ry="1.02"/><ellipse cx="124.84" cy="229.91" rx="7.83" ry="4.52"/><rect x="117.01" y="227.77" width="15.66" height="2.14"/><ellipse class="cls-1" cx="124.84" cy="227.77" rx="7.83" ry="4.52"/><rect class="cls-2" x="123.13" y="199.95" width="3.54" height="27.27"/><ellipse class="cls-2" cx="124.9" cy="227.22" rx="1.77" ry="1.02"/><ellipse class="cls-3" cx="124.9" cy="199.95" rx="1.77" ry="1.02"/><ellipse cx="199.57" cy="229.91" rx="7.83" ry="4.52"/><rect x="191.74" y="227.77" width="15.66" height="2.14"/><ellipse class="cls-1" cx="199.57" cy="227.77" rx="7.83" ry="4.52"/><rect class="cls-2" x="197.86" y="199.95" width="3.54" height="27.27"/><ellipse class="cls-2" cx="199.63" cy="227.22" rx="1.77" ry="1.02"/><ellipse class="cls-3" cx="199.63" cy="199.95" rx="1.77" ry="1.02"/><ellipse cx="274.31" cy="229.91" rx="7.83" ry="4.52"/><rect x="266.48" y="227.77" width="15.66" height="2.14"/><ellipse class="cls-1" cx="274.31" cy="227.77" rx="7.83" ry="4.52"/><rect class="cls-2" x="272.6" y="199.95" width="3.54" height="27.27"/><ellipse class="cls-2" cx="274.37" cy="227.22" rx="1.77" ry="1.02"/><ellipse class="cls-3" cx="274.37" cy="199.95" rx="1.77" ry="1.02"/><ellipse cx="199.57" cy="57.32" rx="7.83" ry="4.52"/><rect x="191.74" y="55.18" width="15.66" height="2.14"/><ellipse class="cls-1" cx="199.57" cy="55.18" rx="7.83" ry="4.52"/><rect class="cls-2" x="197.86" y="27.36" width="3.54" height="27.27"/><ellipse class="cls-2" cx="199.63" cy="54.63" rx="1.77" ry="1.02"/><ellipse class="cls-3" cx="199.63" cy="27.36" rx="1.77" ry="1.02"/><ellipse cx="162.2" cy="78.9" rx="7.83" ry="4.52"/><rect x="154.37" y="76.76" width="15.66" height="2.14"/><ellipse class="cls-1" cx="162.2" cy="76.76" rx="7.83" ry="4.52"/><rect class="cls-2" x="160.5" y="48.93" width="3.54" height="27.27"/><ellipse class="cls-2" cx="162.27" cy="76.21" rx="1.77" ry="1.02"/><ellipse class="cls-3" cx="162.27" cy="48.93" rx="1.77" ry="1.02"/><ellipse cx="236.94" cy="78.9" rx="7.83" ry="4.52"/><rect x="229.11" y="76.76" width="15.66" height="2.14"/><ellipse class="cls-1" cx="236.94" cy="76.76" rx="7.83" ry="4.52"/><rect class="cls-2" x="235.23" y="48.93" width="3.54" height="27.27"/><ellipse class="cls-2" cx="237" cy="76.21" rx="1.77" ry="1.02"/><ellipse class="cls-3" cx="237" cy="48.93" rx="1.77" ry="1.02"/><ellipse cx="311.67" cy="122.04" rx="7.83" ry="4.52"/><rect x="303.84" y="119.9" width="15.66" height="2.14"/><ellipse class="cls-1" cx="311.67" cy="119.9" rx="7.83" ry="4.52"/><rect class="cls-2" x="309.97" y="92.08" width="3.54" height="27.27"/><ellipse class="cls-2" cx="311.74" cy="119.35" rx="1.77" ry="1.02"/><ellipse class="cls-3" cx="311.74" cy="92.08" rx="1.77" ry="1.02"/><polygon points="272.59 70.67 237.92 50.67 237.92 55.26 272.59 75.26 272.59 70.67"/><polygon points="347.32 113.8 312.56 93.74 312.56 98.33 347.32 118.39 347.32 113.8"/><polygon points="349.98 115.33 349.98 119.92 385.54 140.44 385.54 135.85 349.98 115.33"/><ellipse cx="274.31" cy="100.47" rx="7.83" ry="4.52"/><rect x="266.48" y="98.33" width="15.66" height="2.14"/><ellipse class="cls-1" cx="274.31" cy="98.33" rx="7.83" ry="4.52"/><rect class="cls-2" x="272.6" y="70.51" width="3.54" height="27.27"/><ellipse class="cls-2" cx="274.37" cy="97.78" rx="1.77" ry="1.02"/><ellipse class="cls-3" cx="274.37" cy="70.51" rx="1.77" ry="1.02"/><polygon points="309.91 92.21 275.24 72.2 275.24 76.79 309.91 96.8 309.91 92.21"/><polygon points="197.87 70.67 163.19 50.67 163.19 55.26 197.87 75.26 197.87 70.67"/><polygon points="272.6 113.8 237.84 93.74 237.84 98.33 272.6 118.39 272.6 113.8"/><polygon points="275.25 115.33 275.25 119.92 310.82 140.44 310.82 135.85 275.25 115.33"/><polygon points="235.19 92.21 200.52 72.2 200.52 76.79 235.19 96.8 235.19 92.21"/><polygon points="197.87 113.83 163.11 93.77 163.11 98.36 197.87 118.42 197.87 113.83"/><polygon points="200.52 115.36 200.52 119.95 236.08 140.47 236.08 135.88 200.52 115.36"/><ellipse cx="386.41" cy="165.19" rx="7.83" ry="4.52"/><rect x="378.58" y="163.05" width="15.66" height="2.14"/><ellipse class="cls-1" cx="386.41" cy="163.05" rx="7.83" ry="4.52"/><rect class="cls-4" x="384.7" y="135.23" width="3.54" height="27.27"/><ellipse class="cls-2" cx="386.47" cy="162.5" rx="1.77" ry="1.02"/><ellipse class="cls-3" cx="386.47" cy="135.23" rx="1.77" ry="1.02"/><ellipse cx="236.94" cy="165.19" rx="7.83" ry="4.52"/><rect x="229.11" y="163.05" width="15.66" height="2.14"/><ellipse class="cls-1" cx="236.94" cy="163.05" rx="7.83" ry="4.52"/><rect class="cls-2" x="235.23" y="135.23" width="3.54" height="27.27"/><ellipse class="cls-2" cx="237" cy="162.5" rx="1.77" ry="1.02"/><ellipse class="cls-3" cx="237" cy="135.23" rx="1.77" ry="1.02"/><polygon points="272.53 156.92 237.77 136.87 237.77 141.45 272.53 161.51 272.53 156.92"/><ellipse cx="274.31" cy="186.77" rx="7.83" ry="4.52"/><rect x="266.48" y="184.63" width="15.66" height="2.14"/><ellipse class="cls-1" cx="274.31" cy="184.63" rx="7.83" ry="4.52"/><rect class="cls-2" x="272.6" y="156.8" width="3.54" height="27.27"/><ellipse class="cls-2" cx="274.37" cy="184.08" rx="1.77" ry="1.02"/><ellipse class="cls-3" cx="274.37" cy="156.8" rx="1.77" ry="1.02"/><polygon points="275.18 158.46 275.18 163.04 310.75 183.57 310.75 178.98 275.18 158.46"/><polygon points="123.13 113.83 88.37 93.77 88.37 98.36 123.13 118.42 123.13 113.83"/><polygon points="125.78 115.36 125.78 119.95 161.35 140.47 161.35 135.88 125.78 115.36"/><polygon points="200.44 158.46 200.44 163.04 236.01 183.57 236.01 178.98 200.44 158.46"/><polygon points="48.39 156.99 13.63 136.93 13.63 141.52 48.39 161.58 48.39 156.99"/><polygon points="51.04 158.52 51.04 163.11 86.61 183.63 86.61 179.04 51.04 158.52"/><polygon points="125.7 201.62 125.7 206.21 161.27 226.73 161.27 222.14 125.7 201.62"/><polygon points="350.87 156.99 385.63 136.93 385.63 141.52 350.87 161.58 350.87 156.99"/><polygon points="348.22 158.52 348.22 163.11 312.65 183.63 312.65 179.04 348.22 158.52"/><polygon points="273.56 201.62 273.56 206.21 237.99 226.73 237.99 222.14 273.56 201.62"/><ellipse cx="311.67" cy="208.34" rx="7.83" ry="4.52"/><rect x="303.84" y="206.2" width="15.66" height="2.14"/><ellipse class="cls-1" cx="311.67" cy="206.2" rx="7.83" ry="4.52"/><rect class="cls-2" x="309.97" y="178.38" width="3.54" height="27.27"/><ellipse class="cls-2" cx="311.74" cy="205.65" rx="1.77" ry="1.02"/><ellipse class="cls-3" cx="311.74" cy="178.38" rx="1.77" ry="1.02"/><polygon points="123.13 156.98 88.37 136.92 88.37 141.51 123.13 161.57 123.13 156.98"/><polygon points="125.78 158.51 125.78 163.1 161.35 183.62 161.35 179.03 125.78 158.51"/><polygon points="200.45 201.6 200.45 206.19 236.01 226.72 236.01 222.13 200.45 201.6"/><ellipse cx="236.94" cy="251.49" rx="7.83" ry="4.52"/><rect x="229.11" y="249.35" width="15.66" height="2.14"/><ellipse class="cls-1" cx="236.94" cy="249.35" rx="7.83" ry="4.52"/><rect class="cls-2" x="235.23" y="221.52" width="3.54" height="27.27"/><ellipse class="cls-2" cx="237" cy="248.8" rx="1.77" ry="1.02"/><ellipse class="cls-3" cx="237" cy="221.52" rx="1.77" ry="1.02"/><ellipse cx="162.2" cy="251.49" rx="7.83" ry="4.52"/><rect x="154.37" y="249.35" width="15.66" height="2.14"/><ellipse class="cls-1" cx="162.2" cy="249.35" rx="7.83" ry="4.52"/><rect class="cls-2" x="160.5" y="221.52" width="3.54" height="27.27"/><ellipse class="cls-2" cx="162.27" cy="248.8" rx="1.77" ry="1.02"/><ellipse class="cls-3" cx="162.27" cy="221.52" rx="1.77" ry="1.02"/><polygon points="236.16 223.06 236.16 227.65 201.4 247.72 201.4 243.13 236.16 223.06"/><polygon points="164.04 49.04 198.8 28.98 198.8 33.57 164.04 53.63 164.04 49.04"/><polygon points="161.39 50.58 161.39 55.16 125.82 75.69 125.82 71.1 161.39 50.58"/><polygon points="86.72 93.67 86.72 98.26 51.16 118.78 51.16 114.19 86.72 93.67"/><ellipse cx="124.84" cy="100.47" rx="7.83" ry="4.52"/><rect x="117.01" y="98.33" width="15.66" height="2.14"/><ellipse class="cls-1" cx="124.84" cy="98.33" rx="7.83" ry="4.52"/><rect class="cls-2" x="123.13" y="70.51" width="3.54" height="27.27"/><ellipse class="cls-2" cx="124.9" cy="97.78" rx="1.77" ry="1.02"/><ellipse class="cls-3" cx="124.9" cy="70.51" rx="1.77" ry="1.02"/><polygon points="89.38 92.14 124.14 72.08 124.14 76.67 89.38 96.73 89.38 92.14"/><ellipse cx="50.1" cy="143.62" rx="7.83" ry="4.52"/><rect x="42.27" y="141.48" width="15.66" height="2.14"/><ellipse class="cls-1" cx="50.1" cy="141.48" rx="7.83" ry="4.52"/><rect class="cls-2" x="48.4" y="113.65" width="3.54" height="27.27"/><ellipse class="cls-2" cx="50.17" cy="140.93" rx="1.77" ry="1.02"/><ellipse class="cls-3" cx="50.17" cy="113.65" rx="1.77" ry="1.02"/><polygon points="49.33 115.11 49.33 119.7 14.57 139.77 14.57 135.18 49.33 115.11"/><ellipse cx="87.47" cy="208.34" rx="7.83" ry="4.52"/><rect x="79.64" y="206.2" width="15.66" height="2.14"/><ellipse class="cls-1" cx="87.47" cy="206.2" rx="7.83" ry="4.52"/><rect class="cls-2" x="85.76" y="178.38" width="3.54" height="27.27"/><ellipse class="cls-2" cx="87.53" cy="205.65" rx="1.77" ry="1.02"/><ellipse class="cls-3" cx="87.53" cy="178.38" rx="1.77" ry="1.02"/><polygon points="123.05 200.08 88.29 180.03 88.29 184.61 123.05 204.67 123.05 200.08"/><polygon points="276.21 200.08 310.97 180.03 310.97 184.61 276.21 204.67 276.21 200.08"/><ellipse cx="311.67" cy="165.19" rx="7.83" ry="4.52"/><rect x="303.84" y="163.05" width="15.66" height="2.14"/><ellipse class="cls-1" cx="311.67" cy="163.05" rx="7.83" ry="4.52"/><rect class="cls-2" x="309.97" y="135.23" width="3.54" height="27.27"/><ellipse class="cls-2" cx="311.74" cy="162.5" rx="1.77" ry="1.02"/><ellipse class="cls-3" cx="311.74" cy="135.23" rx="1.77" ry="1.02"/><ellipse cx="162.2" cy="165.19" rx="7.83" ry="4.52"/><rect x="154.37" y="163.05" width="15.66" height="2.14"/><ellipse class="cls-1" cx="162.2" cy="163.05" rx="7.83" ry="4.52"/><rect class="cls-2" x="160.5" y="135.23" width="3.54" height="27.27"/><ellipse class="cls-2" cx="162.27" cy="162.5" rx="1.77" ry="1.02"/><ellipse class="cls-3" cx="162.27" cy="135.23" rx="1.77" ry="1.02"/><polygon points="197.79 156.92 163.03 136.87 163.03 141.45 197.79 161.51 197.79 156.92"/><ellipse cx="236.94" cy="208.34" rx="7.83" ry="4.52"/><rect x="229.11" y="206.2" width="15.66" height="2.14"/><ellipse class="cls-1" cx="236.94" cy="206.2" rx="7.83" ry="4.52"/><rect class="cls-2" x="235.23" y="178.38" width="3.54" height="27.27"/><ellipse class="cls-2" cx="237" cy="205.65" rx="1.77" ry="1.02"/><ellipse class="cls-3" cx="237" cy="178.38" rx="1.77" ry="1.02"/><ellipse cx="162.2" cy="208.34" rx="7.83" ry="4.52"/><rect x="154.37" y="206.2" width="15.66" height="2.14"/><ellipse class="cls-1" cx="162.2" cy="206.2" rx="7.83" ry="4.52"/><rect class="cls-2" x="160.5" y="178.38" width="3.54" height="27.27"/><ellipse class="cls-2" cx="162.27" cy="205.65" rx="1.77" ry="1.02"/><ellipse class="cls-3" cx="162.27" cy="178.38" rx="1.77" ry="1.02"/><polygon points="197.79 200.07 163.03 180.01 163.03 184.6 197.79 204.66 197.79 200.07"/></svg>