<svg id="Layer_1" data-name="Layer 1" xmlns="http://www.w3.org/2000/svg" viewBox="0 0 400.09 287.78"><defs><style>.cls-1{opacity:0.3;}.cls-10,.cls-11,.cls-12,.cls-13,.cls-14,.cls-15,.cls-16,.cls-2,.cls-3,.cls-4,.cls-5,.cls-6,.cls-7,.cls-8,.cls-9{fill:none;stroke:#000;stroke-miterlimit:10;stroke-width:0.5px;}.cls-2{stroke-dasharray:1.48 0.99;}.cls-4{stroke-dasharray:1.49 0.99;}.cls-5{stroke-dasharray:1.34 0.89;}.cls-6{stroke-dasharray:1.5 1;}.cls-7{stroke-dasharray:1.32 0.88;}.cls-8{stroke-dasharray:1.5 1;}.cls-9{stroke-dasharray:1.32 0.88;}.cls-10{stroke-dasharray:1.51 1;}.cls-11{stroke-dasharray:1.51 1;}.cls-12{stroke-dasharray:1.54 1.03;}.cls-13{stroke-dasharray:1.5 1;}.cls-14{stroke-dasharray:1.5 1;}.cls-15{stroke-dasharray:1.51 1;}.cls-16{stroke-dasharray:1.01 0.67;}.cls-17{fill:#232323;}.cls-18{fill:#494949;}.cls-19{fill:#606060;}</style></defs><g class="cls-1"><ellipse class="cls-2" cx="199.1" cy="57.32" rx="7.83" ry="4.52"/><path class="cls-2" d="M204.63,60.52a12.2,12.2,0,0,1-11.07,0c-3.06-1.77-3.06-4.63,0-6.39a12.2,12.2,0,0,1,11.07,0C207.69,55.89,207.69,58.75,204.63,60.52Z"/><line class="cls-3" x1="206.93" y1="57.32" x2="206.93" y2="56.57"/><line class="cls-3" x1="206.93" y1="55.93" x2="206.93" y2="55.18"/><line class="cls-3" x1="191.27" y1="55.18" x2="191.27" y2="55.93"/><line class="cls-3" x1="191.27" y1="56.57" x2="191.27" y2="57.32"/><path class="cls-2" d="M204.63,58.38a12.2,12.2,0,0,1-11.07,0c-3.06-1.77-3.06-4.63,0-6.39a12.2,12.2,0,0,1,11.07,0C207.69,53.75,207.69,56.61,204.63,58.38Z"/><line class="cls-3" x1="197.39" y1="27.36" x2="197.39" y2="28.11"/><line class="cls-4" x1="197.39" y1="29.1" x2="197.39" y2="53.39"/><line class="cls-3" x1="197.39" y1="53.88" x2="197.39" y2="54.63"/><line class="cls-3" x1="200.93" y1="54.63" x2="200.93" y2="53.88"/><line class="cls-4" x1="200.93" y1="52.89" x2="200.93" y2="28.6"/><line class="cls-3" x1="200.93" y1="28.11" x2="200.93" y2="27.36"/><ellipse class="cls-5" cx="199.16" cy="54.63" rx="1.77" ry="1.02"/><ellipse class="cls-5" cx="199.16" cy="27.36" rx="1.77" ry="1.02"/></g><g class="cls-1"><ellipse class="cls-2" cx="199.1" cy="273.04" rx="7.83" ry="4.52"/><path class="cls-2" d="M204.63,276.23a12.2,12.2,0,0,1-11.07,0c-3.06-1.76-3.06-4.62,0-6.39a12.26,12.26,0,0,1,11.07,0C207.69,271.61,207.69,274.47,204.63,276.23Z"/><line class="cls-3" x1="206.93" y1="273.04" x2="206.93" y2="272.29"/><line class="cls-3" x1="206.93" y1="271.65" x2="206.93" y2="270.9"/><line class="cls-3" x1="191.27" y1="270.9" x2="191.27" y2="271.65"/><line class="cls-3" x1="191.27" y1="272.29" x2="191.27" y2="273.04"/><path class="cls-2" d="M204.63,274.09a12.2,12.2,0,0,1-11.07,0c-3.06-1.76-3.06-4.62,0-6.39a12.2,12.2,0,0,1,11.07,0C207.69,269.47,207.69,272.33,204.63,274.09Z"/><line class="cls-3" x1="197.39" y1="243.07" x2="197.39" y2="243.82"/><line class="cls-4" x1="197.39" y1="244.81" x2="197.39" y2="269.1"/><line class="cls-3" x1="197.39" y1="269.6" x2="197.39" y2="270.35"/><line class="cls-3" x1="200.93" y1="270.35" x2="200.93" y2="269.6"/><line class="cls-4" x1="200.93" y1="268.61" x2="200.93" y2="244.32"/><line class="cls-3" x1="200.93" y1="243.82" x2="200.93" y2="243.07"/><ellipse class="cls-5" cx="199.16" cy="270.35" rx="1.77" ry="1.02"/><ellipse class="cls-5" cx="199.16" cy="243.07" rx="1.77" ry="1.02"/></g><g class="cls-1"><path class="cls-2" d="M167.31,82.09a12.22,12.22,0,0,1-11.08,0c-3.06-1.76-3.06-4.62,0-6.39a12.22,12.22,0,0,1,11.08,0C170.36,77.47,170.36,80.33,167.31,82.09Z"/><ellipse class="cls-2" cx="161.77" cy="78.9" rx="7.83" ry="4.52"/><line class="cls-3" x1="169.6" y1="78.9" x2="169.6" y2="78.15"/><line class="cls-3" x1="169.6" y1="77.51" x2="169.6" y2="76.76"/><line class="cls-3" x1="153.94" y1="76.76" x2="153.94" y2="77.51"/><line class="cls-3" x1="153.94" y1="78.15" x2="153.94" y2="78.9"/><ellipse class="cls-2" cx="161.77" cy="76.76" rx="7.83" ry="4.52"/><line class="cls-3" x1="160.06" y1="48.93" x2="160.06" y2="49.68"/><line class="cls-4" x1="160.06" y1="50.67" x2="160.06" y2="74.96"/><line class="cls-3" x1="160.06" y1="75.46" x2="160.06" y2="76.21"/><line class="cls-3" x1="163.6" y1="76.21" x2="163.6" y2="75.46"/><line class="cls-4" x1="163.6" y1="74.47" x2="163.6" y2="50.18"/><line class="cls-3" x1="163.6" y1="49.68" x2="163.6" y2="48.93"/><ellipse class="cls-5" cx="161.83" cy="76.21" rx="1.77" ry="1.02"/><ellipse class="cls-5" cx="161.83" cy="48.93" rx="1.77" ry="1.02"/></g><g class="cls-1"><path class="cls-2" d="M167.31,254.66a12.22,12.22,0,0,1-11.08,0c-3.06-1.76-3.06-4.63,0-6.39a12.22,12.22,0,0,1,11.08,0C170.36,250,170.36,252.9,167.31,254.66Z"/><path class="cls-2" d="M167.3,254.66a12.2,12.2,0,0,1-11.07,0c-3.06-1.76-3.06-4.63,0-6.39a12.2,12.2,0,0,1,11.07,0C170.36,250,170.36,252.9,167.3,254.66Z"/><line class="cls-3" x1="169.6" y1="251.46" x2="169.6" y2="250.71"/><line class="cls-3" x1="169.6" y1="250.07" x2="169.6" y2="249.32"/><line class="cls-3" x1="153.94" y1="249.32" x2="153.94" y2="250.07"/><line class="cls-3" x1="153.94" y1="250.71" x2="153.94" y2="251.46"/><path class="cls-2" d="M167.3,252.52a12.2,12.2,0,0,1-11.07,0c-3.06-1.77-3.06-4.63,0-6.39a12.2,12.2,0,0,1,11.07,0C170.36,247.89,170.36,250.75,167.3,252.52Z"/><line class="cls-3" x1="160.06" y1="221.5" x2="160.06" y2="222.25"/><line class="cls-4" x1="160.06" y1="223.24" x2="160.06" y2="247.53"/><line class="cls-3" x1="160.06" y1="248.02" x2="160.06" y2="248.77"/><line class="cls-3" x1="163.6" y1="248.77" x2="163.6" y2="248.02"/><line class="cls-4" x1="163.6" y1="247.03" x2="163.6" y2="222.74"/><line class="cls-3" x1="163.6" y1="222.25" x2="163.6" y2="221.5"/><ellipse class="cls-5" cx="161.83" cy="248.77" rx="1.77" ry="1.02"/><ellipse class="cls-5" cx="161.83" cy="221.5" rx="1.77" ry="1.02"/></g><g class="cls-1"><path class="cls-2" d="M129.9,103.67a12.26,12.26,0,0,1-11.07,0c-3.06-1.77-3.06-4.63,0-6.4a12.26,12.26,0,0,1,11.07,0C133,99,133,101.9,129.9,103.67Z"/><path class="cls-2" d="M129.9,103.67a12.26,12.26,0,0,1-11.07,0c-3.06-1.77-3.06-4.63,0-6.4a12.26,12.26,0,0,1,11.07,0C133,99,133,101.9,129.9,103.67Z"/><line class="cls-3" x1="132.19" y1="100.47" x2="132.19" y2="99.72"/><line class="cls-3" x1="132.19" y1="99.08" x2="132.19" y2="98.33"/><line class="cls-3" x1="116.53" y1="98.33" x2="116.53" y2="99.08"/><line class="cls-3" x1="116.53" y1="99.72" x2="116.53" y2="100.47"/><path class="cls-2" d="M129.9,101.53a12.26,12.26,0,0,1-11.07,0c-3.06-1.77-3.06-4.63,0-6.4a12.26,12.26,0,0,1,11.07,0C133,96.9,133,99.76,129.9,101.53Z"/><line class="cls-3" x1="122.66" y1="70.51" x2="122.66" y2="71.26"/><line class="cls-4" x1="122.66" y1="72.25" x2="122.66" y2="96.53"/><line class="cls-3" x1="122.66" y1="97.03" x2="122.66" y2="97.78"/><line class="cls-3" x1="126.2" y1="97.78" x2="126.2" y2="97.03"/><line class="cls-4" x1="126.2" y1="96.04" x2="126.2" y2="71.75"/><line class="cls-3" x1="126.2" y1="71.26" x2="126.2" y2="70.51"/><path class="cls-5" d="M125.68,98.5a2.78,2.78,0,0,1-2.51,0,.76.76,0,0,1,0-1.44,2.78,2.78,0,0,1,2.51,0A.76.76,0,0,1,125.68,98.5Z"/><path class="cls-5" d="M125.68,71.23a2.78,2.78,0,0,1-2.51,0,.77.77,0,0,1,0-1.45,2.78,2.78,0,0,1,2.51,0A.77.77,0,0,1,125.68,71.23Z"/></g><g class="cls-1"><path class="cls-2" d="M92.53,125.24a12.2,12.2,0,0,1-11.07,0c-3.06-1.76-3.06-4.63,0-6.39a12.2,12.2,0,0,1,11.07,0C95.59,120.61,95.59,123.48,92.53,125.24Z"/><path class="cls-2" d="M92.53,125.24a12.2,12.2,0,0,1-11.07,0c-3.06-1.76-3.06-4.63,0-6.39a12.2,12.2,0,0,1,11.07,0C95.59,120.61,95.59,123.48,92.53,125.24Z"/><line class="cls-3" x1="94.83" y1="122.04" x2="94.83" y2="121.29"/><line class="cls-3" x1="94.83" y1="120.65" x2="94.83" y2="119.9"/><line class="cls-3" x1="79.16" y1="119.9" x2="79.16" y2="120.65"/><line class="cls-3" x1="79.16" y1="121.29" x2="79.16" y2="122.04"/><path class="cls-2" d="M92.53,123.1a12.2,12.2,0,0,1-11.07,0c-3.06-1.76-3.06-4.63,0-6.39a12.2,12.2,0,0,1,11.07,0C95.59,118.47,95.59,121.34,92.53,123.1Z"/><line class="cls-3" x1="85.29" y1="92.08" x2="85.29" y2="92.83"/><line class="cls-4" x1="85.29" y1="93.82" x2="85.29" y2="118.11"/><line class="cls-3" x1="85.29" y1="118.6" x2="85.29" y2="119.35"/><line class="cls-3" x1="88.83" y1="119.35" x2="88.83" y2="118.6"/><line class="cls-4" x1="88.83" y1="117.61" x2="88.83" y2="93.33"/><line class="cls-3" x1="88.83" y1="92.83" x2="88.83" y2="92.08"/><path class="cls-5" d="M88.31,120.08a2.75,2.75,0,0,1-2.5,0,.77.77,0,0,1,0-1.45,2.75,2.75,0,0,1,2.5,0A.77.77,0,0,1,88.31,120.08Z"/><path class="cls-5" d="M88.31,92.8a2.75,2.75,0,0,1-2.5,0,.76.76,0,0,1,0-1.44,2.75,2.75,0,0,1,2.5,0A.76.76,0,0,1,88.31,92.8Z"/></g><g class="cls-1"><path class="cls-2" d="M92.53,168.39a12.2,12.2,0,0,1-11.07,0c-3.06-1.77-3.06-4.63,0-6.39a12.2,12.2,0,0,1,11.07,0C95.59,163.76,95.59,166.62,92.53,168.39Z"/><path class="cls-2" d="M92.53,168.39a12.2,12.2,0,0,1-11.07,0c-3.06-1.77-3.06-4.63,0-6.39a12.2,12.2,0,0,1,11.07,0C95.59,163.76,95.59,166.62,92.53,168.39Z"/><line class="cls-3" x1="94.83" y1="165.19" x2="94.83" y2="164.44"/><line class="cls-3" x1="94.83" y1="163.8" x2="94.83" y2="163.05"/><line class="cls-3" x1="79.16" y1="163.05" x2="79.16" y2="163.8"/><line class="cls-3" x1="79.16" y1="164.44" x2="79.16" y2="165.19"/><path class="cls-2" d="M92.53,166.25a12.26,12.26,0,0,1-11.07,0c-3.06-1.77-3.06-4.63,0-6.39a12.2,12.2,0,0,1,11.07,0C95.59,161.62,95.59,164.48,92.53,166.25Z"/><line class="cls-3" x1="85.29" y1="135.23" x2="85.29" y2="135.98"/><line class="cls-4" x1="85.29" y1="136.97" x2="85.29" y2="161.26"/><line class="cls-3" x1="85.29" y1="161.75" x2="85.29" y2="162.5"/><line class="cls-3" x1="88.83" y1="162.5" x2="88.83" y2="161.75"/><line class="cls-4" x1="88.83" y1="160.76" x2="88.83" y2="136.47"/><line class="cls-3" x1="88.83" y1="135.98" x2="88.83" y2="135.23"/><path class="cls-5" d="M88.31,163.22a2.75,2.75,0,0,1-2.5,0,.76.76,0,0,1,0-1.44,2.75,2.75,0,0,1,2.5,0A.76.76,0,0,1,88.31,163.22Z"/><path class="cls-5" d="M88.31,136a2.75,2.75,0,0,1-2.5,0,.77.77,0,0,1,0-1.45,2.82,2.82,0,0,1,2.5,0A.77.77,0,0,1,88.31,136Z"/></g><g class="cls-1"><path class="cls-2" d="M92.53,211.53a12.26,12.26,0,0,1-11.07,0c-3.06-1.77-3.06-4.63,0-6.39a12.2,12.2,0,0,1,11.07,0C95.59,206.9,95.59,209.76,92.53,211.53Z"/><path class="cls-2" d="M92.53,211.53a12.26,12.26,0,0,1-11.07,0c-3.06-1.77-3.06-4.63,0-6.39a12.2,12.2,0,0,1,11.07,0C95.59,206.9,95.59,209.76,92.53,211.53Z"/><line class="cls-3" x1="94.83" y1="208.33" x2="94.83" y2="207.58"/><line class="cls-3" x1="94.83" y1="206.94" x2="94.83" y2="206.19"/><line class="cls-3" x1="79.16" y1="206.19" x2="79.16" y2="206.94"/><line class="cls-3" x1="79.16" y1="207.58" x2="79.16" y2="208.33"/><path class="cls-2" d="M92.53,209.39a12.26,12.26,0,0,1-11.07,0c-3.06-1.77-3.06-4.63,0-6.4a12.23,12.23,0,0,1,11.07,0C95.59,204.76,95.59,207.62,92.53,209.39Z"/><line class="cls-3" x1="85.29" y1="178.37" x2="85.29" y2="179.12"/><line class="cls-4" x1="85.29" y1="180.11" x2="85.29" y2="204.4"/><line class="cls-3" x1="85.29" y1="204.89" x2="85.29" y2="205.64"/><line class="cls-3" x1="88.83" y1="205.64" x2="88.83" y2="204.89"/><line class="cls-4" x1="88.83" y1="203.9" x2="88.83" y2="179.61"/><line class="cls-3" x1="88.83" y1="179.12" x2="88.83" y2="178.37"/><path class="cls-5" d="M88.31,206.36a2.75,2.75,0,0,1-2.5,0,.76.76,0,0,1,0-1.44,2.75,2.75,0,0,1,2.5,0A.76.76,0,0,1,88.31,206.36Z"/><path class="cls-5" d="M88.31,179.09a2.75,2.75,0,0,1-2.5,0,.77.77,0,0,1,0-1.45,2.82,2.82,0,0,1,2.5,0A.77.77,0,0,1,88.31,179.09Z"/></g><g class="cls-1"><path class="cls-2" d="M55.2,146.82a12.26,12.26,0,0,1-11.07,0c-3.06-1.77-3.06-4.63,0-6.4a12.26,12.26,0,0,1,11.07,0C58.26,142.19,58.26,145.05,55.2,146.82Z"/><path class="cls-2" d="M55.2,146.82a12.26,12.26,0,0,1-11.07,0c-3.06-1.77-3.06-4.63,0-6.4a12.26,12.26,0,0,1,11.07,0C58.26,142.19,58.26,145.05,55.2,146.82Z"/><line class="cls-3" x1="57.5" y1="143.62" x2="57.5" y2="142.87"/><line class="cls-3" x1="57.5" y1="142.23" x2="57.5" y2="141.48"/><line class="cls-3" x1="41.83" y1="141.48" x2="41.83" y2="142.23"/><line class="cls-3" x1="41.83" y1="142.87" x2="41.83" y2="143.62"/><path class="cls-2" d="M55.2,144.68a12.26,12.26,0,0,1-11.07,0c-3.06-1.77-3.06-4.63,0-6.4a12.26,12.26,0,0,1,11.07,0C58.26,140.05,58.26,142.91,55.2,144.68Z"/><line class="cls-3" x1="47.96" y1="113.65" x2="47.96" y2="114.4"/><line class="cls-4" x1="47.96" y1="115.39" x2="47.96" y2="139.68"/><line class="cls-3" x1="47.96" y1="140.18" x2="47.96" y2="140.93"/><line class="cls-3" x1="51.5" y1="140.93" x2="51.5" y2="140.18"/><line class="cls-4" x1="51.5" y1="139.19" x2="51.5" y2="114.9"/><line class="cls-3" x1="51.5" y1="114.4" x2="51.5" y2="113.65"/><path class="cls-5" d="M51,141.65a2.75,2.75,0,0,1-2.5,0,.76.76,0,0,1,0-1.44,2.75,2.75,0,0,1,2.5,0A.76.76,0,0,1,51,141.65Z"/><path class="cls-5" d="M51,114.38a2.82,2.82,0,0,1-2.5,0,.77.77,0,0,1,0-1.45,2.75,2.75,0,0,1,2.5,0A.77.77,0,0,1,51,114.38Z"/></g><g class="cls-1"><path class="cls-2" d="M55.2,190a12.26,12.26,0,0,1-11.07,0c-3.06-1.77-3.06-4.63,0-6.4a12.26,12.26,0,0,1,11.07,0C58.26,185.33,58.26,188.19,55.2,190Z"/><path class="cls-2" d="M55.2,190a12.26,12.26,0,0,1-11.07,0c-3.06-1.77-3.06-4.63,0-6.4a12.26,12.26,0,0,1,11.07,0C58.26,185.33,58.26,188.19,55.2,190Z"/><line class="cls-3" x1="57.5" y1="186.76" x2="57.5" y2="186.01"/><line class="cls-3" x1="57.5" y1="185.37" x2="57.5" y2="184.62"/><line class="cls-3" x1="41.83" y1="184.62" x2="41.83" y2="185.37"/><line class="cls-3" x1="41.83" y1="186.01" x2="41.83" y2="186.76"/><path class="cls-2" d="M55.2,187.82a12.26,12.26,0,0,1-11.07,0c-3.06-1.77-3.06-4.63,0-6.4a12.26,12.26,0,0,1,11.07,0C58.26,183.19,58.26,186.05,55.2,187.82Z"/><line class="cls-3" x1="47.96" y1="156.79" x2="47.96" y2="157.54"/><line class="cls-4" x1="47.96" y1="158.53" x2="47.96" y2="182.82"/><line class="cls-3" x1="47.96" y1="183.32" x2="47.96" y2="184.07"/><line class="cls-3" x1="51.5" y1="184.07" x2="51.5" y2="183.32"/><line class="cls-4" x1="51.5" y1="182.33" x2="51.5" y2="158.04"/><line class="cls-3" x1="51.5" y1="157.54" x2="51.5" y2="156.79"/><path class="cls-5" d="M51,184.79a2.75,2.75,0,0,1-2.5,0,.76.76,0,0,1,0-1.44,2.75,2.75,0,0,1,2.5,0A.76.76,0,0,1,51,184.79Z"/><path class="cls-5" d="M51,157.52a2.82,2.82,0,0,1-2.5,0,.77.77,0,0,1,0-1.45,2.75,2.75,0,0,1,2.5,0A.77.77,0,0,1,51,157.52Z"/></g><g class="cls-1"><ellipse class="cls-2" cx="12.26" cy="165.19" rx="7.83" ry="4.52"/><path class="cls-2" d="M17.8,168.39a12.22,12.22,0,0,1-11.08,0c-3-1.77-3-4.63,0-6.39a12.22,12.22,0,0,1,11.08,0C20.86,163.76,20.86,166.62,17.8,168.39Z"/><line class="cls-3" x1="20.09" y1="165.19" x2="20.09" y2="164.44"/><line class="cls-3" x1="20.09" y1="163.8" x2="20.09" y2="163.05"/><line class="cls-3" x1="4.43" y1="163.05" x2="4.43" y2="163.8"/><line class="cls-3" x1="4.43" y1="164.44" x2="4.43" y2="165.19"/><path class="cls-2" d="M17.8,166.25a12.29,12.29,0,0,1-11.08,0c-3-1.77-3-4.63,0-6.39a12.22,12.22,0,0,1,11.08,0C20.86,161.62,20.86,164.48,17.8,166.25Z"/><line class="cls-3" x1="10.55" y1="135.23" x2="10.55" y2="135.98"/><line class="cls-4" x1="10.55" y1="136.97" x2="10.55" y2="161.26"/><line class="cls-3" x1="10.55" y1="161.75" x2="10.55" y2="162.5"/><line class="cls-3" x1="14.09" y1="162.5" x2="14.09" y2="161.75"/><line class="cls-4" x1="14.09" y1="160.76" x2="14.09" y2="136.47"/><line class="cls-3" x1="14.09" y1="135.98" x2="14.09" y2="135.23"/><path class="cls-5" d="M13.57,163.22a2.75,2.75,0,0,1-2.5,0,.76.76,0,0,1,0-1.44,2.75,2.75,0,0,1,2.5,0C14.27,162.18,14.27,162.83,13.57,163.22Z"/><path class="cls-5" d="M13.57,136a2.75,2.75,0,0,1-2.5,0,.77.77,0,0,1,0-1.45,2.82,2.82,0,0,1,2.5,0A.76.76,0,0,1,13.57,136Z"/></g><g class="cls-1"><ellipse class="cls-2" cx="124.36" cy="229.9" rx="7.83" ry="4.52"/><path class="cls-2" d="M129.9,233.1a12.23,12.23,0,0,1-11.07,0c-3.06-1.76-3.06-4.62,0-6.39a12.26,12.26,0,0,1,11.07,0C133,228.47,133,231.33,129.9,233.1Z"/><line class="cls-3" x1="132.19" y1="229.9" x2="132.19" y2="229.15"/><line class="cls-3" x1="132.19" y1="228.51" x2="132.19" y2="227.76"/><line class="cls-3" x1="116.53" y1="227.76" x2="116.53" y2="228.51"/><line class="cls-3" x1="116.53" y1="229.15" x2="116.53" y2="229.9"/><path class="cls-2" d="M129.9,231a12.2,12.2,0,0,1-11.07,0c-3.06-1.76-3.06-4.62,0-6.39a12.26,12.26,0,0,1,11.07,0C133,226.33,133,229.19,129.9,231Z"/><line class="cls-3" x1="122.66" y1="199.93" x2="122.66" y2="200.68"/><line class="cls-4" x1="122.66" y1="201.67" x2="122.66" y2="225.96"/><line class="cls-3" x1="122.66" y1="226.46" x2="122.66" y2="227.21"/><line class="cls-3" x1="126.2" y1="227.21" x2="126.2" y2="226.46"/><line class="cls-4" x1="126.2" y1="225.47" x2="126.2" y2="201.18"/><line class="cls-3" x1="126.2" y1="200.68" x2="126.2" y2="199.93"/><path class="cls-5" d="M125.68,227.93a2.78,2.78,0,0,1-2.51,0,.77.77,0,0,1,0-1.45,2.84,2.84,0,0,1,2.51,0A.77.77,0,0,1,125.68,227.93Z"/><path class="cls-5" d="M125.68,200.65a2.78,2.78,0,0,1-2.51,0,.76.76,0,0,1,0-1.44,2.78,2.78,0,0,1,2.51,0A.76.76,0,0,1,125.68,200.65Z"/></g><g class="cls-1"><ellipse class="cls-2" cx="236.58" cy="78.9" rx="7.83" ry="4.52"/><path class="cls-2" d="M231,82.1a12.29,12.29,0,0,0,11.08,0c3-1.77,3-4.63,0-6.4a12.29,12.29,0,0,0-11.08,0C228,77.47,228,80.33,231,82.1Z"/><line class="cls-3" x1="228.75" y1="78.9" x2="228.75" y2="78.15"/><line class="cls-3" x1="228.75" y1="77.51" x2="228.75" y2="76.76"/><line class="cls-3" x1="244.41" y1="76.76" x2="244.41" y2="77.51"/><line class="cls-3" x1="244.41" y1="78.15" x2="244.41" y2="78.9"/><path class="cls-2" d="M231,80a12.29,12.29,0,0,0,11.08,0c3-1.77,3-4.63,0-6.4a12.29,12.29,0,0,0-11.08,0C228,75.33,228,78.19,231,80Z"/><line class="cls-3" x1="238.29" y1="48.93" x2="238.29" y2="49.68"/><line class="cls-4" x1="238.29" y1="50.68" x2="238.29" y2="74.96"/><line class="cls-3" x1="238.29" y1="75.46" x2="238.29" y2="76.21"/><line class="cls-3" x1="234.75" y1="76.21" x2="234.75" y2="75.46"/><line class="cls-4" x1="234.75" y1="74.47" x2="234.75" y2="50.18"/><line class="cls-3" x1="234.75" y1="49.68" x2="234.75" y2="48.93"/><path class="cls-5" d="M235.26,76.93a2.78,2.78,0,0,0,2.51,0,.76.76,0,0,0,0-1.44,2.78,2.78,0,0,0-2.51,0A.76.76,0,0,0,235.26,76.93Z"/><path class="cls-5" d="M235.26,49.66a2.78,2.78,0,0,0,2.51,0,.77.77,0,0,0,0-1.45,2.78,2.78,0,0,0-2.51,0A.77.77,0,0,0,235.26,49.66Z"/></g><g class="cls-1"><path class="cls-2" d="M231,254.66a12.22,12.22,0,0,0,11.08,0c3-1.76,3-4.63,0-6.39a12.22,12.22,0,0,0-11.08,0C228,250,228,252.9,231,254.66Z"/><ellipse class="cls-2" cx="236.58" cy="251.47" rx="7.83" ry="4.52"/><line class="cls-3" x1="228.75" y1="251.47" x2="228.75" y2="250.72"/><line class="cls-3" x1="228.75" y1="250.08" x2="228.75" y2="249.33"/><line class="cls-3" x1="244.41" y1="249.33" x2="244.41" y2="250.08"/><line class="cls-3" x1="244.41" y1="250.72" x2="244.41" y2="251.47"/><path class="cls-2" d="M231,252.52a12.22,12.22,0,0,0,11.08,0c3-1.76,3-4.63,0-6.39a12.22,12.22,0,0,0-11.08,0C228,247.89,228,250.76,231,252.52Z"/><line class="cls-3" x1="238.29" y1="221.5" x2="238.29" y2="222.25"/><line class="cls-4" x1="238.29" y1="223.24" x2="238.29" y2="247.53"/><line class="cls-3" x1="238.29" y1="248.03" x2="238.29" y2="248.78"/><line class="cls-3" x1="234.75" y1="248.78" x2="234.75" y2="248.03"/><line class="cls-4" x1="234.75" y1="247.03" x2="234.75" y2="222.75"/><line class="cls-3" x1="234.75" y1="222.25" x2="234.75" y2="221.5"/><path class="cls-5" d="M235.26,249.5a2.78,2.78,0,0,0,2.51,0,.77.77,0,0,0,0-1.45,2.78,2.78,0,0,0-2.51,0A.77.77,0,0,0,235.26,249.5Z"/><path class="cls-5" d="M235.26,222.22a2.78,2.78,0,0,0,2.51,0,.76.76,0,0,0,0-1.44,2.78,2.78,0,0,0-2.51,0A.76.76,0,0,0,235.26,222.22Z"/></g><g class="cls-1"><path class="cls-2" d="M268.44,103.67a12.22,12.22,0,0,0,11.08,0c3.06-1.77,3.06-4.63,0-6.39a12.22,12.22,0,0,0-11.08,0C265.39,99,265.39,101.9,268.44,103.67Z"/><path class="cls-2" d="M268.45,103.67a12.2,12.2,0,0,0,11.07,0c3.06-1.77,3.06-4.63,0-6.39a12.2,12.2,0,0,0-11.07,0C265.39,99,265.39,101.9,268.45,103.67Z"/><line class="cls-3" x1="266.15" y1="100.47" x2="266.15" y2="99.72"/><line class="cls-3" x1="266.15" y1="99.08" x2="266.15" y2="98.33"/><line class="cls-3" x1="281.81" y1="98.33" x2="281.81" y2="99.08"/><line class="cls-3" x1="281.81" y1="99.72" x2="281.81" y2="100.47"/><path class="cls-2" d="M268.45,101.53a12.2,12.2,0,0,0,11.07,0c3.06-1.77,3.06-4.63,0-6.39a12.2,12.2,0,0,0-11.07,0C265.39,96.9,265.39,99.76,268.45,101.53Z"/><line class="cls-3" x1="275.69" y1="70.51" x2="275.69" y2="71.26"/><line class="cls-4" x1="275.69" y1="72.25" x2="275.69" y2="96.54"/><line class="cls-3" x1="275.69" y1="97.03" x2="275.69" y2="97.78"/><line class="cls-3" x1="272.15" y1="97.78" x2="272.15" y2="97.03"/><line class="cls-4" x1="272.15" y1="96.04" x2="272.15" y2="71.75"/><line class="cls-3" x1="272.15" y1="71.26" x2="272.15" y2="70.51"/><path class="cls-5" d="M272.67,98.5a2.75,2.75,0,0,0,2.5,0,.76.76,0,0,0,0-1.44,2.75,2.75,0,0,0-2.5,0A.76.76,0,0,0,272.67,98.5Z"/><path class="cls-5" d="M272.67,71.23a2.75,2.75,0,0,0,2.5,0,.76.76,0,0,0,0-1.44,2.75,2.75,0,0,0-2.5,0A.76.76,0,0,0,272.67,71.23Z"/></g><g class="cls-1"><path class="cls-2" d="M305.81,125.24a12.22,12.22,0,0,0,11.08,0c3.06-1.76,3.06-4.62,0-6.39a12.22,12.22,0,0,0-11.08,0C302.75,120.62,302.75,123.48,305.81,125.24Z"/><path class="cls-2" d="M305.81,125.24a12.22,12.22,0,0,0,11.08,0c3.06-1.76,3.06-4.62,0-6.39a12.22,12.22,0,0,0-11.08,0C302.75,120.62,302.75,123.48,305.81,125.24Z"/><line class="cls-3" x1="303.52" y1="122.05" x2="303.52" y2="121.3"/><line class="cls-3" x1="303.52" y1="120.66" x2="303.52" y2="119.91"/><line class="cls-3" x1="319.18" y1="119.91" x2="319.18" y2="120.66"/><line class="cls-3" x1="319.18" y1="121.3" x2="319.18" y2="122.05"/><path class="cls-2" d="M305.81,123.1a12.22,12.22,0,0,0,11.08,0c3.06-1.76,3.06-4.62,0-6.39a12.22,12.22,0,0,0-11.08,0C302.75,118.48,302.75,121.34,305.81,123.1Z"/><line class="cls-3" x1="313.06" y1="92.08" x2="313.06" y2="92.83"/><line class="cls-4" x1="313.06" y1="93.82" x2="313.06" y2="118.11"/><line class="cls-3" x1="313.06" y1="118.61" x2="313.06" y2="119.36"/><line class="cls-3" x1="309.52" y1="119.36" x2="309.52" y2="118.61"/><line class="cls-4" x1="309.52" y1="117.61" x2="309.52" y2="93.33"/><line class="cls-3" x1="309.52" y1="92.83" x2="309.52" y2="92.08"/><path class="cls-5" d="M310,120.08a2.75,2.75,0,0,0,2.5,0,.77.77,0,0,0,0-1.45,2.75,2.75,0,0,0-2.5,0A.77.77,0,0,0,310,120.08Z"/><path class="cls-5" d="M310,92.8a2.75,2.75,0,0,0,2.5,0,.76.76,0,0,0,0-1.44,2.75,2.75,0,0,0-2.5,0A.76.76,0,0,0,310,92.8Z"/></g><g class="cls-1"><path class="cls-2" d="M305.81,211.53a12.22,12.22,0,0,0,11.08,0c3.06-1.76,3.06-4.63,0-6.39a12.22,12.22,0,0,0-11.08,0C302.75,206.9,302.75,209.77,305.81,211.53Z"/><path class="cls-2" d="M305.81,211.53a12.22,12.22,0,0,0,11.08,0c3.06-1.76,3.06-4.63,0-6.39a12.22,12.22,0,0,0-11.08,0C302.75,206.9,302.75,209.77,305.81,211.53Z"/><line class="cls-3" x1="303.52" y1="208.33" x2="303.52" y2="207.58"/><line class="cls-3" x1="303.52" y1="206.94" x2="303.52" y2="206.19"/><line class="cls-3" x1="319.18" y1="206.19" x2="319.18" y2="206.94"/><line class="cls-3" x1="319.18" y1="207.58" x2="319.18" y2="208.33"/><path class="cls-2" d="M305.81,209.39a12.22,12.22,0,0,0,11.08,0c3.06-1.76,3.06-4.63,0-6.39a12.22,12.22,0,0,0-11.08,0C302.75,204.76,302.75,207.63,305.81,209.39Z"/><line class="cls-3" x1="313.06" y1="178.37" x2="313.06" y2="179.12"/><line class="cls-4" x1="313.06" y1="180.11" x2="313.06" y2="204.4"/><line class="cls-3" x1="313.06" y1="204.89" x2="313.06" y2="205.64"/><line class="cls-3" x1="309.52" y1="205.64" x2="309.52" y2="204.89"/><line class="cls-4" x1="309.52" y1="203.9" x2="309.52" y2="179.61"/><line class="cls-3" x1="309.52" y1="179.12" x2="309.52" y2="178.37"/><path class="cls-5" d="M310,206.37a2.82,2.82,0,0,0,2.5,0,.77.77,0,0,0,0-1.45,2.75,2.75,0,0,0-2.5,0A.77.77,0,0,0,310,206.37Z"/><path class="cls-5" d="M310,179.09a2.75,2.75,0,0,0,2.5,0,.76.76,0,0,0,0-1.44,2.75,2.75,0,0,0-2.5,0A.76.76,0,0,0,310,179.09Z"/></g><g class="cls-1"><path class="cls-2" d="M343.14,146.82a12.29,12.29,0,0,0,11.08,0c3.06-1.77,3.06-4.63,0-6.4a12.29,12.29,0,0,0-11.08,0C340.08,142.19,340.08,145.05,343.14,146.82Z"/><path class="cls-2" d="M343.14,146.82a12.29,12.29,0,0,0,11.08,0c3.06-1.77,3.06-4.63,0-6.4a12.29,12.29,0,0,0-11.08,0C340.09,142.19,340.09,145.05,343.14,146.82Z"/><line class="cls-3" x1="340.85" y1="143.62" x2="340.85" y2="142.87"/><line class="cls-3" x1="340.85" y1="142.23" x2="340.85" y2="141.48"/><line class="cls-3" x1="356.51" y1="141.48" x2="356.51" y2="142.23"/><line class="cls-3" x1="356.51" y1="142.87" x2="356.51" y2="143.62"/><path class="cls-2" d="M343.14,144.68a12.29,12.29,0,0,0,11.08,0c3.06-1.77,3.06-4.63,0-6.4a12.29,12.29,0,0,0-11.08,0C340.09,140.05,340.09,142.91,343.14,144.68Z"/><line class="cls-3" x1="350.39" y1="113.66" x2="350.39" y2="114.41"/><line class="cls-4" x1="350.39" y1="115.4" x2="350.39" y2="139.68"/><line class="cls-3" x1="350.39" y1="140.18" x2="350.39" y2="140.93"/><line class="cls-3" x1="346.85" y1="140.93" x2="346.85" y2="140.18"/><line class="cls-4" x1="346.85" y1="139.19" x2="346.85" y2="114.9"/><line class="cls-3" x1="346.85" y1="114.41" x2="346.85" y2="113.66"/><ellipse class="cls-5" cx="348.62" cy="140.93" rx="1.77" ry="1.02"/><ellipse class="cls-5" cx="348.62" cy="113.66" rx="1.77" ry="1.02"/></g><g class="cls-1"><path class="cls-2" d="M343.14,190a12.29,12.29,0,0,0,11.08,0c3.06-1.77,3.06-4.63,0-6.4a12.29,12.29,0,0,0-11.08,0C340.08,185.33,340.08,188.19,343.14,190Z"/><path class="cls-2" d="M343.14,190a12.29,12.29,0,0,0,11.08,0c3.06-1.77,3.06-4.63,0-6.4a12.29,12.29,0,0,0-11.08,0C340.09,185.33,340.09,188.19,343.14,190Z"/><line class="cls-3" x1="340.85" y1="186.76" x2="340.85" y2="186.01"/><line class="cls-3" x1="340.85" y1="185.37" x2="340.85" y2="184.62"/><line class="cls-3" x1="356.51" y1="184.62" x2="356.51" y2="185.37"/><line class="cls-3" x1="356.51" y1="186.01" x2="356.51" y2="186.76"/><path class="cls-2" d="M343.14,187.82a12.29,12.29,0,0,0,11.08,0c3.06-1.77,3.06-4.63,0-6.4a12.29,12.29,0,0,0-11.08,0C340.09,183.19,340.09,186.05,343.14,187.82Z"/><line class="cls-3" x1="350.39" y1="156.8" x2="350.39" y2="157.55"/><line class="cls-4" x1="350.39" y1="158.54" x2="350.39" y2="182.82"/><line class="cls-3" x1="350.39" y1="183.32" x2="350.39" y2="184.07"/><line class="cls-3" x1="346.85" y1="184.07" x2="346.85" y2="183.32"/><line class="cls-4" x1="346.85" y1="182.33" x2="346.85" y2="158.04"/><line class="cls-3" x1="346.85" y1="157.55" x2="346.85" y2="156.8"/><ellipse class="cls-5" cx="348.62" cy="184.07" rx="1.77" ry="1.02"/><path class="cls-5" d="M347.37,157.52a2.75,2.75,0,0,0,2.5,0,.77.77,0,0,0,0-1.45,2.75,2.75,0,0,0-2.5,0A.77.77,0,0,0,347.37,157.52Z"/></g><g class="cls-1"><path class="cls-2" d="M380.55,168.39a12.2,12.2,0,0,0,11.07,0c3.06-1.76,3.06-4.63,0-6.39a12.2,12.2,0,0,0-11.07,0C377.49,163.76,377.49,166.63,380.55,168.39Z"/><ellipse class="cls-2" cx="386.08" cy="165.19" rx="7.83" ry="4.52"/><line class="cls-3" x1="378.25" y1="165.19" x2="378.25" y2="164.44"/><line class="cls-3" x1="378.25" y1="163.8" x2="378.25" y2="163.05"/><line class="cls-3" x1="393.92" y1="163.05" x2="393.92" y2="163.8"/><line class="cls-3" x1="393.92" y1="164.44" x2="393.92" y2="165.19"/><ellipse class="cls-2" cx="386.08" cy="163.05" rx="7.83" ry="4.52"/><line class="cls-3" x1="387.79" y1="135.23" x2="387.79" y2="135.98"/><line class="cls-4" x1="387.79" y1="136.97" x2="387.79" y2="161.26"/><line class="cls-3" x1="387.79" y1="161.75" x2="387.79" y2="162.5"/><line class="cls-3" x1="384.25" y1="162.5" x2="384.25" y2="161.75"/><line class="cls-4" x1="384.25" y1="160.76" x2="384.25" y2="136.47"/><line class="cls-3" x1="384.25" y1="135.98" x2="384.25" y2="135.23"/><ellipse class="cls-5" cx="386.02" cy="162.5" rx="1.77" ry="1.02"/><ellipse class="cls-5" cx="386.02" cy="135.23" rx="1.77" ry="1.02"/></g><g class="cls-1"><path class="cls-2" d="M268.44,233.1a12.29,12.29,0,0,0,11.08,0c3.06-1.77,3.06-4.63,0-6.4a12.29,12.29,0,0,0-11.08,0C265.39,228.47,265.39,231.33,268.44,233.1Z"/><path class="cls-2" d="M268.45,233.1a12.26,12.26,0,0,0,11.07,0c3.06-1.77,3.06-4.63,0-6.4a12.26,12.26,0,0,0-11.07,0C265.39,228.47,265.39,231.33,268.45,233.1Z"/><line class="cls-3" x1="266.15" y1="229.9" x2="266.15" y2="229.15"/><line class="cls-3" x1="266.15" y1="228.51" x2="266.15" y2="227.76"/><line class="cls-3" x1="281.81" y1="227.76" x2="281.81" y2="228.51"/><line class="cls-3" x1="281.81" y1="229.15" x2="281.81" y2="229.9"/><path class="cls-2" d="M268.45,231a12.26,12.26,0,0,0,11.07,0c3.06-1.77,3.06-4.63,0-6.4a12.26,12.26,0,0,0-11.07,0C265.39,226.33,265.39,229.19,268.45,231Z"/><line class="cls-3" x1="275.69" y1="199.93" x2="275.69" y2="200.68"/><line class="cls-4" x1="275.69" y1="201.68" x2="275.69" y2="225.96"/><line class="cls-3" x1="275.69" y1="226.46" x2="275.69" y2="227.21"/><line class="cls-3" x1="272.15" y1="227.21" x2="272.15" y2="226.46"/><line class="cls-4" x1="272.15" y1="225.47" x2="272.15" y2="201.18"/><line class="cls-3" x1="272.15" y1="200.68" x2="272.15" y2="199.93"/><path class="cls-5" d="M272.67,227.93a2.75,2.75,0,0,0,2.5,0,.76.76,0,0,0,0-1.44,2.75,2.75,0,0,0-2.5,0A.76.76,0,0,0,272.67,227.93Z"/><path class="cls-5" d="M272.67,200.66a2.75,2.75,0,0,0,2.5,0,.77.77,0,0,0,0-1.45,2.75,2.75,0,0,0-2.5,0A.77.77,0,0,0,272.67,200.66Z"/></g><g class="cls-1"><polyline class="cls-3" points="272.12 71.42 272.12 70.67 271.47 70.3"/><line class="cls-6" x1="270.6" y1="69.8" x2="238.53" y2="51.29"/><polyline class="cls-3" points="238.09 51.04 237.44 50.67 237.44 51.42"/><line class="cls-7" x1="237.44" y1="52.3" x2="237.44" y2="54.07"/><polyline class="cls-3" points="237.44 54.51 237.44 55.26 238.09 55.63"/><line class="cls-8" x1="238.96" y1="56.13" x2="271.03" y2="74.64"/><polyline class="cls-3" points="271.47 74.89 272.12 75.26 272.12 74.51"/><line class="cls-9" x1="272.12" y1="73.63" x2="272.12" y2="71.86"/></g><g class="cls-1"><polyline class="cls-3" points="346.85 114.55 346.85 113.8 346.2 113.42"/><line class="cls-10" x1="345.33" y1="112.92" x2="313.17" y2="94.36"/><polyline class="cls-3" points="312.74 94.11 312.09 93.74 312.09 94.49"/><line class="cls-7" x1="312.09" y1="95.37" x2="312.09" y2="97.14"/><polyline class="cls-3" points="312.09 97.58 312.09 98.33 312.74 98.7"/><line class="cls-11" x1="313.61" y1="99.2" x2="345.76" y2="117.76"/><polyline class="cls-3" points="346.2 118.01 346.85 118.39 346.85 117.64"/><line class="cls-9" x1="346.85" y1="116.75" x2="346.85" y2="114.99"/><polyline class="cls-3" points="350.15 115.7 349.5 115.33 349.5 116.08"/><line class="cls-9" x1="349.5" y1="116.96" x2="349.5" y2="118.73"/><polyline class="cls-3" points="349.5 119.17 349.5 119.92 350.15 120.29"/><line class="cls-12" x1="351.04" y1="120.81" x2="383.97" y2="139.81"/><polyline class="cls-3" points="384.42 140.07 385.07 140.44 385.07 139.69"/><line class="cls-9" x1="385.07" y1="138.81" x2="385.07" y2="137.04"/><polyline class="cls-3" points="385.07 136.6 385.07 135.85 384.42 135.48"/><line class="cls-12" x1="383.53" y1="134.96" x2="350.6" y2="115.96"/></g><g class="cls-1"><polyline class="cls-3" points="309.43 92.96 309.43 92.21 308.79 91.83"/><line class="cls-13" x1="307.92" y1="91.33" x2="275.85" y2="72.83"/><polyline class="cls-3" points="275.42 72.58 274.77 72.2 274.77 72.95"/><line class="cls-7" x1="274.77" y1="73.84" x2="274.77" y2="75.6"/><polyline class="cls-3" points="274.77 76.04 274.77 76.79 275.42 77.17"/><line class="cls-14" x1="276.29" y1="77.67" x2="308.35" y2="96.17"/><polyline class="cls-3" points="308.79 96.42 309.43 96.8 309.43 96.05"/><line class="cls-9" x1="309.43" y1="95.16" x2="309.43" y2="93.4"/></g><g class="cls-1"><polyline class="cls-3" points="197.39 71.42 197.39 70.67 196.74 70.3"/><line class="cls-6" x1="195.88" y1="69.8" x2="163.8" y2="51.29"/><polyline class="cls-3" points="163.37 51.04 162.72 50.67 162.72 51.42"/><line class="cls-7" x1="162.72" y1="52.3" x2="162.72" y2="54.07"/><polyline class="cls-3" points="162.72 54.51 162.72 55.26 163.37 55.63"/><line class="cls-8" x1="164.24" y1="56.13" x2="196.31" y2="74.64"/><polyline class="cls-3" points="196.74 74.89 197.39 75.26 197.39 74.51"/><line class="cls-9" x1="197.39" y1="73.63" x2="197.39" y2="71.86"/></g><g class="cls-1"><polyline class="cls-3" points="234.71 92.96 234.71 92.21 234.06 91.83"/><line class="cls-13" x1="233.19" y1="91.33" x2="201.13" y2="72.83"/><polyline class="cls-3" points="200.7 72.58 200.05 72.2 200.05 72.95"/><line class="cls-7" x1="200.05" y1="73.84" x2="200.05" y2="75.6"/><polyline class="cls-3" points="200.05 76.04 200.05 76.79 200.7 77.17"/><line class="cls-14" x1="201.56" y1="77.67" x2="233.63" y2="96.17"/><polyline class="cls-3" points="234.06 96.42 234.71 96.8 234.71 96.05"/><line class="cls-9" x1="234.71" y1="95.16" x2="234.71" y2="93.4"/></g><g class="cls-1"><polyline class="cls-3" points="272.05 157.67 272.05 156.92 271.4 156.55"/><line class="cls-10" x1="270.53" y1="156.05" x2="238.38" y2="137.49"/><polyline class="cls-3" points="237.94 137.24 237.29 136.87 237.29 137.62"/><line class="cls-7" x1="237.29" y1="138.5" x2="237.29" y2="140.26"/><polyline class="cls-3" points="237.29 140.7 237.29 141.45 237.94 141.83"/><line class="cls-11" x1="238.81" y1="142.33" x2="270.97" y2="160.89"/><polyline class="cls-3" points="271.4 161.14 272.05 161.51 272.05 160.76"/><line class="cls-9" x1="272.05" y1="159.88" x2="272.05" y2="158.11"/></g><g class="cls-1"><polyline class="cls-3" points="275.36 158.83 274.71 158.46 274.71 159.21"/><line class="cls-9" x1="274.71" y1="160.09" x2="274.71" y2="161.85"/><polyline class="cls-3" points="274.71 162.29 274.71 163.04 275.36 163.42"/><line class="cls-12" x1="276.25" y1="163.93" x2="309.18" y2="182.94"/><polyline class="cls-3" points="309.62 183.19 310.27 183.57 310.27 182.82"/><line class="cls-9" x1="310.27" y1="181.94" x2="310.27" y2="180.17"/><polyline class="cls-3" points="310.27 179.73 310.27 178.98 309.62 178.6"/><line class="cls-12" x1="308.73" y1="178.09" x2="275.8" y2="159.09"/></g><g class="cls-1"><polyline class="cls-3" points="122.66 114.58 122.66 113.83 122.01 113.45"/><line class="cls-10" x1="121.14" y1="112.95" x2="88.98" y2="94.4"/><polyline class="cls-3" points="88.55 94.14 87.9 93.77 87.9 94.52"/><line class="cls-7" x1="87.9" y1="95.4" x2="87.9" y2="97.17"/><polyline class="cls-3" points="87.9 97.61 87.9 98.36 88.55 98.73"/><line class="cls-11" x1="89.42" y1="99.24" x2="121.57" y2="117.79"/><polyline class="cls-3" points="122.01 118.04 122.66 118.42 122.66 117.67"/><line class="cls-9" x1="122.66" y1="116.79" x2="122.66" y2="115.02"/><polyline class="cls-3" points="125.96 115.74 125.31 115.36 125.31 116.11"/><line class="cls-9" x1="125.31" y1="116.99" x2="125.31" y2="118.76"/><polyline class="cls-3" points="125.31 119.2 125.31 119.95 125.96 120.33"/><line class="cls-12" x1="126.85" y1="120.84" x2="159.78" y2="139.84"/><polyline class="cls-3" points="160.23 140.1 160.88 140.47 160.88 139.72"/><line class="cls-9" x1="160.88" y1="138.84" x2="160.88" y2="137.08"/><polyline class="cls-3" points="160.88 136.63 160.88 135.88 160.23 135.51"/><line class="cls-12" x1="159.34" y1="135" x2="126.4" y2="115.99"/></g><g class="cls-1"><polyline class="cls-3" points="47.91 157.74 47.91 156.99 47.27 156.62"/><line class="cls-10" x1="46.4" y1="156.11" x2="14.24" y2="137.56"/><polyline class="cls-3" points="13.8 137.31 13.16 136.93 13.16 137.68"/><line class="cls-7" x1="13.16" y1="138.56" x2="13.16" y2="140.33"/><polyline class="cls-3" points="13.16 140.77 13.16 141.52 13.8 141.9"/><line class="cls-11" x1="14.67" y1="142.4" x2="46.83" y2="160.95"/><polyline class="cls-3" points="47.27 161.2 47.91 161.58 47.91 160.83"/><line class="cls-9" x1="47.92" y1="159.95" x2="47.92" y2="158.18"/><polyline class="cls-3" points="51.22 158.9 50.57 158.52 50.57 159.27"/><line class="cls-9" x1="50.57" y1="160.15" x2="50.57" y2="161.92"/><polyline class="cls-3" points="50.57 162.36 50.57 163.11 51.22 163.49"/><line class="cls-12" x1="52.11" y1="164" x2="85.04" y2="183"/><polyline class="cls-3" points="85.48 183.26 86.13 183.63 86.13 182.88"/><line class="cls-9" x1="86.13" y1="182" x2="86.13" y2="180.24"/><polyline class="cls-3" points="86.13 179.79 86.13 179.04 85.48 178.67"/><line class="cls-12" x1="84.59" y1="178.16" x2="51.66" y2="159.15"/></g><g class="cls-1"><polyline class="cls-3" points="125.88 201.99 125.23 201.62 125.23 202.37"/><line class="cls-9" x1="125.23" y1="203.25" x2="125.23" y2="205.01"/><polyline class="cls-3" points="125.23 205.46 125.23 206.21 125.88 206.58"/><line class="cls-12" x1="126.77" y1="207.09" x2="159.7" y2="226.1"/><polyline class="cls-3" points="160.15 226.35 160.8 226.73 160.8 225.98"/><line class="cls-9" x1="160.8" y1="225.1" x2="160.8" y2="223.33"/><polyline class="cls-3" points="160.8 222.89 160.8 222.14 160.15 221.76"/><line class="cls-12" x1="159.26" y1="221.25" x2="126.33" y2="202.25"/></g><g class="cls-1"><polyline class="cls-3" points="350.4 157.74 350.4 156.99 351.05 156.62"/><line class="cls-10" x1="351.92" y1="156.11" x2="384.08" y2="137.56"/><polyline class="cls-3" points="384.51 137.31 385.16 136.93 385.16 137.68"/><line class="cls-7" x1="385.16" y1="138.56" x2="385.16" y2="140.33"/><polyline class="cls-3" points="385.16 140.77 385.16 141.52 384.51 141.9"/><line class="cls-11" x1="383.64" y1="142.4" x2="351.48" y2="160.95"/><polyline class="cls-3" points="351.05 161.2 350.4 161.58 350.4 160.83"/><line class="cls-9" x1="350.4" y1="159.95" x2="350.4" y2="158.18"/><polyline class="cls-3" points="347.1 158.9 347.75 158.52 347.75 159.27"/><line class="cls-9" x1="347.75" y1="160.15" x2="347.75" y2="161.92"/><polyline class="cls-3" points="347.75 162.36 347.75 163.11 347.1 163.49"/><line class="cls-12" x1="346.21" y1="164" x2="313.28" y2="183"/><polyline class="cls-3" points="312.83 183.26 312.18 183.63 312.18 182.88"/><line class="cls-9" x1="312.18" y1="182" x2="312.18" y2="180.24"/><polyline class="cls-3" points="312.18 179.79 312.18 179.04 312.83 178.67"/><line class="cls-12" x1="313.72" y1="178.16" x2="346.65" y2="159.15"/></g><g class="cls-1"><polyline class="cls-3" points="272.44 201.99 273.08 201.62 273.08 202.37"/><line class="cls-9" x1="273.09" y1="203.25" x2="273.09" y2="205.01"/><polyline class="cls-3" points="273.08 205.46 273.08 206.21 272.44 206.58"/><line class="cls-12" x1="271.55" y1="207.09" x2="238.61" y2="226.1"/><polyline class="cls-3" points="238.17 226.35 237.52 226.73 237.52 225.98"/><line class="cls-9" x1="237.52" y1="225.1" x2="237.52" y2="223.33"/><polyline class="cls-3" points="237.52 222.89 237.52 222.14 238.17 221.76"/><line class="cls-12" x1="239.06" y1="221.25" x2="271.99" y2="202.25"/></g><g class="cls-1"><polyline class="cls-3" points="200.62 201.98 199.97 201.6 199.97 202.35"/><line class="cls-9" x1="199.97" y1="203.24" x2="199.97" y2="205"/><polyline class="cls-3" points="199.97 205.44 199.97 206.19 200.62 206.57"/><line class="cls-12" x1="201.51" y1="207.08" x2="234.44" y2="226.08"/><polyline class="cls-3" points="234.89 226.34 235.54 226.72 235.54 225.97"/><line class="cls-9" x1="235.54" y1="225.08" x2="235.54" y2="223.32"/><polyline class="cls-3" points="235.54 222.88 235.54 222.13 234.89 221.75"/><line class="cls-12" x1="234" y1="221.24" x2="201.07" y2="202.23"/></g><g class="cls-1"><polyline class="cls-3" points="235.04 223.43 235.69 223.06 235.69 223.81"/><line class="cls-9" x1="235.69" y1="224.69" x2="235.69" y2="226.46"/><polyline class="cls-3" points="235.69 226.9 235.69 227.65 235.04 228.02"/><line class="cls-15" x1="234.17" y1="228.52" x2="202.01" y2="247.09"/><polyline class="cls-3" points="201.58 247.34 200.93 247.72 200.93 246.97"/><line class="cls-9" x1="200.93" y1="246.08" x2="200.93" y2="244.32"/><polyline class="cls-3" points="200.93 243.88 200.93 243.13 201.58 242.75"/><line class="cls-15" x1="202.45" y1="242.25" x2="234.61" y2="223.68"/></g><g class="cls-1"><polyline class="cls-3" points="270.57 255.05 270.57 255.8 269.64 255.8 269.64 255.05"/><line class="cls-16" x1="269.64" y1="254.38" x2="269.64" y2="253.03"/><polyline class="cls-3" points="269.64 252.69 269.64 251.94 270.57 251.94 270.57 252.69"/><line class="cls-16" x1="270.57" y1="253.36" x2="270.57" y2="254.71"/></g><g class="cls-1"><polyline class="cls-3" points="163.57 49.79 163.57 49.04 164.22 48.67"/><line class="cls-10" x1="165.08" y1="48.17" x2="197.24" y2="29.61"/><polyline class="cls-3" points="197.68 29.36 198.33 28.98 198.33 29.73"/><line class="cls-7" x1="198.33" y1="30.62" x2="198.33" y2="32.38"/><polyline class="cls-3" points="198.33 32.82 198.33 33.57 197.68 33.95"/><line class="cls-11" x1="196.81" y1="34.45" x2="164.65" y2="53.01"/><polyline class="cls-3" points="164.22 53.26 163.57 53.63 163.57 52.88"/><line class="cls-9" x1="163.57" y1="52" x2="163.57" y2="50.24"/><polyline class="cls-3" points="160.26 50.95 160.91 50.58 160.91 51.33"/><line class="cls-9" x1="160.91" y1="52.21" x2="160.91" y2="53.97"/><polyline class="cls-3" points="160.91 54.41 160.91 55.16 160.26 55.54"/><line class="cls-12" x1="159.37" y1="56.05" x2="126.44" y2="75.06"/><polyline class="cls-3" points="126 75.31 125.35 75.69 125.35 74.94"/><line class="cls-9" x1="125.35" y1="74.06" x2="125.35" y2="72.29"/><polyline class="cls-3" points="125.35 71.85 125.35 71.1 126 70.72"/><line class="cls-12" x1="126.89" y1="70.21" x2="159.82" y2="51.21"/></g><g class="cls-1"><polyline class="cls-3" points="85.6 94.04 86.25 93.67 86.25 94.42"/><line class="cls-9" x1="86.25" y1="95.3" x2="86.25" y2="97.07"/><polyline class="cls-3" points="86.25 97.51 86.25 98.26 85.6 98.63"/><line class="cls-12" x1="84.71" y1="99.15" x2="51.78" y2="118.15"/><polyline class="cls-3" points="51.34 118.41 50.69 118.78 50.69 118.03"/><line class="cls-9" x1="50.69" y1="117.15" x2="50.69" y2="115.38"/><polyline class="cls-3" points="50.69 114.94 50.69 114.19 51.34 113.82"/><line class="cls-12" x1="52.23" y1="113.3" x2="85.16" y2="94.3"/></g><g class="cls-1"><polyline class="cls-3" points="88.9 92.89 88.9 92.14 89.55 91.76"/><line class="cls-10" x1="90.42" y1="91.26" x2="122.58" y2="72.7"/><polyline class="cls-3" points="123.02 72.45 123.66 72.08 123.66 72.83"/><line class="cls-7" x1="123.66" y1="73.71" x2="123.66" y2="75.48"/><polyline class="cls-3" points="123.66 75.92 123.66 76.67 123.02 77.04"/><line class="cls-11" x1="122.15" y1="77.54" x2="89.99" y2="96.1"/><polyline class="cls-3" points="89.55 96.35 88.9 96.73 88.9 95.98"/><line class="cls-9" x1="88.9" y1="95.09" x2="88.9" y2="93.33"/></g><g class="cls-1"><polyline class="cls-3" points="48.21 115.49 48.86 115.11 48.86 115.86"/><line class="cls-9" x1="48.86" y1="116.74" x2="48.86" y2="118.51"/><polyline class="cls-3" points="48.86 118.95 48.86 119.7 48.21 120.08"/><line class="cls-15" x1="47.34" y1="120.58" x2="15.18" y2="139.14"/><polyline class="cls-3" points="14.74 139.4 14.1 139.77 14.1 139.02"/><line class="cls-9" x1="14.09" y1="138.14" x2="14.09" y2="136.37"/><polyline class="cls-3" points="14.1 135.93 14.1 135.18 14.74 134.81"/><line class="cls-15" x1="15.61" y1="134.3" x2="47.77" y2="115.74"/></g><g class="cls-1"><polyline class="cls-3" points="122.58 200.83 122.58 200.08 121.93 199.71"/><line class="cls-10" x1="121.06" y1="199.21" x2="88.9" y2="180.65"/><polyline class="cls-3" points="88.47 180.4 87.82 180.03 87.82 180.78"/><line class="cls-7" x1="87.82" y1="181.66" x2="87.82" y2="183.42"/><polyline class="cls-3" points="87.82 183.87 87.82 184.62 88.47 184.99"/><line class="cls-11" x1="89.34" y1="185.49" x2="121.49" y2="204.05"/><polyline class="cls-3" points="121.93 204.3 122.58 204.67 122.58 203.92"/><line class="cls-9" x1="122.58" y1="203.04" x2="122.58" y2="201.28"/></g><g class="cls-1"><polyline class="cls-3" points="275.74 200.83 275.74 200.08 276.39 199.71"/><line class="cls-10" x1="277.26" y1="199.21" x2="309.41" y2="180.65"/><polyline class="cls-3" points="309.85 180.4 310.5 180.03 310.5 180.78"/><line class="cls-7" x1="310.5" y1="181.66" x2="310.5" y2="183.42"/><polyline class="cls-3" points="310.5 183.87 310.5 184.62 309.85 184.99"/><line class="cls-11" x1="308.98" y1="185.49" x2="276.82" y2="204.05"/><polyline class="cls-3" points="276.39 204.3 275.74 204.67 275.74 203.92"/><line class="cls-9" x1="275.74" y1="203.04" x2="275.74" y2="201.28"/></g><g class="cls-1"><polyline class="cls-3" points="197.32 200.82 197.32 200.07 196.67 199.7"/><line class="cls-10" x1="195.8" y1="199.19" x2="163.64" y2="180.64"/><polyline class="cls-3" points="163.21 180.39 162.56 180.01 162.56 180.76"/><line class="cls-7" x1="162.56" y1="181.65" x2="162.56" y2="183.41"/><polyline class="cls-3" points="162.56 183.85 162.56 184.6 163.21 184.98"/><line class="cls-11" x1="164.08" y1="185.48" x2="196.24" y2="204.03"/><polyline class="cls-3" points="196.67 204.28 197.32 204.66 197.32 203.91"/><line class="cls-9" x1="197.32" y1="203.03" x2="197.32" y2="201.26"/></g><ellipse cx="161.74" cy="122.04" rx="7.83" ry="4.52"/><ellipse cx="124.37" cy="143.61" rx="7.83" ry="4.52"/><ellipse cx="87" cy="165.18" rx="7.83" ry="4.52"/><ellipse cx="199.1" cy="100.46" rx="7.83" ry="4.52"/><ellipse cx="199.1" cy="100.46" rx="7.83" ry="4.52"/><rect x="191.27" y="98.32" width="15.66" height="2.14"/><ellipse class="cls-17" cx="199.1" cy="98.32" rx="7.83" ry="4.52"/><rect class="cls-18" x="197.4" y="70.5" width="3.54" height="27.27"/><ellipse class="cls-18" cx="199.17" cy="97.77" rx="1.77" ry="1.02"/><ellipse class="cls-19" cx="199.17" cy="70.5" rx="1.77" ry="1.02"/><ellipse cx="199.1" cy="143.61" rx="7.83" ry="4.52"/><ellipse cx="161.74" cy="165.18" rx="7.83" ry="4.52"/><ellipse cx="124.37" cy="186.76" rx="7.83" ry="4.52"/><ellipse cx="236.47" cy="122.04" rx="7.83" ry="4.52"/><ellipse cx="236.47" cy="165.18" rx="7.83" ry="4.52"/><ellipse cx="199.1" cy="186.76" rx="7.83" ry="4.52"/><ellipse cx="161.74" cy="208.33" rx="7.83" ry="4.52"/><ellipse cx="273.84" cy="143.61" rx="7.83" ry="4.52"/><ellipse cx="273.84" cy="186.76" rx="7.83" ry="4.52"/><ellipse cx="236.47" cy="208.33" rx="7.83" ry="4.52"/><ellipse cx="199.11" cy="229.91" rx="7.83" ry="4.52"/><ellipse cx="311.21" cy="165.18" rx="7.83" ry="4.52"/><ellipse cx="124.37" cy="143.61" rx="7.83" ry="4.52"/><rect x="116.54" y="141.47" width="15.66" height="2.14"/><ellipse class="cls-17" cx="124.37" cy="141.47" rx="7.83" ry="4.52"/><rect class="cls-18" x="122.66" y="113.65" width="3.54" height="27.27"/><ellipse class="cls-18" cx="124.43" cy="140.92" rx="1.77" ry="1.02"/><ellipse class="cls-19" cx="124.43" cy="113.65" rx="1.77" ry="1.02"/><ellipse cx="199.1" cy="143.61" rx="7.83" ry="4.52"/><rect x="191.27" y="141.47" width="15.66" height="2.14"/><ellipse class="cls-17" cx="199.1" cy="141.47" rx="7.83" ry="4.52"/><rect class="cls-18" x="197.4" y="113.65" width="3.54" height="27.27"/><ellipse class="cls-18" cx="199.17" cy="140.92" rx="1.77" ry="1.02"/><ellipse class="cls-19" cx="199.17" cy="113.65" rx="1.77" ry="1.02"/><ellipse cx="273.84" cy="143.61" rx="7.83" ry="4.52"/><rect x="266.01" y="141.47" width="15.66" height="2.14"/><ellipse class="cls-17" cx="273.84" cy="141.47" rx="7.83" ry="4.52"/><rect class="cls-18" x="272.13" y="113.65" width="3.54" height="27.27"/><ellipse class="cls-18" cx="273.9" cy="140.92" rx="1.77" ry="1.02"/><ellipse class="cls-19" cx="273.9" cy="113.65" rx="1.77" ry="1.02"/><ellipse cx="124.37" cy="186.76" rx="7.83" ry="4.52"/><rect x="116.54" y="184.62" width="15.66" height="2.14"/><ellipse class="cls-17" cx="124.37" cy="184.62" rx="7.83" ry="4.52"/><rect class="cls-18" x="122.66" y="156.79" width="3.54" height="27.27"/><ellipse class="cls-18" cx="124.43" cy="184.07" rx="1.77" ry="1.02"/><ellipse class="cls-19" cx="124.43" cy="156.79" rx="1.77" ry="1.02"/><polygon points="198.14 72.19 198.14 76.78 162.58 97.31 162.58 92.72 198.14 72.19"/><ellipse cx="199.1" cy="186.76" rx="7.83" ry="4.52"/><rect x="191.27" y="184.62" width="15.66" height="2.14"/><ellipse class="cls-17" cx="199.1" cy="184.62" rx="7.83" ry="4.52"/><rect class="cls-18" x="197.4" y="156.79" width="3.54" height="27.27"/><ellipse class="cls-18" cx="199.17" cy="184.07" rx="1.77" ry="1.02"/><ellipse class="cls-19" cx="199.17" cy="156.79" rx="1.77" ry="1.02"/><ellipse cx="161.74" cy="122.04" rx="7.83" ry="4.52"/><rect x="153.9" y="119.9" width="15.66" height="2.14"/><ellipse class="cls-17" cx="161.74" cy="119.9" rx="7.83" ry="4.52"/><rect class="cls-18" x="160.03" y="92.07" width="3.54" height="27.27"/><ellipse class="cls-18" cx="161.8" cy="119.35" rx="1.77" ry="1.02"/><ellipse class="cls-19" cx="161.8" cy="92.07" rx="1.77" ry="1.02"/><ellipse cx="236.47" cy="122.04" rx="7.83" ry="4.52"/><rect x="228.64" y="119.9" width="15.66" height="2.14"/><ellipse class="cls-17" cx="236.47" cy="119.9" rx="7.83" ry="4.52"/><rect class="cls-18" x="234.76" y="92.07" width="3.54" height="27.27"/><ellipse class="cls-18" cx="236.53" cy="119.35" rx="1.77" ry="1.02"/><ellipse class="cls-19" cx="236.53" cy="92.07" rx="1.77" ry="1.02"/><ellipse cx="199.1" cy="229.91" rx="7.83" ry="4.52"/><rect x="191.27" y="227.77" width="15.66" height="2.14"/><ellipse class="cls-17" cx="199.1" cy="227.77" rx="7.83" ry="4.52"/><rect class="cls-18" x="197.4" y="199.94" width="3.54" height="27.27"/><ellipse class="cls-18" cx="199.17" cy="227.22" rx="1.77" ry="1.02"/><ellipse class="cls-19" cx="199.17" cy="199.94" rx="1.77" ry="1.02"/><polygon points="272.13 113.79 237.37 93.73 237.37 98.32 272.13 118.38 272.13 113.79"/><polygon points="274.78 115.32 274.78 119.91 310.35 140.43 310.35 135.84 274.78 115.32"/><polygon points="197.4 113.82 162.64 93.76 162.64 98.35 197.4 118.41 197.4 113.82"/><polygon points="200.05 115.35 200.05 119.94 235.62 140.47 235.62 135.88 200.05 115.35"/><ellipse cx="236.47" cy="165.18" rx="7.83" ry="4.52"/><rect x="228.64" y="163.04" width="15.66" height="2.14"/><ellipse class="cls-17" cx="236.47" cy="163.04" rx="7.83" ry="4.52"/><rect class="cls-18" x="234.76" y="135.22" width="3.54" height="27.27"/><ellipse class="cls-18" cx="236.53" cy="162.49" rx="1.77" ry="1.02"/><ellipse class="cls-19" cx="236.53" cy="135.22" rx="1.77" ry="1.02"/><ellipse cx="273.84" cy="186.76" rx="7.83" ry="4.52"/><rect x="266.01" y="184.62" width="15.66" height="2.14"/><ellipse class="cls-17" cx="273.84" cy="184.62" rx="7.83" ry="4.52"/><rect class="cls-18" x="272.13" y="156.79" width="3.54" height="27.27"/><ellipse class="cls-18" cx="273.9" cy="184.07" rx="1.77" ry="1.02"/><ellipse class="cls-19" cx="273.9" cy="156.79" rx="1.77" ry="1.02"/><polygon points="199.98 158.45 199.98 163.04 235.54 183.56 235.54 178.97 199.98 158.45"/><polygon points="273.09 158.75 273.09 163.34 237.53 183.86 237.53 179.27 273.09 158.75"/><polygon points="125.32 158.5 125.32 163.09 160.88 183.61 160.88 179.02 125.32 158.5"/><polygon points="235.7 180.19 235.7 184.78 200.94 204.85 200.94 200.26 235.7 180.19"/><rect x="269.64" y="251.93" width="0.93" height="3.86"/><polygon points="123.48 115.29 123.48 119.88 87.92 140.4 87.92 135.81 123.48 115.29"/><polygon points="126.14 113.76 160.89 93.7 160.89 98.29 126.14 118.35 126.14 113.76"/><polygon points="275.75 157.22 310.5 137.16 310.5 141.75 275.75 161.81 275.75 157.22"/><ellipse cx="311.21" cy="165.18" rx="7.83" ry="4.52"/><rect x="303.38" y="163.04" width="15.66" height="2.14"/><ellipse class="cls-17" cx="311.21" cy="163.04" rx="7.83" ry="4.52"/><rect class="cls-18" x="309.5" y="135.22" width="3.54" height="27.27"/><ellipse class="cls-18" cx="311.27" cy="162.49" rx="1.77" ry="1.02"/><ellipse class="cls-19" cx="311.27" cy="135.22" rx="1.77" ry="1.02"/><ellipse cx="161.74" cy="165.18" rx="7.83" ry="4.52"/><rect x="153.91" y="163.04" width="15.66" height="2.14"/><ellipse class="cls-17" cx="161.74" cy="163.04" rx="7.83" ry="4.52"/><rect class="cls-18" x="160.03" y="135.22" width="3.54" height="27.27"/><ellipse class="cls-18" cx="161.8" cy="162.49" rx="1.77" ry="1.02"/><ellipse class="cls-19" cx="161.8" cy="135.22" rx="1.77" ry="1.02"/><polygon points="197.32 156.91 162.56 136.86 162.56 141.44 197.32 161.5 197.32 156.91"/><ellipse cx="236.47" cy="208.33" rx="7.83" ry="4.52"/><rect x="228.64" y="206.19" width="15.66" height="2.14"/><ellipse class="cls-17" cx="236.47" cy="206.19" rx="7.83" ry="4.52"/><rect class="cls-18" x="234.76" y="178.37" width="3.54" height="27.27"/><ellipse class="cls-18" cx="236.53" cy="205.64" rx="1.77" ry="1.02"/><ellipse class="cls-19" cx="236.53" cy="178.37" rx="1.77" ry="1.02"/><ellipse cx="161.74" cy="208.33" rx="7.83" ry="4.52"/><rect x="153.91" y="206.19" width="15.66" height="2.14"/><ellipse class="cls-17" cx="161.74" cy="206.19" rx="7.83" ry="4.52"/><rect class="cls-18" x="160.03" y="178.37" width="3.54" height="27.27"/><ellipse class="cls-18" cx="161.8" cy="205.64" rx="1.77" ry="1.02"/><ellipse class="cls-19" cx="161.8" cy="178.37" rx="1.77" ry="1.02"/><ellipse cx="87" cy="165.18" rx="7.83" ry="4.52"/><rect x="79.17" y="163.04" width="15.66" height="2.14"/><ellipse class="cls-17" cx="87" cy="163.04" rx="7.83" ry="4.52"/><rect class="cls-18" x="85.3" y="135.22" width="3.54" height="27.27"/><ellipse class="cls-18" cx="87.07" cy="162.49" rx="1.77" ry="1.02"/><ellipse class="cls-19" cx="87.07" cy="135.22" rx="1.77" ry="1.02"/><polygon points="122.66 156.97 87.9 136.91 87.9 141.5 122.66 161.56 122.66 156.97"/></svg>