<svg width="94" height="95" viewBox="0 0 94 95" fill="none" xmlns="http://www.w3.org/2000/svg">
<circle cx="47" cy="47.5741" r="47" fill="#20D15B"/>
<g clip-path="url(#clip0)">
<path d="M64.2419 24.5638C56.8872 18.7771 50.5499 17.7159 39.1352 20.3498C36.0347 21.0647 32.5263 22.1558 29.9979 24.8298C28.3514 26.5902 27.0811 28.6678 26.2646 30.9357C25.9179 31.9342 25.6355 32.954 25.419 33.9886L25.3452 34.3115C25.1384 35.065 24.8622 35.7977 24.5202 36.5002C24.0233 37.3501 23.7587 38.3157 23.753 39.3002C23.9417 40.1337 24.4236 40.8717 25.111 41.3797C25.5674 41.7987 25.8679 42.0937 25.8707 42.3625C25.8309 42.5141 25.7703 42.6596 25.6906 42.7946C25.5413 43.0596 25.434 43.3461 25.3723 43.6439C25.2447 44.7633 24.7873 45.8194 24.0582 46.6782C21.1266 49.8366 20.2894 50.9258 20.392 52.0533C20.5519 52.8368 21.05 53.5095 21.7528 53.891C22.0605 54.106 22.3855 54.2952 22.7244 54.4566C23.1258 54.6619 23.7987 55.0054 23.8444 55.2509C23.9053 55.5671 23.8692 55.8944 23.7408 56.1898C23.6036 56.4829 23.4608 56.7349 23.3367 56.9551C22.9727 57.5991 22.4239 58.5726 23.2844 59.2987C23.486 59.477 23.8314 59.7486 24.1459 59.9894C23.9118 60.3996 23.8073 60.8711 23.8463 61.3418C23.8954 61.707 24.0938 62.0355 24.3942 62.249C24.6023 62.3974 24.8244 62.529 25.0475 62.6531C25.5944 62.9658 25.8072 63.1114 25.881 63.3998C25.9486 63.749 25.9215 64.1099 25.8026 64.4451C25.4932 65.5421 25.5459 66.7097 25.9528 67.7743C26.4321 69.5476 28.2179 70.6334 30.0128 70.243C32.6708 69.6006 35.2921 68.8145 37.865 67.8882C39.153 68.6563 40.3775 70.523 41.2604 73.0906C41.646 74.2282 42.7118 74.9951 43.913 74.9993H62.7346C63.7036 74.9986 64.6034 74.4969 65.1134 73.673C65.6234 72.849 65.6712 71.82 65.2396 70.9523C64.074 68.3596 63.3486 65.5907 63.093 62.7595C62.7618 59.9681 63.1806 57.1388 64.3063 54.563C64.9774 53.1694 65.805 51.8568 66.7731 50.6505C68.6192 48.1557 70.7118 45.3305 70.7799 40.5191C70.8355 37.8436 70.5077 35.174 69.8064 32.5914C68.8669 29.385 66.9147 26.5687 64.2419 24.5638ZM65.2742 49.5398C64.2214 50.859 63.3232 52.2945 62.5974 53.8182C61.3379 56.6983 60.8689 59.8619 61.2384 62.9835C61.5182 66.0302 62.3069 69.0084 63.5718 71.7942C63.7108 72.0828 63.6921 72.4226 63.5222 72.6942C63.3523 72.9659 63.0549 73.1313 62.7346 73.1326H43.913C43.5093 73.1291 43.1523 72.8696 43.0244 72.4867C42.4165 70.5054 41.3691 68.6868 39.9603 67.1667L40.6575 66.9222C41.3472 66.6795 41.8708 66.4966 42.1284 66.4145C46.1212 65.1582 48.1186 63.3345 48.0635 61.0086C48.0646 60.7589 47.9629 60.5199 47.7822 60.3475C47.6016 60.1752 47.358 60.0848 47.1087 60.0977C46.8611 60.1033 46.626 60.2071 46.4549 60.3861C46.2839 60.5652 46.1911 60.8049 46.1968 61.0525C46.2192 62.0147 45.4352 63.4175 41.5656 64.6346C41.2931 64.7205 40.7536 64.9099 40.0387 65.161C39.3695 65.3962 38.5454 65.6874 37.6354 66.001H37.6279C35.0085 66.9516 32.3396 67.7598 29.633 68.4221C28.7602 68.5912 27.911 68.0366 27.715 67.1695C27.4235 66.44 27.3906 65.6327 27.6216 64.8819C27.8144 64.2544 27.8392 63.5872 27.6935 62.9471C27.4262 62.0911 26.7997 61.3938 25.9771 61.0366C25.9099 60.9983 25.8427 60.961 25.7764 60.9218C25.8758 60.7168 25.9955 60.5223 26.1339 60.3413C26.2886 60.1431 26.3567 59.8909 26.323 59.6418C26.2893 59.3927 26.1565 59.1677 25.9547 59.0178C25.7307 58.8517 25.1987 58.4513 24.816 58.1451C24.8636 58.0574 24.9168 57.9585 24.9663 57.8745C25.1091 57.6215 25.2734 57.3285 25.433 56.9943C25.7307 56.3418 25.8184 55.6129 25.684 54.9083C25.4666 53.7631 24.3774 53.2059 23.5794 52.7981C23.3348 52.6825 23.099 52.5493 22.8738 52.3995C22.655 52.2475 22.4487 52.0784 22.2568 51.8937C22.2727 51.3542 24.326 49.1394 25.4302 47.9494C26.4109 46.8256 27.0331 45.4341 27.2166 43.9538C27.2562 43.8463 27.3036 43.7418 27.3584 43.6411C27.5915 43.2468 27.7227 42.8006 27.7402 42.3429C27.6466 41.3999 27.1471 40.5443 26.3719 39.9993C25.9986 39.6539 25.6402 39.3273 25.6 39.0398C25.7133 38.4178 25.9237 37.8175 26.2235 37.2609C26.6142 36.4496 26.9267 35.603 27.1568 34.7325L27.2324 34.4067C27.4321 33.4487 27.6918 32.5042 28.0099 31.5787C28.7408 29.5484 29.8773 27.6882 31.3503 26.1113C33.5315 23.8031 36.577 22.8511 39.5496 22.1661C51.7268 19.3586 57.03 21.2663 63.0902 26.0329C65.46 27.7866 67.1891 30.2692 68.0126 33.1001C68.6645 35.5084 68.9685 37.9976 68.9151 40.4921C68.8563 44.7005 67.1166 47.0515 65.2742 49.5398Z" fill="white"/>
<path d="M57.7919 34.6614C59.1384 36.0909 61.3389 36.2937 62.924 35.1342C64.5091 33.9748 64.9823 31.8163 64.0278 30.1C63.0732 28.3837 60.9898 27.6471 59.1686 28.3822C57.3475 29.1172 56.359 31.0936 56.8632 32.9916C55.7125 33.9896 54.7729 35.2075 54.0996 36.5738C53.5025 36.1264 52.853 35.7534 52.1657 35.4631C51.3752 33.9586 51.518 31.9006 51.8801 30.1814C51.9436 30.1814 52.0033 30.2 52.0668 30.2C53.9445 30.2149 55.5458 28.8433 55.8196 26.9856C56.0934 25.1279 54.9558 23.3527 53.1536 22.8252C51.3515 22.2978 49.4363 23.1796 48.6653 24.8917C47.8942 26.6039 48.5034 28.6224 50.0928 29.6223C49.6903 31.2568 49.6268 32.9565 49.9061 34.6166C49.1128 34.3677 48.2417 34.135 47.2928 33.9184C46.4341 33.7252 45.6175 33.561 44.8493 33.4219C44.0653 32.7371 43.4747 31.8585 43.1367 30.8739C44.8961 30.2034 45.8834 28.3302 45.4423 26.4997C45.0012 24.6693 43.2689 23.4515 41.3972 23.6561C39.5255 23.8606 38.0972 25.4238 38.0618 27.3063C38.0265 29.1889 39.3952 30.8046 41.2579 31.0792C41.4454 31.7353 41.7117 32.3661 42.0512 32.958C40.2051 32.6874 38.4635 32.4914 37.0625 32.3579C36.7467 30.4963 35.0954 29.1602 33.2088 29.2399C31.3223 29.3196 29.7896 30.7902 29.6319 32.6719C29.4742 34.5535 30.7408 36.2586 32.5878 36.6512C34.4348 37.0438 36.2854 36.0011 36.9067 34.218C38.8947 34.4047 41.5733 34.722 44.2464 35.2074L44.3957 35.2354C43.4536 35.9851 42.6186 36.8603 41.914 37.8366C41.575 37.7296 41.2222 37.6724 40.8668 37.6667C39.0818 37.6602 37.54 38.9135 37.1819 40.6622C36.8238 42.4109 37.7488 44.1694 39.3927 44.8651C41.0365 45.5607 42.9429 45.0003 43.9487 43.5257C44.9546 42.0512 44.7808 40.0718 43.5333 38.7951C44.3097 37.7067 45.3039 36.7916 46.4528 36.108C46.6745 35.9879 46.9051 35.8849 47.1425 35.8C48.4618 36.0938 49.7562 36.4898 51.014 36.9844C51.0428 37.0005 51.0724 37.0152 51.1027 37.0283L51.1185 37.0358L51.1335 37.0432C51.922 37.3306 52.6486 37.7655 53.2745 38.3247C53.3896 38.4394 53.4888 38.5691 53.5695 38.7102C53.9988 39.4335 53.9045 40.5059 53.2708 42.0898C52.9245 42.9634 52.4691 43.8734 51.9865 44.8366C50.3401 48.1228 48.4753 51.8478 51.4835 54.2632C54.9937 57.0716 55.1179 66.7699 54.8696 70.268C54.8516 70.5151 54.9326 70.7592 55.0947 70.9465C55.2568 71.1338 55.4868 71.249 55.7339 71.2667H55.8001C56.2908 71.2679 56.6986 70.8891 56.7335 70.3996C56.7736 69.8462 57.6453 56.7982 52.6539 52.8054C50.9505 51.4399 51.9455 49.0954 53.6581 45.6747C54.0744 44.845 54.4888 43.9947 54.8397 43.164C55.7761 42.9369 56.7628 43.2208 57.4353 43.9107C56.3211 45.4626 56.535 47.601 57.9345 48.9015C59.334 50.2019 61.4823 50.2586 62.9485 49.0337C64.4146 47.8088 64.7409 45.6847 63.71 44.0762C62.6792 42.4677 60.6129 41.8769 58.8876 42.6974C57.9796 41.8126 56.7845 41.2828 55.5192 41.204C55.7931 40.2224 55.7496 39.1793 55.3951 38.2239C55.9309 36.8791 56.7481 35.6644 57.7919 34.6614ZM60.4668 30.2C61.4977 30.2 62.3335 31.0358 62.3335 32.0667C62.3335 33.0976 61.4977 33.9334 60.4668 33.9334C59.4359 33.9334 58.6001 33.0976 58.6001 32.0667C58.6001 31.0358 59.4359 30.2 60.4668 30.2ZM52.0668 24.6C53.0977 24.6 53.9335 25.4358 53.9335 26.4667C53.9335 27.4976 53.0977 28.3334 52.0668 28.3334C51.0359 28.3334 50.2001 27.4976 50.2001 26.4667C50.2001 25.4358 51.0359 24.6 52.0668 24.6ZM39.9335 27.4C39.9335 26.3691 40.7692 25.5334 41.8001 25.5334C42.8311 25.5334 43.6668 26.3691 43.6668 27.4C43.6668 28.431 42.8311 29.2667 41.8001 29.2667C40.7692 29.2667 39.9335 28.431 39.9335 27.4ZM33.4001 34.8667C32.3692 34.8667 31.5335 34.031 31.5335 33C31.5335 31.9691 32.3692 31.1334 33.4001 31.1334C34.4311 31.1334 35.2668 31.9691 35.2668 33C35.2668 34.031 34.4311 34.8667 33.4001 34.8667ZM40.8668 43.2667C39.8359 43.2667 39.0001 42.431 39.0001 41.4C39.0001 40.3691 39.8359 39.5334 40.8668 39.5334C41.8977 39.5334 42.7335 40.3691 42.7335 41.4C42.7335 42.431 41.8977 43.2667 40.8668 43.2667ZM62.3335 46.0667C62.3335 47.0976 61.4977 47.9334 60.4668 47.9334C59.4359 47.9334 58.6001 47.0976 58.6001 46.0667C58.6001 45.0358 59.4359 44.2 60.4668 44.2C61.4977 44.2 62.3335 45.0358 62.3335 46.0667Z" fill="white"/>
</g>
<defs>
<clipPath id="clip0">
<rect x="18" y="19" width="56" height="56" fill="white"/>
</clipPath>
</defs>
</svg>
