<svg width="180" height="168" viewBox="0 0 180 168" fill="none" xmlns="http://www.w3.org/2000/svg">
<path d="M143.364 119.362C143.364 119.362 165.632 120.511 160.445 127.506C155.258 134.502 141.629 123.403 141.629 123.403L143.364 119.362Z" fill="#FFB8B8"/>
<path d="M102.327 52.7288L106.859 53.8596C106.859 53.8596 109.503 61.7754 111.392 68.9374C113.28 76.0993 117.058 97.5852 117.058 97.5852L146.341 118.066L142.848 125.863L103.838 110.519L95.1499 76.4763L102.327 52.7288Z" fill="#575A89"/>
<path opacity="0.2" d="M106.591 66.7798L104.902 102.084L108.427 112.581L98.1006 105.024L106.591 66.7798Z" fill="black"/>
<path d="M112.714 129.437C112.714 129.437 117.624 142.63 118.38 151.677C119.135 160.724 119.89 167.886 119.89 167.886H96.8496L92.317 161.101V167.886H65.499C65.499 167.886 57.9446 143.384 60.9664 140.369C63.9881 137.353 92.6947 124.537 92.6947 124.537L112.714 129.437Z" fill="#2F2E41"/>
<path d="M156.617 167.542H23.2915V168H156.617V167.542Z" fill="#3F3D56"/>
<path d="M83.8186 38.4049C91.7457 38.4049 98.1719 31.9919 98.1719 24.081C98.1719 16.1701 91.7457 9.75708 83.8186 9.75708C75.8915 9.75708 69.4653 16.1701 69.4653 24.081C69.4653 31.9919 75.8915 38.4049 83.8186 38.4049Z" fill="#FFB8B8"/>
<path d="M72.8646 30.1123L71.7314 46.6979L86.0847 65.9221L93.2614 47.8287C93.2614 47.8287 86.8402 43.6823 90.6174 35.0126L72.8646 30.1123Z" fill="#FFB8B8"/>
<path d="M55.5329 51.9617H3.67139V52.5123H55.5329V51.9617Z" fill="#3F3D56"/>
<path d="M114.791 132.641C114.791 136.035 105.348 141.311 105.348 141.311V143.196L101.57 145.08L93.2612 128.496L90.9963 146.587C90.9963 146.587 74.3754 149.228 69.0883 146.587C63.7989 143.949 61.1553 145.08 53.601 142.442C46.0467 139.804 56.6232 104.37 56.6232 104.37L49.0688 49.7133L65.5727 41.4782L66.4424 41.0431L68.7119 40.6263L72.1908 39.9851L83.8183 47.8285L84.7546 52.7293L85.3305 55.7453L88.3504 52.3514L90.6314 44.8652L106.86 53.8606L102.328 90.0457C102.328 90.0457 114.791 129.249 114.791 132.641Z" fill="#575A89"/>
<path d="M59.2669 144.326C59.2669 144.326 76.642 158.273 68.3322 160.912C60.0224 163.551 55.4897 146.588 55.4897 146.588L59.2669 144.326Z" fill="#FFB8B8"/>
<path d="M52.8456 50.4673L49.0684 49.7134C49.0684 49.7134 43.4026 52.7289 43.0249 58.7601C42.6472 64.7912 37.7368 107.009 37.7368 107.009L53.601 149.604L66.4434 144.703L53.9787 104.747L63.4217 70.0684L52.8456 50.4673Z" fill="#575A89"/>
<path d="M85.4794 61.9702C86.2398 61.9702 86.8562 61.3551 86.8562 60.5962C86.8562 59.8373 86.2398 59.2222 85.4794 59.2222C84.719 59.2222 84.1025 59.8373 84.1025 60.5962C84.1025 61.3551 84.719 61.9702 85.4794 61.9702Z" fill="#2F2E41"/>
<path d="M85.4794 70.9016C86.2398 70.9016 86.8562 70.2865 86.8562 69.5276C86.8562 68.7687 86.2398 68.1536 85.4794 68.1536C84.719 68.1536 84.1025 68.7687 84.1025 69.5276C84.1025 70.2865 84.719 70.9016 85.4794 70.9016Z" fill="#2F2E41"/>
<path d="M93.2816 129.756C94.0421 129.756 94.6585 129.141 94.6585 128.382C94.6585 127.623 94.0421 127.008 93.2816 127.008C92.5212 127.008 91.9048 127.623 91.9048 128.382C91.9048 129.141 92.5212 129.756 93.2816 129.756Z" fill="#2F2E41"/>
<path d="M71.7004 9.40686L69.0471 8.34681C69.0471 8.34681 74.5949 2.25153 82.3136 2.78157L80.1427 0.396447C80.1427 0.396447 85.4492 -1.72363 90.2734 3.84161C92.8093 6.76712 95.7435 10.2059 97.5726 14.0797H100.414L99.2282 16.6856L103.379 19.2916L99.1186 18.8235C99.3724 20.2505 99.4114 21.7074 99.2342 23.1459C99.0514 24.5849 98.3156 25.8967 97.182 26.8045C97.182 26.8045 93.8914 20.0073 93.8914 18.9473V21.5974C93.8914 21.5974 91.2381 19.2123 91.2381 17.6222L89.7909 19.4773H80.1427L81.5899 17.0922L76.0421 17.8872L78.213 14.9721L69.6235 27.0097C69.6235 27.0097 64.7054 13.382 71.7004 9.40686Z" fill="#2F2E41"/>
<path d="M146.635 103.282C158.041 103.282 167.288 94.0539 167.288 82.671C167.288 71.2882 158.041 62.0605 146.635 62.0605C135.229 62.0605 125.982 71.2882 125.982 82.671C125.982 94.0539 135.229 103.282 146.635 103.282Z" fill="#3F3D56"/>
<path opacity="0.1" d="M146.635 100.304C156.394 100.304 164.305 92.4097 164.305 82.671C164.305 72.9323 156.394 65.0376 146.635 65.0376C136.876 65.0376 128.965 72.9323 128.965 82.671C128.965 92.4097 136.876 100.304 146.635 100.304Z" fill="black"/>
<path d="M145.748 92.9762V90.4125C144.432 90.3872 143.069 89.9302 142.275 89.2956L142.82 87.595C143.764 88.2914 144.909 88.6737 146.089 88.6864C147.701 88.6864 148.79 87.6457 148.79 86.1989C148.79 84.8028 147.905 83.9399 146.225 83.1783C143.909 82.163 142.479 80.9953 142.479 78.7871C142.479 76.6802 143.819 75.0811 145.907 74.7004V72.1367H147.315V74.5989C148.364 74.613 149.388 74.9211 150.266 75.4872L149.698 77.1626C148.856 76.5952 147.858 76.2942 146.838 76.2995C145.09 76.2995 144.432 77.4671 144.432 78.4825C144.432 79.8024 145.272 80.4623 147.247 81.3762C149.585 82.4422 150.765 83.7621 150.765 86.0212C150.765 88.0264 149.517 89.9049 147.179 90.3362V92.9762H145.748Z" fill="#27F26F"/>
<path opacity="0.2" d="M57.3701 115.618L66.548 144.228L59.2048 114.458L57.3701 115.618Z" fill="black"/>
<path d="M25.3756 54.177C35.4309 54.177 43.5823 46.0422 43.5823 36.0075C43.5823 25.9729 35.4309 17.8381 25.3756 17.8381C15.3204 17.8381 7.16895 25.9729 7.16895 36.0075C7.16895 46.0422 15.3204 54.177 25.3756 54.177Z" fill="#27F26F"/>
<path d="M31.7201 14.4162C30.0716 14.207 28.4031 14.207 26.7546 14.4162C23.082 14.8974 19.6248 16.42 16.7932 18.8032C13.9616 21.1864 11.8746 24.3302 10.7797 27.8615C10.2817 29.4709 9.99969 31.139 9.94104 32.8223C9.93277 33.0563 9.92725 33.2931 9.92725 33.5299C9.93236 38.6392 11.9685 43.5377 15.5887 47.1506C19.2089 50.7634 24.1176 52.7953 29.2374 52.8004C29.6484 52.8004 30.0594 52.7867 30.4649 52.7619C31.4168 52.7023 32.3629 52.5716 33.2953 52.371C37.7475 51.4155 41.7182 48.9206 44.506 45.327C47.2938 41.7333 48.7194 37.2721 48.531 32.7313C48.3425 28.1905 46.5522 23.8622 43.4761 20.5109C40.4001 17.1597 36.2363 15.001 31.7201 14.4162H31.7201ZM35.2814 51.2533H35.2787C33.7235 51.7829 32.1048 52.1041 30.4649 52.2085C30.0594 52.2361 29.6484 52.2498 29.2374 52.2498C24.2642 52.2438 19.4964 50.2695 15.9799 46.7602C12.4633 43.2508 10.485 38.4928 10.4789 33.5299C10.4789 33.2931 10.4845 33.0563 10.4927 32.8223C10.6824 27.9857 12.7394 23.4096 16.2333 20.0522C19.7272 16.6948 24.387 14.8163 29.2374 14.8099C33.6815 14.8101 37.9812 16.3849 41.3704 19.2535C44.7597 22.1222 47.0183 26.0985 47.744 30.474C48.4697 34.8495 47.6152 39.34 45.3328 43.1454C43.0505 46.9509 39.4885 49.8241 35.2814 51.2533H35.2814Z" fill="#3F3D56"/>
<path d="M29.5132 15.9111H28.9614V19.7652H29.5132V15.9111Z" fill="#3F3D56"/>
<path d="M16.9487 20.8768L16.5586 21.2661L19.2895 23.9914L19.6796 23.6021L16.9487 20.8768Z" fill="#3F3D56"/>
<path d="M11.5825 33.2546V33.8052H15.4445V33.2546H11.5825Z" fill="#3F3D56"/>
<path d="M16.5586 45.7935L16.9487 46.1829L19.6796 43.4576L19.2895 43.0683L16.5586 45.7935Z" fill="#3F3D56"/>
<path d="M38.7954 23.6021L39.1855 23.9915L41.9164 21.2662L41.5263 20.8769L38.7954 23.6021Z" fill="#3F3D56"/>
<path d="M43.0303 33.2546V33.8052H46.8923V33.2546H43.0303Z" fill="#3F3D56"/>
<path d="M39.1855 43.0682L38.7954 43.4575L41.5263 46.1828L41.9164 45.7935L39.1855 43.0682Z" fill="#3F3D56"/>
<path d="M29.5132 47.2944H28.9614V51.1486H29.5132V47.2944Z" fill="#3F3D56"/>
<path d="M30.065 32.4286C29.8263 32.2499 29.5359 32.1533 29.2374 32.1533C28.939 32.1533 28.6486 32.2499 28.4099 32.4286C28.2464 32.5525 28.1118 32.7103 28.0154 32.8911C27.8932 33.1239 27.8403 33.3868 27.8631 33.6487C27.8858 33.9105 27.9832 34.1604 28.1437 34.3688C28.3042 34.5772 28.5211 34.7353 28.7688 34.8246C29.0165 34.9139 29.2847 34.9305 29.5415 34.8726C29.7984 34.8146 30.0333 34.6844 30.2185 34.4975C30.4036 34.3106 30.5312 34.0746 30.5863 33.8176C30.6413 33.5606 30.6215 33.2932 30.5291 33.0471C30.4368 32.8009 30.2757 32.5863 30.065 32.4286H30.065ZM29.2374 34.3557C29.0181 34.355 28.808 34.2678 28.653 34.1131C28.4979 33.9583 28.4105 33.7486 28.4099 33.5298C28.4109 33.3628 28.4618 33.1998 28.5561 33.0618C28.6369 32.945 28.7466 32.8509 28.8745 32.7888C29.0024 32.7266 29.1442 32.6985 29.2862 32.707C29.4282 32.7155 29.5656 32.7605 29.6851 32.8376C29.8046 32.9146 29.9021 33.0211 29.9683 33.1468C30.0345 33.2724 30.067 33.413 30.0628 33.5549C30.0586 33.6968 30.0178 33.8353 29.9443 33.9568C29.8708 34.0784 29.7672 34.1789 29.6433 34.2488C29.5195 34.3187 29.3797 34.3555 29.2374 34.3557V34.3557Z" fill="#3F3D56"/>
<path d="M31.7203 9.57935H26.7549V14.5346H31.7203V9.57935Z" fill="#3F3D56"/>
<path d="M29.2373 10.4051C32.8938 10.4051 35.8579 9.35745 35.8579 8.0651C35.8579 6.77275 32.8938 5.7251 29.2373 5.7251C25.5808 5.7251 22.6167 6.77275 22.6167 8.0651C22.6167 9.35745 25.5808 10.4051 29.2373 10.4051Z" fill="#3F3D56"/>
<path d="M30.0653 23.0686H28.4102V32.4286H30.0653V23.0686Z" fill="#3F3D56"/>
</svg>
