<svg width="94" height="95" viewBox="0 0 94 95" fill="none" xmlns="http://www.w3.org/2000/svg">
<circle cx="47" cy="47.5741" r="47" fill="#20D15B"/>
<path d="M29.625 60C28.7597 60 27.9138 59.7434 27.1944 59.2627C26.4749 58.7819 25.9142 58.0987 25.583 57.2992C25.2519 56.4998 25.1653 55.6201 25.3341 54.7715C25.5029 53.9228 25.9196 53.1433 26.5314 52.5314C27.1433 51.9196 27.9228 51.5029 28.7715 51.3341C29.6201 51.1653 30.4998 51.2519 31.2992 51.583C32.0987 51.9142 32.7819 52.4749 33.2627 53.1944C33.7434 53.9138 34 54.7597 34 55.625C33.9986 56.7849 33.5372 57.8969 32.7171 58.717C31.8969 59.5372 30.7849 59.9986 29.625 60ZM29.625 53C29.1058 53 28.5983 53.154 28.1666 53.4424C27.735 53.7308 27.3985 54.1408 27.1998 54.6205C27.0011 55.1001 26.9492 55.6279 27.0504 56.1371C27.1517 56.6463 27.4017 57.114 27.7688 57.4811C28.136 57.8483 28.6037 58.0983 29.1129 58.1996C29.6221 58.3008 30.1499 58.2489 30.6295 58.0502C31.1092 57.8515 31.5192 57.515 31.8076 57.0834C32.096 56.6517 32.25 56.1442 32.25 55.625C32.25 54.9288 31.9734 54.2611 31.4812 53.7688C30.9889 53.2766 30.3212 53 29.625 53Z" fill="white"/>
<path d="M32.5904 65.4889C34.714 62.5961 37.5 58.2964 37.5 55.625C37.5 53.5364 36.6703 51.5334 35.1935 50.0565C33.7166 48.5797 31.7136 47.75 29.625 47.75C27.5364 47.75 25.5334 48.5797 24.0565 50.0565C22.5797 51.5334 21.75 53.5364 21.75 55.625C21.75 58.2964 24.536 62.5961 26.6596 65.4889C24.1423 65.9036 21.75 66.9212 21.75 68.75C21.75 71.0478 25.7111 72.25 29.625 72.25C33.5389 72.25 37.5 71.0478 37.5 68.75C37.5 66.9212 35.1077 65.9036 32.5904 65.4889ZM29.625 49.5C31.2489 49.5019 32.8057 50.1478 33.954 51.296C35.1022 52.4443 35.7481 54.0011 35.75 55.625C35.75 58.2343 31.8029 63.745 29.625 66.4873C27.4471 63.745 23.5 58.2343 23.5 55.625C23.5019 54.0011 24.1478 52.4443 25.296 51.296C26.4443 50.1478 28.0011 49.5019 29.625 49.5ZM29.625 70.5C25.6464 70.5 23.5 69.2584 23.5 68.75C23.5 68.3825 24.8247 67.4016 27.875 67.0997C28.4 67.7717 28.799 68.2556 28.9495 68.4359C29.0316 68.5343 29.1344 68.6136 29.2505 68.6679C29.3666 68.7223 29.4933 68.7505 29.6215 68.7505C29.7497 68.7505 29.8764 68.7223 29.9925 68.6679C30.1086 68.6136 30.2114 68.5343 30.2935 68.4359C30.444 68.2556 30.8421 67.7717 31.368 67.0997C34.4218 67.4016 35.743 68.3825 35.743 68.75C35.75 69.2584 33.6036 70.5 29.625 70.5Z" fill="white"/>
<path d="M66.375 32C65.5097 32 64.6639 31.7434 63.9444 31.2627C63.2249 30.7819 62.6642 30.0987 62.333 29.2992C62.0019 28.4998 61.9153 27.6201 62.0841 26.7715C62.2529 25.9228 62.6696 25.1433 63.2814 24.5314C63.8933 23.9196 64.6728 23.5029 65.5215 23.3341C66.3702 23.1653 67.2498 23.2519 68.0493 23.583C68.8487 23.9142 69.532 24.4749 70.0127 25.1944C70.4934 25.9138 70.75 26.7597 70.75 27.625C70.7486 28.7849 70.2872 29.8969 69.4671 30.7171C68.6469 31.5372 67.5349 31.9986 66.375 32ZM66.375 25C65.8558 25 65.3483 25.154 64.9166 25.4424C64.485 25.7308 64.1485 26.1408 63.9498 26.6205C63.7511 27.1001 63.6992 27.6279 63.8004 28.1371C63.9017 28.6463 64.1517 29.114 64.5189 29.4812C64.886 29.8483 65.3537 30.0983 65.8629 30.1996C66.3721 30.3008 66.8999 30.2489 67.3796 30.0502C67.8592 29.8515 68.2692 29.5151 68.5576 29.0834C68.8461 28.6517 69 28.1442 69 27.625C69 26.9288 68.7234 26.2611 68.2312 25.7688C67.7389 25.2766 67.0712 25 66.375 25Z" fill="white"/>
<path d="M69.3404 37.4889C71.464 34.5961 74.25 30.2964 74.25 27.625C74.25 25.5364 73.4203 23.5334 71.9435 22.0565C70.4666 20.5797 68.4636 19.75 66.375 19.75C64.2864 19.75 62.2834 20.5797 60.8065 22.0565C59.3297 23.5334 58.5 25.5364 58.5 27.625C58.5 30.2964 61.286 34.5961 63.4096 37.4889C60.8923 37.9045 58.5 38.9221 58.5 40.75C58.5 43.0478 62.4611 44.25 66.375 44.25C70.2889 44.25 74.25 43.0478 74.25 40.75C74.25 38.9221 71.8577 37.9045 69.3404 37.4889ZM66.375 21.5C67.9989 21.5019 69.5557 22.1478 70.704 23.296C71.8522 24.4443 72.4981 26.0011 72.5 27.625C72.5 30.2343 68.552 35.745 66.375 38.4872C64.198 35.745 60.25 30.2343 60.25 27.625C60.2519 26.0011 60.8978 24.4443 62.046 23.296C63.1943 22.1478 64.7511 21.5019 66.375 21.5ZM66.375 42.5C62.3964 42.5 60.25 41.2584 60.25 40.75C60.25 40.3825 61.5747 39.4016 64.625 39.0998C65.15 39.7717 65.549 40.2556 65.6995 40.4359C65.7816 40.5343 65.8844 40.6136 66.0005 40.6679C66.1166 40.7223 66.2433 40.7505 66.3715 40.7505C66.4997 40.7505 66.6264 40.7223 66.7425 40.6679C66.8586 40.6136 66.9614 40.5343 67.0435 40.4359C67.194 40.2556 67.5921 39.7717 68.118 39.0998C71.1718 39.4016 72.493 40.3825 72.493 40.75C72.5 41.2584 70.3536 42.5 66.375 42.5Z" fill="white"/>
<path d="M64.625 67H39.25C39.0179 67 38.7954 66.9078 38.6313 66.7437C38.4672 66.5796 38.375 66.3571 38.375 66.125C38.375 65.8929 38.4672 65.6704 38.6313 65.5063C38.7954 65.3422 39.0179 65.25 39.25 65.25H64.625C66.7136 65.25 68.7166 64.4203 70.1935 62.9435C71.6703 61.4666 72.5 59.4636 72.5 57.375C72.5 55.2864 71.6703 53.2834 70.1935 51.8065C68.7166 50.3297 66.7136 49.5 64.625 49.5H41.875C39.3223 49.5 36.8741 48.4859 35.0691 46.6809C33.2641 44.8759 32.25 42.4277 32.25 39.875C32.25 37.3223 33.2641 34.8741 35.0691 33.0691C36.8741 31.2641 39.3223 30.25 41.875 30.25H56.75C56.9821 30.25 57.2046 30.3422 57.3687 30.5063C57.5328 30.6704 57.625 30.8929 57.625 31.125C57.625 31.3571 57.5328 31.5796 57.3687 31.7437C57.2046 31.9078 56.9821 32 56.75 32H41.875C39.7864 32 37.7834 32.8297 36.3065 34.3065C34.8297 35.7834 34 37.7864 34 39.875C34 41.9636 34.8297 43.9666 36.3065 45.4435C37.7834 46.9203 39.7864 47.75 41.875 47.75H64.625C67.1777 47.75 69.6259 48.7641 71.4309 50.5691C73.2359 52.3741 74.25 54.8223 74.25 57.375C74.25 59.9277 73.2359 62.3759 71.4309 64.1809C69.6259 65.9859 67.1777 67 64.625 67Z" fill="white"/>
</svg>
