<svg width="94" height="95" viewBox="0 0 94 95" fill="none" xmlns="http://www.w3.org/2000/svg">
<circle cx="47" cy="47.5741" r="47" fill="#20D15B"/>
<g clip-path="url(#clip0)">
<path d="M61.0195 41.6229C60.7513 40.9444 59.9838 40.6121 59.305 40.8801C58.6264 41.1484 58.294 41.9159 58.5621 42.5945C59.2336 44.2926 59.5739 46.0872 59.5739 47.9287C59.5739 55.9284 53.0657 62.4368 45.0658 62.4368C37.0654 62.4368 30.5563 55.9284 30.5563 47.9287C30.5563 39.929 37.0654 33.4207 45.0658 33.4207C46.9138 33.4207 48.7115 33.7631 50.409 34.4385C51.0868 34.7086 51.8552 34.3773 52.125 33.6995C52.3948 33.0215 52.0638 32.2532 51.3859 31.9835C49.3763 31.1837 47.2498 30.7783 45.0659 30.7783C35.6085 30.7783 27.9141 38.4718 27.9141 47.9286C27.9141 57.3854 35.6082 65.0791 45.0658 65.0791C54.5225 65.0791 62.2161 57.3855 62.2161 47.9287C62.2161 45.7532 61.8134 43.6317 61.0195 41.6229Z" fill="white"/>
<path d="M69.1647 41.0195C68.964 40.318 68.2331 39.9125 67.5311 40.1128C66.8296 40.3136 66.4237 41.045 66.6244 41.7464C67.1971 43.7482 67.4875 45.8283 67.4875 47.9285C67.4875 60.2927 57.4291 70.3519 45.0657 70.3519C32.7015 70.3519 22.6424 60.2928 22.6424 47.9285C22.6424 35.5642 32.7014 25.5053 45.0657 25.5053C47.1707 25.5053 49.2543 25.797 51.2583 26.3725C51.9597 26.5737 52.6914 26.1686 52.8927 25.4672C53.094 24.7657 52.6888 24.034 51.9874 23.8328C49.7464 23.1892 47.4175 22.8628 45.0657 22.8628C31.2444 22.8629 20 34.1074 20 47.9286C20 61.7499 31.2444 72.9944 45.0657 72.9944C58.8861 72.9944 70.1298 61.75 70.1298 47.9286C70.1298 45.5823 69.8051 43.2578 69.1647 41.0195Z" fill="white"/>
<path d="M54.2647 47.122C54.1999 46.3952 53.5578 45.8614 52.8313 45.9235C52.1045 45.9883 51.5678 46.6301 51.6328 47.3569C51.6495 47.545 51.6581 47.7374 51.6581 47.9287C51.6581 51.564 48.7006 54.5213 45.0655 54.5213C41.4294 54.5213 38.4713 51.5638 38.4713 47.9287C38.4715 44.2926 41.4295 41.3345 45.0656 41.3345C45.2687 41.3345 45.4676 41.3434 45.6569 41.3608C46.3841 41.4275 47.0268 40.8931 47.0939 40.1664C47.1608 39.4398 46.6261 38.7966 45.8995 38.7294C45.63 38.7046 45.3494 38.692 45.0657 38.692C39.9727 38.692 35.8291 42.8354 35.8291 47.9285C35.8291 53.0208 39.9727 57.1635 45.0657 57.1635C50.1579 57.1635 54.3007 53.0208 54.3007 47.9285C54.3006 47.6593 54.2885 47.3878 54.2647 47.122Z" fill="white"/>
<path d="M75.7975 25.8883C75.387 24.8971 74.4285 24.2566 73.3556 24.2566H68.7488V19.6499C68.7488 18.577 68.1083 17.6185 67.1172 17.208C66.1265 16.7977 64.9963 17.0226 64.2379 17.781L56.5405 25.4785C55.7922 26.2268 55.3801 27.2219 55.3801 28.2805V35.7568L44.6428 46.4942C44.1269 47.0101 44.1269 47.8467 44.6428 48.3627C44.9007 48.6206 45.2389 48.7497 45.577 48.7497C45.9151 48.7497 46.2532 48.6206 46.5111 48.3627L57.2486 37.6253H64.7249C65.7836 37.6253 66.7788 37.2132 67.5269 36.465L75.2244 28.7673C75.983 28.0088 76.2079 26.8789 75.7975 25.8883ZM58.0225 28.2804C58.0226 27.9277 58.1599 27.596 58.4091 27.347L66.1064 19.6507V25.0306L58.0224 33.1147V28.2804H58.0225ZM65.6586 34.5965C65.4131 34.8419 65.0727 34.9829 64.725 34.9829H59.8911L67.9749 26.8991L73.3553 26.8998L65.6586 34.5965Z" fill="white"/>
</g>
<defs>
<clipPath id="clip0">
<rect x="20" y="17" width="56" height="56" fill="white"/>
</clipPath>
</defs>
</svg>
