<svg width="319" height="266" viewBox="0 0 319 266" fill="none" xmlns="http://www.w3.org/2000/svg">
<g clip-path="url(#clip0)">
<path opacity="0.1" d="M226.718 265.997C244.716 265.997 259.307 264.558 259.307 262.783C259.307 261.008 244.716 259.569 226.718 259.569C208.719 259.569 194.129 261.008 194.129 262.783C194.129 264.558 208.719 265.997 226.718 265.997Z" fill="#27F26F"/>
<path opacity="0.1" d="M139.663 3.89097C154.016 -1.44632 171.489 3.14394 186.411 9.8386C233.276 30.8699 267.419 70.7931 294.546 111.467C304.367 126.194 313.697 141.57 317.389 158.011C324.907 191.475 305.298 226.118 271.95 238.258C260.61 242.391 248.15 244.085 235.672 245.029C213.483 246.711 190.51 246.043 168.499 239.816C152.802 235.365 137.953 228.207 123.711 220.298C83.9381 198.198 47.6156 169.5 21.4612 134.443C9.99027 119.067 0.28605 101.733 0.00642649 83.9917C-0.273197 66.2505 11.2835 48.4235 30.298 45.4068C38.1592 44.1607 46.4748 45.4576 54.5871 46.7928C66.5315 48.7605 78.6379 50.8299 90.4457 49.9716C102.644 49.0784 118.51 44.3101 120.734 32.6596C123.089 20.1508 125.329 9.22191 139.663 3.89097Z" fill="#27F26F"/>
<path d="M77.5387 244.393C77.5387 244.393 92.8736 243.468 91.0655 254.219C91.0655 254.219 91.4246 256.126 89.7024 256.982C89.7024 256.982 89.6769 256.184 88.1295 256.454C87.5798 256.548 87.0208 256.576 86.4644 256.536C85.7121 256.484 84.9971 256.189 84.4276 255.694C84.4276 255.694 80.1157 253.914 78.4411 246.863C78.4411 246.863 77.1987 245.328 77.2496 244.93L79.8361 246.037C79.8361 246.037 78.9527 247.906 79.6486 249.457C79.6486 249.457 79.7312 246.107 80.2301 246.183C80.3286 246.199 81.5742 246.819 81.5742 246.819C81.5742 246.819 80.0522 250.071 81.1993 252.436C81.1993 252.436 80.7639 248.427 82.0477 247.054L83.8716 248.119C83.8716 248.119 82.0921 251.479 83.2996 254.219C83.2996 254.219 82.9819 250.013 84.2529 248.376L85.9052 249.648C85.9052 249.648 84.2338 252.96 85.2538 255.236C85.2538 255.236 85.3841 250.338 86.2611 249.969C86.2611 249.969 87.7069 251.24 87.9261 251.768C87.9261 251.768 86.7822 254.171 87.4908 255.44C87.4908 255.44 87.9261 252.178 88.2852 252.162C88.2852 252.162 89.7214 254.324 89.874 255.805C89.874 255.805 89.8104 253.602 88.6315 251.956C88.6315 251.956 90.0233 252.194 90.8367 253.097C90.8367 253.097 90.6111 251.568 88.2788 251.434C88.2788 251.434 87.0904 249.797 86.7695 249.696C86.7695 249.696 89.0923 249.502 90.4999 250.128C90.4999 250.128 89.2607 248.685 86.3437 249.34L84.7136 248.011C84.7136 248.011 87.7736 247.591 89.0669 248.055C89.0669 248.055 87.5766 246.784 84.2751 247.709L82.502 246.647C82.502 246.647 85.1076 246.084 86.6614 246.288C86.6614 246.288 85.0218 245.404 81.9809 246.361L80.7099 245.792C80.7099 245.792 82.6164 245.417 83.1789 245.356C83.7413 245.296 83.7667 245.143 83.7667 245.143C82.5572 244.941 81.3151 245.078 80.1793 245.541C80.1793 245.541 77.4911 244.578 77.5387 244.393Z" fill="#27F26F"/>
<path opacity="0.1" d="M88.1006 259.754C94.0954 259.754 98.9551 258.932 98.9551 257.919C98.9551 256.906 94.0954 256.085 88.1006 256.085C82.1058 256.085 77.2461 256.906 77.2461 257.919C77.2461 258.932 82.1058 259.754 88.1006 259.754Z" fill="#27F26F"/>
<path d="M56.9957 237.161C56.9957 237.161 65.6419 236.64 64.6219 242.702C64.6757 243.009 64.6306 243.326 64.4929 243.606C64.3553 243.886 64.1323 244.115 63.8561 244.26C63.8561 244.26 63.8402 243.812 62.9695 243.964C62.6601 244.017 62.3453 244.032 62.0322 244.009C61.6069 243.982 61.2024 243.816 60.8819 243.535C60.8819 243.535 58.4542 242.527 57.501 238.554C57.501 238.554 56.8019 237.686 56.8273 237.463L58.289 238.099C58.289 238.099 57.7901 239.155 58.181 240.029C58.181 240.029 58.2286 238.137 58.4987 238.182C58.5559 238.182 59.2582 238.547 59.2582 238.547C59.2582 238.547 58.4002 240.382 59.0484 241.726C59.0484 241.726 58.8006 239.466 59.5251 238.69L60.5514 239.291C60.5514 239.291 59.5505 241.199 60.2337 242.731C60.2337 242.731 60.0589 240.359 60.7707 239.437L61.7017 240.162C61.7017 240.162 60.7484 242.028 61.3363 243.312C61.3363 243.312 61.4094 240.55 61.9051 240.343C61.9051 240.343 62.7185 241.062 62.8424 241.357C62.8424 241.357 62.2069 242.712 62.5978 243.427C62.5978 243.427 62.8424 241.59 63.0458 241.58C63.0458 241.58 63.8561 242.797 63.9387 243.634C63.8982 242.861 63.6572 242.113 63.2396 241.462C63.7071 241.548 64.1391 241.769 64.4821 242.098C64.4821 242.098 64.3581 241.237 63.0394 241.16C63.0394 241.16 62.369 240.235 62.191 240.181C62.191 240.181 63.5002 240.07 64.2946 240.423C64.2946 240.423 63.5955 239.609 61.9495 239.978L61.0312 239.228C61.0312 239.228 62.7566 238.992 63.4875 239.253C63.4875 239.253 62.6454 238.535 60.7834 239.059L59.7856 238.458C60.5543 238.29 61.3415 238.223 62.1275 238.258C62.1275 238.258 61.206 237.759 59.4901 238.299L58.7752 237.982C58.7752 237.982 59.8524 237.769 60.1669 237.737C60.4815 237.705 60.5006 237.616 60.5006 237.616C59.818 237.503 59.1174 237.581 58.4765 237.842C58.4765 237.842 56.9703 237.266 56.9957 237.161Z" fill="#27F26F"/>
<path opacity="0.1" d="M62.95 245.821C66.33 245.821 69.07 245.357 69.07 244.784C69.07 244.212 66.33 243.748 62.95 243.748C59.5701 243.748 56.8301 244.212 56.8301 244.784C56.8301 245.357 59.5701 245.821 62.95 245.821Z" fill="#27F26F"/>
<path d="M269.703 242.988C269.703 242.988 280.142 242.353 278.918 249.664C278.981 250.035 278.925 250.417 278.758 250.755C278.592 251.093 278.323 251.369 277.99 251.546C277.99 251.546 277.971 251.002 276.92 251.187C276.545 251.25 276.164 251.268 275.785 251.241C275.273 251.207 274.786 251.006 274.4 250.668C274.4 250.668 271.464 249.457 270.323 244.657C270.323 244.657 269.478 243.611 269.513 243.344L271.273 244.095C271.273 244.095 270.673 245.366 271.146 246.425C271.146 246.425 271.203 244.142 271.54 244.199C271.61 244.199 272.455 244.638 272.455 244.638C272.455 244.638 271.419 246.863 272.201 248.453C272.201 248.453 271.905 245.725 272.779 244.791L274.019 245.512C274.019 245.512 272.808 247.801 273.631 249.667C273.631 249.667 273.418 246.806 274.266 245.69L275.391 246.568C275.391 246.568 274.254 248.822 274.946 250.382C274.946 250.382 275.039 247.051 275.636 246.797C275.636 246.797 276.618 247.664 276.767 248.02C276.767 248.02 275.989 249.658 276.472 250.522C276.472 250.522 276.767 248.297 277.012 248.297C277.012 248.297 277.99 249.769 278.092 250.777C278.045 249.845 277.755 248.942 277.25 248.157C277.815 248.264 278.336 248.534 278.75 248.933C278.75 248.933 278.597 247.893 277.005 247.801C277.005 247.801 276.198 246.685 275.982 246.619C275.982 246.619 277.571 246.485 278.524 246.911C278.524 246.911 277.679 245.932 275.693 246.377L274.584 245.471C274.584 245.471 276.665 245.185 277.549 245.5C277.549 245.5 276.532 244.632 274.285 245.264L273.078 244.543C273.078 244.543 274.851 244.161 275.909 244.298C275.909 244.298 274.794 243.697 272.732 244.349L271.867 243.961C271.867 243.961 273.167 243.704 273.548 243.665C273.93 243.627 273.949 243.519 273.949 243.519C273.126 243.382 272.281 243.475 271.508 243.789C271.508 243.789 269.672 243.109 269.703 242.988Z" fill="#27F26F"/>
<path opacity="0.1" d="M276.891 253.447C280.971 253.447 284.279 252.887 284.279 252.198C284.279 251.508 280.971 250.948 276.891 250.948C272.811 250.948 269.503 251.508 269.503 252.198C269.503 252.887 272.811 253.447 276.891 253.447Z" fill="#27F26F"/>
<path d="M259.304 165.815C259.103 164.696 258.988 163.563 258.957 162.427C258.957 161.063 257.105 159.855 257.105 159.855C257.105 159.855 255.961 157.207 255.198 156.816C254.436 156.425 252.081 152.96 252.081 152.96C252.054 152.276 251.805 151.62 251.372 151.091C250.667 150.163 250.023 149.19 249.444 148.179C249.126 147.791 249.285 147.518 248.808 145.258C248.783 145.14 248.754 145.026 248.719 144.917C248.719 144.867 248.687 144.822 248.668 144.771C249.174 144.264 249.527 143.624 249.686 142.925C249.845 142.226 249.804 141.497 249.568 140.82C249.482 140.551 249.326 140.309 249.116 140.121C248.579 139.682 247.721 139.863 247.169 139.447L247.756 136.846C247.896 136.211 247.969 135.406 247.413 135.063C247.205 134.964 246.985 134.89 246.759 134.844C245.805 134.526 245.252 133.518 245.005 132.549C244.766 131.615 244.702 130.645 244.814 129.688C244.922 128.766 245.192 127.869 245.291 126.944C245.47 125.233 245.058 123.512 244.124 122.068C243.761 121.444 243.226 120.939 242.583 120.612C241.995 120.348 241.312 120.294 240.763 119.976C239.581 119.223 239.641 117.433 238.697 116.406C237.753 115.38 236.082 115.383 234.706 115.736C233.33 116.088 231.961 116.689 230.55 116.54C229.641 116.438 228.79 116.025 227.878 115.929C227.617 115.905 227.354 115.916 227.096 115.964V115.936C226.422 116.057 225.803 116.432 225.644 117.071C225.608 117.223 225.593 117.379 225.599 117.535C225.599 117.907 225.688 118.295 225.695 118.651C225.706 118.792 225.69 118.934 225.645 119.069C225.601 119.204 225.53 119.329 225.437 119.436C225.256 119.63 224.989 119.731 224.802 119.932C224.725 120.008 224.665 120.1 224.625 120.2C224.586 120.301 224.567 120.408 224.57 120.517C224.57 121.082 225.275 121.581 225.749 121.81H225.768C225.641 121.938 225.514 122.071 225.396 122.208C224.039 123.741 223.29 125.719 223.292 127.768C223.304 129.422 223.799 131.037 224.715 132.414C225.632 133.791 226.931 134.869 228.453 135.518L228.386 135.724C228.252 136.133 228.096 136.534 227.919 136.926C227.59 136.815 227.241 136.778 226.897 136.816C226.552 136.855 226.22 136.968 225.923 137.148C225.015 137.784 223.238 137.733 222.765 137.616C222.292 137.498 217.363 136.875 216.966 137.031C216.569 137.186 215.784 136.487 215.272 137.422C214.761 138.356 214.522 138.862 214.001 139.097C213.48 139.332 212.581 140.07 212.702 140.225C212.822 140.381 211.399 141.316 211.399 141.316C211.399 141.316 210.176 142.587 209.467 142.756C208.758 142.924 207.259 143.887 207.259 143.887L205.52 145.248C205.52 145.248 204.221 145.445 204.615 144.549C205.009 143.652 203.903 142.524 203.903 142.524C203.903 142.524 201.695 138.045 201.695 137.12C201.695 136.195 199.88 132.25 199.88 132.25L199.658 132.227L199.556 131.938C199.223 131 198.79 129.85 198.46 129.176C197.824 127.888 197.434 127.755 197.434 127.755C197.434 127.755 189.782 122.007 184.812 123.759C179.843 125.511 193.884 130.73 195.146 131.277C195.587 131.468 195.905 132.084 196.128 132.806C195.008 133.346 194.066 134.194 193.411 135.251C193.411 135.251 196.449 141.987 196.528 143.662C196.607 145.337 198.619 150.019 198.619 150.019C198.619 150.019 199.369 153.488 203.43 153.291C203.43 153.291 209.032 154.32 210.255 153.291C211.478 152.261 212.581 151.453 213.175 151.336C213.612 151.192 213.996 150.921 214.278 150.557C214.278 150.557 212.425 162.239 211.516 163.253C210.608 164.267 202.578 177.383 205.46 179.729C207.743 181.497 210.155 183.091 212.676 184.497C212.921 184.618 213.655 183.394 214.704 182.526C214.704 182.746 214.704 182.968 214.704 183.204C214.723 187.87 215.339 194.965 216.191 196.555C217.462 198.891 216.941 203.408 216.941 203.408C217.609 203.723 218.334 203.897 219.073 203.92C219.111 204.073 219.155 204.238 219.197 204.397C219.892 207.026 221.02 211.092 221.596 212.172C222.463 213.81 223.092 218.991 223.092 218.991C223.092 218.991 223.607 224.077 223.41 224.792C223.334 225.063 223.667 227.18 224.192 229.879C223.874 233.531 223.27 240.572 223.169 243.119C223.169 243.166 223.169 243.214 223.169 243.258V243.303C223.17 243.331 223.17 243.36 223.169 243.389C223.169 243.446 223.169 243.497 223.169 243.544C223.159 243.705 223.165 243.866 223.188 244.025C223.227 244.267 223.208 244.515 223.134 244.749C222.909 245.453 222.623 246.136 222.279 246.79C222.134 247.111 222.007 247.44 221.897 247.776C221.58 247.915 221.192 248.256 220.976 249.085C220.582 250.605 219.991 254.807 219.991 254.807C219.991 254.807 219.753 257.379 219.282 257.964C218.812 258.549 218.329 262.208 221.688 262.675C225.046 263.142 226.499 260.895 226.499 260.895L226.381 250.697V250.678C226.449 250.592 226.507 250.499 226.556 250.401V250.376C226.578 250.328 226.603 250.277 226.626 250.22L226.654 250.144L226.705 250.02C226.703 250.005 226.703 249.99 226.705 249.975C227.031 248.999 227.129 247.96 226.991 246.939V246.889V246.809C226.991 246.784 226.991 246.755 226.991 246.73V246.571C226.991 246.552 226.991 246.529 226.991 246.51C226.991 246.443 226.997 246.373 227.01 246.301C227.01 246.301 227.01 246.275 227.01 246.262L227.029 246.138V246.084C227.029 246.043 227.029 246.002 227.055 245.957C227.053 245.947 227.053 245.936 227.055 245.925C227.086 245.779 227.125 245.608 227.166 245.468V245.433L227.214 245.28C227.261 245.118 227.315 244.962 227.372 244.791V244.759C227.372 244.708 227.407 244.657 227.426 244.609V244.59C227.484 244.435 227.544 244.272 227.601 244.139L227.617 244.098L227.668 243.97L227.684 243.932L227.805 243.649L228.736 246.526C228.736 246.526 229.25 248.669 228.974 249.174C228.697 249.68 229.292 251.784 229.682 251.822L229.317 254.47C229.12 255.93 229.002 257.4 228.964 258.873C228.939 259.041 228.914 259.191 228.894 259.293C228.64 260.65 229.25 262.754 229.25 262.754C232.364 266.439 236.076 263.04 236.076 263.04C236.076 263.04 236.508 261.092 236.076 260.704C235.644 260.316 235.837 258.911 235.837 258.911C235.837 258.911 236.034 255.443 236.073 252.913C236.111 250.382 234.004 248.144 234.004 248.144L233.886 248.249C233.502 247.257 233.063 246.1 233.156 245.582C233.314 244.686 232.72 235.222 232.72 235.222C232.94 232.685 232.986 230.136 232.86 227.593C232.911 227.164 232.959 226.741 233.006 226.321C233.245 224.287 233.438 222.548 233.515 221.636V221.528C233.534 221.283 233.543 221.108 233.54 221.025C233.54 220.708 233.54 220.345 233.572 219.948C233.645 218.854 233.816 217.637 233.816 217.637L234.643 212.611C234.643 212.611 235.278 210.157 236.184 208.796L236.292 208.625C236.327 208.564 236.362 208.498 236.4 208.428L236.416 208.399C236.451 208.332 236.489 208.262 236.524 208.189L236.54 208.161C236.667 207.91 236.803 207.62 236.946 207.302C236.946 207.277 236.969 207.255 236.978 207.229L237.086 206.988C237.086 206.956 237.112 206.924 237.127 206.892C237.143 206.861 237.194 206.73 237.229 206.651C237.245 206.619 237.259 206.586 237.27 206.552C237.312 206.457 237.356 206.358 237.398 206.257L237.458 206.11C237.487 206.037 237.518 205.964 237.55 205.891L237.626 205.697C237.649 205.649 237.668 205.602 237.687 205.554L237.773 205.335C237.773 205.303 237.801 205.268 237.814 205.236C238.039 204.673 238.256 204.117 238.449 203.612C238.51 203.453 238.57 203.294 238.624 203.154C240.645 203.278 242.018 203.389 242.018 203.389C242.018 203.389 242.653 198.834 242.45 195.836C242.316 193.789 242.698 191.214 242.949 189.796C242.977 189.641 243.003 189.501 243.028 189.374L243.082 189.418C244.07 190.197 244.779 187.625 244.779 187.625C244.779 187.625 244.512 185.225 244.143 182.317L244.105 182.027C244.675 182.149 245.251 182.237 245.831 182.291C245.831 182.291 246.149 182.263 246.584 182.209C247.788 182.906 249.059 183.481 250.378 183.925L252.478 180.047C252.873 179.243 253.335 178.474 253.86 177.749C254.496 176.97 256.739 174.478 256.701 174.01C256.663 173.543 257.451 170.854 258.239 169.646C259.027 168.438 259.342 166.009 259.304 165.815ZM250.546 168.775C249.717 169.124 248.929 171.073 248.891 171.658C248.853 172.243 247.982 174.811 247.076 175.123C246.241 175.409 244.646 176.878 244.391 177.113C244.131 177.135 243.835 177.17 243.527 177.221C243.181 174.764 242.838 172.729 242.618 172.319C241.983 171.149 243.314 167.411 243.314 167.411C243.314 167.411 243.444 163.635 244.267 162.738C245.09 161.842 244.903 159.581 244.903 159.581C244.903 159.581 245.1 158.647 245.179 158.221C245.259 157.795 246.352 158.221 246.361 158.221C246.361 158.221 248.49 159.388 248.808 161.139C249.126 162.891 251.452 165.93 251.452 165.93C251.452 165.93 251.096 166.982 251.452 167.519C251.808 168.056 251.376 168.425 250.546 168.775Z" fill="url(#paint0_linear)"/>
<path d="M193.5 135.489C194.147 134.42 195.096 133.566 196.226 133.034C197.356 132.501 198.618 132.313 199.855 132.495V137.044H197.093L194.933 136.497L193.5 135.489Z" fill="#4C4981"/>
<path opacity="0.1" d="M193.5 135.489C194.147 134.42 195.096 133.566 196.226 133.034C197.356 132.501 198.618 132.313 199.855 132.495V137.044H197.093L194.933 136.497L193.5 135.489Z" fill="black"/>
<path d="M200.061 133.7L196.677 136.071C196.677 136.071 196.649 135.597 196.563 134.949C196.394 133.722 196.016 131.881 195.2 131.525C193.957 130.978 180.125 125.771 185.032 124.02C189.938 122.268 197.465 128.009 197.465 128.009C197.465 128.009 197.853 128.143 198.473 129.424C198.79 130.098 199.226 131.245 199.553 132.183C199.855 133.029 200.061 133.7 200.061 133.7Z" fill="#AE6E79"/>
<path d="M227.096 137.352L227.48 137.171L228.56 138.404L227.677 140.289L226.171 139.685L226.52 138.178L227.096 137.352Z" fill="#4C4981"/>
<path d="M221.977 247.757C221.977 247.757 221.005 247.642 220.617 249.158C220.229 250.675 219.645 254.88 219.645 254.88C219.645 254.88 219.413 257.446 218.946 258.031C218.479 258.616 218.015 262.268 221.316 262.732C224.618 263.196 226.057 260.955 226.057 260.955L225.939 250.761L221.977 247.757Z" fill="#444053"/>
<path d="M233.499 248.214C233.499 248.214 235.577 250.44 235.539 252.964C235.501 255.488 235.304 258.949 235.304 258.949C235.304 258.949 235.113 260.351 235.539 260.739C235.964 261.127 235.539 263.072 235.539 263.072C235.539 263.072 231.885 266.464 228.815 262.786C228.815 262.786 228.218 260.685 228.465 259.331C228.713 257.977 229.406 251.889 229.406 251.889L233.499 248.214Z" fill="#444053"/>
<path d="M238.647 201.73C238.647 201.73 236.549 207.598 235.653 208.959C234.757 210.319 234.141 212.773 234.141 212.773L233.324 217.786C233.165 218.907 233.074 220.037 233.051 221.169C233.089 222.297 231.03 238.738 231.03 238.738L227.767 242.899C227.767 242.899 226.33 245.814 226.562 247.032C226.794 248.249 226.407 250.182 225.927 250.764C225.927 250.764 225.851 254.578 225.733 255.427C225.616 256.276 226.162 258.695 225.733 259.121C225.304 259.547 219.594 259.356 219.438 258.654C219.283 257.951 220.137 254.572 220.137 254.572L220.643 251.307C220.643 251.307 221.653 249.521 221.421 248.936C221.189 248.351 221.847 246.994 221.885 246.876C221.923 246.758 222.975 244.854 222.781 244.117C222.587 243.379 224.005 227.695 224.005 227.695L228.005 199.591L238.647 201.73Z" fill="#AE6E79"/>
<path opacity="0.1" d="M238.647 201.73C238.647 201.73 238.329 202.614 237.894 203.774C237.201 205.605 236.203 208.126 235.653 208.959C234.76 210.319 234.138 212.773 234.138 212.773L233.321 217.79C233.163 218.91 233.073 220.04 233.051 221.172C233.051 221.617 232.752 224.456 232.371 227.727C231.783 232.727 231.03 238.741 231.03 238.741L227.767 242.902C227.767 242.902 227.601 243.22 227.395 243.723C226.985 244.676 226.407 246.224 226.562 247.022C226.794 248.227 226.407 250.169 225.927 250.754C225.927 250.754 225.847 254.569 225.733 255.418C225.619 256.266 226.162 258.682 225.733 259.111C225.304 259.541 219.594 259.347 219.438 258.647C219.283 257.948 220.137 254.566 220.137 254.566L220.643 251.298C220.643 251.298 221.653 249.511 221.418 248.926C221.183 248.341 221.847 246.984 221.885 246.867C221.923 246.749 222.975 244.845 222.781 244.107C222.632 243.545 223.417 234.335 223.782 229.968C223.906 228.594 223.985 227.701 223.985 227.701L227.427 203.523L227.706 201.574L227.986 199.597L238.647 201.73Z" fill="black"/>
<path d="M235.151 260.192C235.186 260.621 229.67 261.244 228.882 260.777C228.094 260.31 228.882 254.518 228.882 254.518L229.241 251.876C228.856 251.835 228.272 249.737 228.542 249.232C228.812 248.726 228.31 246.59 228.31 246.59L227.395 243.729L226.835 241.977C225.927 239.972 224.611 234.25 223.795 229.977C223.28 227.294 222.952 225.18 223.026 224.91C223.219 224.211 222.708 219.118 222.708 219.118C222.708 219.118 222.072 213.946 221.233 212.316C220.665 211.235 219.556 207.175 218.869 204.556C218.52 203.211 218.278 202.245 218.278 202.245C218.278 202.245 224.15 201.752 227.712 201.581C229.349 201.501 230.499 201.492 230.366 201.625C230.232 201.759 230.197 202.471 230.204 203.501C230.22 206.168 230.591 210.86 230.985 212.122C231.529 213.87 232.072 219.115 231.84 219.624C231.608 220.132 231.684 223.512 231.684 223.512C232.085 224.884 232.315 226.301 232.371 227.73C232.495 230.261 232.45 232.798 232.237 235.324C232.237 235.324 232.819 244.772 232.663 245.665C232.507 246.558 233.905 249.359 233.905 249.902C233.905 250.446 234.293 254.14 234.293 254.14C234.293 254.14 235.126 259.766 235.151 260.192Z" fill="#AE6E79"/>
<path d="M238.217 146.644L237.55 147.365L237.115 147.836L234.573 150.57L228.005 151.31L224.509 150.376L223.645 150.144C223.645 150.144 223.645 148.389 223.801 146.285C224.023 143.586 224.554 140.308 225.822 139.415C226.457 138.918 226.963 138.276 227.299 137.543C227.553 137.037 227.765 136.512 227.935 135.972C227.96 135.902 227.979 135.836 228.001 135.766C228.287 134.824 228.494 133.859 228.618 132.882C228.618 132.882 229.457 132.418 230.623 131.878C233.664 130.457 238.916 128.496 237.089 132.882C236.821 133.525 236.591 134.183 236.403 134.853C236.374 134.952 236.349 135.05 236.327 135.146C235.717 137.587 236.12 139.069 236.574 139.885C236.651 140.027 236.739 140.162 236.838 140.289C236.962 140.46 237.111 140.611 237.28 140.737L238.036 145.541L238.1 145.938L238.217 146.644Z" fill="#AE6E79"/>
<path opacity="0.1" d="M237.092 133.118C236.746 133.95 237.261 132.437 237.092 133.118C235.707 134.103 232.444 136.91 230.61 136.91C229.371 136.91 228.999 136.684 227.938 136.204C228.259 135.198 228.488 134.165 228.621 133.118C228.621 133.118 239.619 127.052 237.092 133.118Z" fill="black"/>
<path d="M239.892 128.009C239.89 130.103 239.115 132.122 237.714 133.677C236.314 135.233 234.388 136.216 232.307 136.436C232.015 136.465 231.719 136.484 231.421 136.484C229.745 136.484 228.107 135.987 226.714 135.056C225.321 134.125 224.235 132.801 223.594 131.252C222.953 129.704 222.785 128 223.112 126.356C223.439 124.712 224.246 123.202 225.43 122.017C226.615 120.831 228.125 120.024 229.768 119.697C231.411 119.37 233.114 119.538 234.662 120.18C236.21 120.821 237.533 121.907 238.464 123.301C239.395 124.695 239.892 126.333 239.892 128.009Z" fill="#AE6E79"/>
<path opacity="0.1" d="M241.096 165.577L239.889 168.727C239.889 168.727 238.907 168.769 237.375 168.816C232.205 168.982 220.814 169.191 220.305 167.863C220.191 167.526 220.131 167.173 220.127 166.817C220.061 164.792 221.004 161.683 221.004 161.683C221.004 161.683 221.548 155.462 221.548 155.192C221.548 154.922 221.081 150.563 221.081 150.563L222.015 147.067L224.617 145.239C224.617 145.239 225.783 147.028 226.482 147.181C227.182 147.334 228.116 148.195 228.116 148.195C228.116 148.195 230.407 149.594 231.147 148.815C231.888 148.036 237.636 144.616 237.636 144.616L240.667 147.96L241.096 165.577Z" fill="black"/>
<path d="M241.096 166.06L239.889 169.207C239.889 169.207 238.907 169.252 237.375 169.299H237.226C236.565 169.321 235.809 169.344 235.002 169.36C230.893 169.455 225.234 169.48 222.276 169.042C221.164 168.883 220.436 168.654 220.315 168.342C220.248 168.155 220.201 167.961 220.175 167.764C220.156 167.618 220.144 167.446 220.137 167.297C220.07 165.272 221.014 162.163 221.014 162.163C221.014 162.163 221.558 155.942 221.558 155.671C221.558 155.401 221.09 151.043 221.09 151.043L222.025 147.546L223.814 146.294L224.627 145.722C224.901 146.131 225.199 146.524 225.52 146.898C225.771 147.235 226.106 147.499 226.492 147.664C227.194 147.82 228.125 148.678 228.125 148.678C228.125 148.678 230.417 150.077 231.157 149.298C231.719 148.703 235.215 146.564 236.829 145.588C237.324 145.286 237.645 145.099 237.645 145.099L238.052 145.55L240.677 148.443L241.096 166.06Z" fill="white"/>
<path opacity="0.1" d="M200.061 133.699L196.677 136.071C196.677 136.071 196.649 135.597 196.563 134.949C198.234 134.243 199.251 132.682 199.544 132.183C199.855 133.029 200.061 133.699 200.061 133.699Z" fill="black"/>
<path d="M211.951 141.748L211.214 141.551C211.214 141.551 210.007 142.823 209.308 142.991C208.609 143.16 207.134 144.117 207.134 144.117L205.422 145.477C205.422 145.477 204.151 145.674 204.529 144.778C204.907 143.881 203.83 142.756 203.83 142.756C203.83 142.756 201.653 138.286 201.653 137.352C201.653 136.417 199.855 132.495 199.855 132.495C199.855 132.495 197.599 136.888 193.48 135.489C193.48 135.489 196.474 142.212 196.55 143.884C196.626 145.557 198.609 150.22 198.609 150.22C198.609 150.22 199.349 153.682 203.35 153.488C203.35 153.488 208.869 154.515 210.074 153.488C211.278 152.461 212.365 151.654 212.933 151.536C213.502 151.418 214.02 150.76 214.02 150.76V146.138L211.951 141.748Z" fill="#4C4981"/>
<path opacity="0.1" d="M205.035 146.138C205.035 146.138 206.007 149.756 205.384 150.144L205.035 146.138Z" fill="black"/>
<path opacity="0.1" d="M237.376 169.283C232.206 169.449 220.814 169.655 220.306 168.33C220.192 167.993 220.132 167.64 220.128 167.284L237.017 168.174L237.376 169.283Z" fill="black"/>
<path opacity="0.1" d="M238.646 201.73C238.646 201.73 238.329 202.614 237.893 203.774C235.748 203.644 232.908 203.507 230.21 203.488C229.257 203.488 228.323 203.488 227.439 203.52C225.564 203.577 223.944 203.729 222.911 204.022C221.605 204.424 220.241 204.6 218.876 204.543C218.526 203.199 218.285 202.232 218.285 202.232C218.285 202.232 224.157 201.739 227.719 201.568L227.998 199.591L238.646 201.73Z" fill="black"/>
<path d="M243.193 187.501L242.532 188.9C242.532 188.9 242.44 189.316 242.323 189.978C242.075 191.402 241.687 193.97 241.833 196.017C242.027 199.012 241.404 203.558 241.404 203.558C241.404 203.558 227.105 202.353 222.911 203.558C218.717 204.762 216.651 203.558 216.651 203.558C216.651 203.558 217.16 199.05 215.914 196.717C215.066 195.127 214.468 188.032 214.449 183.366C214.449 181.213 214.557 179.583 214.827 179.252C215.682 178.203 219.333 167.707 219.333 167.707L220.166 167.751L222.39 167.869L235.037 168.536L237.022 168.641L237.232 169.277L243.193 187.501Z" fill="#444053"/>
<path d="M249.488 182.835L249.606 184.081C249.606 184.081 243.343 182.04 243.661 179.532C243.978 177.024 243.661 177.307 243.661 177.307L248.694 177.733L249.488 182.835Z" fill="#4C4981"/>
<path opacity="0.1" d="M249.488 182.835L249.606 184.081C249.606 184.081 243.343 182.04 243.661 179.532C243.978 177.024 243.661 177.307 243.661 177.307L248.694 177.733L249.488 182.835Z" fill="black"/>
<path opacity="0.1" d="M209.213 147.143C209.852 147.686 210.606 148.079 211.418 148.29C211.183 148.239 210.964 148.13 210.782 147.972C210.334 147.655 209.909 147.308 209.477 146.971C209.127 146.698 208.692 146.243 208.263 146.132C208.544 146.501 208.862 146.84 209.213 147.143Z" fill="black"/>
<path opacity="0.1" d="M209.308 148.78C209.509 149.007 209.672 149.266 209.791 149.546C209.991 150.337 209.979 151.167 209.756 151.952L208.752 149.53C208.577 149.117 208.402 148.703 208.193 148.309C208.1 148.141 207.522 147.438 207.589 147.292C207.767 146.879 209.12 148.548 209.308 148.78Z" fill="black"/>
<path opacity="0.1" d="M237.324 162.194C238.009 162.112 238.649 161.812 239.151 161.339C238.118 161.47 237.14 161.877 236.123 162.09C235.179 162.309 234.189 162.218 233.301 161.829C234.471 162.401 236.078 162.42 237.324 162.194Z" fill="black"/>
<path opacity="0.1" d="M234.404 155.077C234.219 155.105 234.031 155.058 233.88 154.947C233.105 154.502 232.34 154.038 231.586 153.554C230.852 153.081 229.965 152.601 229.339 152.003C230.88 153.396 232.317 154.572 234.404 155.077Z" fill="black"/>
<path opacity="0.1" d="M236.559 163.323C236.966 163.341 237.374 163.308 237.773 163.224C238.176 163.14 238.533 162.906 238.77 162.57C238.626 162.536 238.475 162.56 238.348 162.636C237.117 163.155 235.765 163.317 234.446 163.104C235.078 163.374 235.888 163.32 236.559 163.323Z" fill="black"/>
<path opacity="0.1" d="M229.199 181.373C228.39 181.617 227.559 181.78 226.718 181.859C226.063 181.889 225.407 181.876 224.754 181.821L221.576 181.621L219.988 181.519C219.8 181.519 219.034 181.519 219.413 181.141C219.603 180.956 220.665 181.074 220.938 181.064C221.465 181.047 221.995 181.038 222.527 181.036C223.578 181.036 224.633 181.036 225.685 181.099C226.864 181.156 228.024 181.245 229.199 181.373Z" fill="black"/>
<path opacity="0.1" d="M225.517 182.946C224.976 182.924 224.281 183.245 223.724 183.315C223.102 183.388 222.476 183.413 221.85 183.388C220.611 183.358 219.388 183.108 218.237 182.65C220.661 182.774 223.092 182.847 225.517 182.946Z" fill="black"/>
<path opacity="0.1" d="M218.71 184.612C218.945 184.659 219.177 184.723 219.403 184.803C220.744 185.184 222.171 184.847 223.534 184.51C223.194 185.022 222.581 185.241 221.967 185.381C220.97 185.634 219.93 185.672 218.917 185.493C218.599 185.429 217.802 185.315 217.646 184.984C217.385 184.498 218.412 184.564 218.71 184.612Z" fill="black"/>
<path opacity="0.1" d="M226.229 187.12C226.631 187.202 227.028 187.308 227.417 187.438C228.926 187.813 230.493 187.298 232.009 186.952C233.831 186.538 235.699 186.364 237.566 186.437C237.232 186.437 236.702 186.729 236.374 186.828C235.946 186.958 235.51 187.079 235.075 187.187C234.22 187.397 233.353 187.568 232.479 187.692C230.715 187.947 228.93 188.025 227.15 187.924C226.337 187.88 224.926 187.962 224.23 187.552C224.832 187.195 225.533 187.043 226.229 187.12Z" fill="black"/>
<path opacity="0.1" d="M226.797 139.176C226.797 139.176 226.873 142.756 226.292 144.39C226.108 144.898 225.822 145.836 225.51 146.888C225.17 148.055 224.798 149.361 224.513 150.385C224.227 151.409 224.036 152.095 224.036 152.095C224.036 152.095 222.724 162.789 222.384 167.885C222.384 167.974 222.384 168.066 222.365 168.152C222.345 168.438 222.314 168.737 222.266 169.045C221.51 174.106 217.147 181.91 215.682 182.533C215.225 182.743 214.808 183.03 214.449 183.382C214.449 181.23 214.557 179.599 214.827 179.268C215.682 178.219 219.333 167.723 219.333 167.723L220.166 167.767C220.147 167.621 220.134 167.449 220.127 167.3C220.061 165.275 221.005 162.166 221.005 162.166C221.005 162.166 221.548 155.945 221.548 155.675C221.548 155.405 221.081 151.046 221.081 151.046L222.015 147.55L223.804 146.297C224.026 143.598 224.557 140.321 225.825 139.428C226.46 138.93 226.966 138.288 227.302 137.555C227.553 137.59 227.096 137.368 227.096 137.368L226.797 139.176Z" fill="black"/>
<path d="M227.48 137.171C227.156 137.06 226.812 137.022 226.472 137.061C226.132 137.099 225.804 137.213 225.513 137.393C224.617 138.029 222.87 137.975 222.403 137.86C221.936 137.746 217.08 137.12 216.683 137.276C216.286 137.431 215.517 136.732 215.012 137.667C214.506 138.601 214.275 139.103 213.769 139.335C213.264 139.567 212.368 140.308 212.498 140.464C212.629 140.62 211.227 141.551 211.227 141.551L214.062 150.77C214.062 150.77 212.235 162.43 211.342 163.441C210.449 164.452 202.521 177.552 205.358 179.885C207.605 181.652 209.982 183.246 212.47 184.653C212.787 184.809 213.906 182.711 215.46 182.05C217.014 181.388 221.834 172.64 222.133 167.665C222.431 162.69 223.804 151.612 223.804 151.612C223.804 151.612 225.475 145.547 226.057 143.913C226.638 142.279 226.562 138.7 226.562 138.7L227.48 137.171Z" fill="#4C4981"/>
<path opacity="0.1" d="M243.193 187.501L242.532 188.9C242.532 188.9 242.44 189.316 242.323 189.978C242.205 189.963 242.094 189.913 242.005 189.835C241.033 189.056 235.332 183.188 235.049 177.978C234.849 174.134 234.944 170.822 235.008 169.347C235.027 168.883 235.046 168.603 235.046 168.543C235.046 168.543 239.476 163.177 238.97 161.276C238.465 159.375 237.299 149.196 237.299 149.196L237.127 147.861L236.832 145.604L236.126 140.143L236.857 140.314C236.981 140.485 237.13 140.636 237.299 140.763L238.055 145.566L240.68 148.459L241.109 166.07L239.901 169.217C239.901 169.217 238.92 169.261 237.388 169.309H237.239L243.193 187.501Z" fill="black"/>
<path d="M245.64 158.431C245.64 158.431 244.553 158.002 244.477 158.431C244.401 158.86 244.204 159.788 244.204 159.788C244.204 159.788 244.398 162.045 243.568 162.938C242.739 163.832 242.615 167.602 242.615 167.602C242.615 167.602 241.306 171.334 241.925 172.5C242.151 172.923 242.501 175.044 242.85 177.587C243.073 179.176 243.292 180.921 243.486 182.517C243.838 185.416 244.102 187.816 244.102 187.816C244.102 187.816 243.4 190.382 242.427 189.603C241.455 188.824 235.755 182.956 235.475 177.746C235.284 174.087 235.361 170.908 235.424 169.341C235.45 168.676 235.475 168.301 235.475 168.301C235.475 168.301 239.904 162.935 239.399 161.031C238.894 159.127 237.728 148.952 237.728 148.952L237.525 147.378L237.305 145.687L237.254 145.315L236.552 139.911C236.676 139.939 241.036 140.925 241.611 141.5C242.186 142.076 245.742 142.899 245.742 142.899C246.278 143.045 246.765 143.331 247.153 143.729C247.541 144.127 247.815 144.622 247.947 145.162C247.982 145.27 248.007 145.385 248.033 145.502C248.5 147.759 248.35 148.03 248.668 148.421C248.986 148.812 245.64 158.431 245.64 158.431Z" fill="#4C4981"/>
<path opacity="0.1" d="M243.511 182.514C241.922 182.196 239.565 181.461 239.619 179.84C239.666 178.324 241.49 177.777 242.872 177.583C243.095 179.166 243.314 180.918 243.511 182.514Z" fill="black"/>
<path d="M248.439 181.706C248.376 181.843 248.122 181.961 247.759 182.066C246.909 182.268 246.046 182.409 245.176 182.488C245.176 182.488 239.774 182.059 239.85 179.608C239.908 177.85 242.348 177.383 243.717 177.278C244.021 177.25 244.325 177.237 244.629 177.24C244.629 177.24 248.671 181.204 248.439 181.706Z" fill="#AE6E79"/>
<path opacity="0.1" d="M248.439 181.706C248.376 181.843 248.122 181.961 247.759 182.066C246.352 180.181 244.388 177.761 243.425 177.549L243.718 177.278C244.021 177.25 244.325 177.237 244.63 177.24C244.63 177.24 248.671 181.204 248.439 181.706Z" fill="black"/>
<path d="M247.08 148.16L248.668 148.395C249.242 149.406 249.879 150.38 250.575 151.31C251.002 151.841 251.247 152.495 251.274 153.176C251.274 153.176 253.606 156.635 254.344 157.023C255.081 157.41 256.209 160.055 256.209 160.055C256.209 160.055 258.036 161.26 258.036 162.621C258.068 163.755 258.185 164.886 258.385 166.003C258.427 166.197 258.115 168.609 257.337 169.817C256.558 171.025 255.78 173.689 255.821 174.166C255.862 174.643 253.644 177.122 253.025 177.898C252.508 178.623 252.053 179.391 251.665 180.193L249.606 184.081C249.606 184.081 245.253 177.666 243.661 177.316C243.661 177.316 245.446 175.606 246.339 175.295C247.232 174.983 248.09 172.434 248.128 171.836C248.166 171.238 248.945 169.309 249.758 168.975C250.572 168.641 251.004 168.276 250.654 167.729C250.305 167.182 250.654 166.14 250.654 166.14C250.654 166.14 248.36 163.107 248.049 161.371C247.737 159.636 245.64 158.456 245.64 158.456L244.436 155.5L247.08 148.16Z" fill="#4C4981"/>
<path opacity="0.1" d="M252.86 162.671C253.739 161.929 254.845 161.509 255.996 161.482C255.259 161.61 254.483 161.772 253.943 162.287C253.731 162.51 253.54 162.752 253.374 163.011C253.19 163.275 251.69 165.183 251.468 164.881C251.096 164.439 252.558 162.929 252.86 162.671Z" fill="black"/>
<path opacity="0.1" d="M249.339 160.831C249.577 160.81 249.805 160.727 250 160.589C250.195 160.451 250.349 160.263 250.448 160.046C250.637 159.608 250.754 159.142 250.794 158.666C250.908 157.87 251.068 157.081 251.274 156.304C251.336 156.15 251.362 155.985 251.35 155.82C251.339 155.654 251.29 155.494 251.207 155.35C251.122 155.102 251.007 154.865 250.864 154.645C250.578 154.963 250.495 155.703 250.378 156.129C250.232 156.657 250.098 157.188 249.971 157.719C249.904 157.973 249.377 160.831 249.339 160.831Z" fill="black"/>
<path opacity="0.1" d="M247.963 145.137C247.806 145.342 247.626 145.527 247.426 145.69C246.79 146.195 245.948 146.621 245.869 147.419C245.891 147.679 245.859 147.94 245.774 148.185C245.57 148.535 245.071 148.503 244.674 148.437C244.339 148.406 244.018 148.288 243.743 148.093C243.327 147.737 243.289 147.101 242.971 146.653C242.778 146.422 242.534 146.238 242.259 146.116C241.983 145.994 241.683 145.938 241.382 145.951C240.788 145.932 240.197 146.065 239.603 146.091C239.221 146.11 238.838 146.084 238.462 146.014C238.338 145.995 238.215 145.97 238.093 145.938C237.828 145.873 237.568 145.784 237.318 145.674C237.189 145.623 237.062 145.563 236.94 145.496C236.542 145.292 236.174 145.035 235.844 144.733C235.262 144.199 234.779 143.462 234.827 142.67C234.856 142.184 235.075 141.736 235.145 141.256C235.383 139.882 234.471 138.585 233.483 137.603C233.089 137.212 232.669 136.834 232.275 136.436C231.662 135.87 231.177 135.178 230.855 134.408C230.59 133.588 230.503 132.721 230.601 131.865C230.69 130.997 230.715 130.124 230.674 129.252C230.382 126.162 227.744 123.794 225.107 122.507L224.989 122.446C225.772 121.548 226.735 120.825 227.815 120.324C228.896 119.824 230.07 119.557 231.261 119.541C232.452 119.525 233.633 119.761 234.727 120.232C235.82 120.704 236.802 121.401 237.608 122.279C238.414 123.156 239.026 124.193 239.404 125.323C239.782 126.453 239.918 127.65 239.802 128.836C239.686 130.021 239.321 131.169 238.732 132.205C238.142 133.24 237.341 134.139 236.381 134.844C236.352 134.942 236.327 135.041 236.304 135.136C235.694 137.578 236.098 139.059 236.552 139.876C236.676 139.905 241.036 140.89 241.611 141.465C242.186 142.041 245.742 142.864 245.742 142.864C246.282 143.008 246.774 143.295 247.165 143.695C247.556 144.095 247.831 144.593 247.963 145.137Z" fill="black"/>
<path d="M224.43 120.205C224.605 120.005 224.869 119.903 225.047 119.709C225.596 119.112 225.046 118.136 225.247 117.348C225.463 116.473 226.537 116.092 227.433 116.184C228.329 116.276 229.168 116.689 230.064 116.791C231.456 116.947 232.803 116.343 234.16 115.99C235.517 115.637 237.156 115.618 238.09 116.658C239.025 117.697 238.961 119.468 240.124 120.221C240.661 120.568 241.338 120.606 241.919 120.857C242.556 121.184 243.083 121.688 243.438 122.31C244.359 123.756 244.764 125.471 244.588 127.177C244.49 128.098 244.223 128.995 244.115 129.917C244.005 130.874 244.07 131.843 244.306 132.778C244.55 133.731 245.081 134.761 246.031 135.066C246.251 135.115 246.464 135.188 246.667 135.286C247.216 135.629 247.143 136.437 247.003 137.066L246.438 139.676C246.981 140.089 247.826 139.911 248.344 140.346C248.552 140.536 248.705 140.777 248.789 141.046C249.045 141.776 249.072 142.566 248.869 143.312C248.665 144.058 248.239 144.724 247.648 145.223C247.013 145.728 246.171 146.154 246.091 146.949C246.116 147.208 246.083 147.47 245.996 147.715C245.796 148.065 245.294 148.033 244.897 147.966C244.563 147.935 244.242 147.817 243.969 147.623C243.549 147.267 243.514 146.631 243.197 146.183C243.003 145.952 242.759 145.768 242.484 145.647C242.209 145.525 241.909 145.468 241.608 145.48C241.01 145.461 240.423 145.595 239.825 145.623C238.447 145.68 237.102 145.194 236.079 144.269C235.494 143.732 235.014 142.998 235.059 142.203C235.088 141.72 235.307 141.268 235.377 140.788C235.612 139.418 234.703 138.118 233.715 137.136C232.727 136.154 231.567 135.248 231.084 133.941C230.48 132.323 231.065 130.517 230.903 128.801C230.61 125.708 227.976 123.343 225.336 122.052C224.748 121.75 223.747 120.984 224.43 120.205Z" fill="#444053"/>
<path opacity="0.1" d="M245.211 146.901C244.791 146.542 244.756 145.909 244.439 145.461C244.245 145.23 244.002 145.046 243.726 144.924C243.451 144.801 243.151 144.744 242.85 144.755C242.253 144.736 241.662 144.87 241.067 144.898C239.684 144.959 238.334 144.471 237.308 143.541C236.724 143.007 236.247 142.27 236.291 141.478C236.32 140.992 236.539 140.54 236.609 140.063C236.848 138.69 235.936 137.39 234.947 136.408C233.959 135.425 232.803 134.519 232.316 133.213C231.716 131.598 232.316 129.793 232.138 128.073C231.843 124.98 229.209 122.615 226.571 121.324C225.955 121.022 224.954 120.256 225.637 119.477C225.809 119.277 226.073 119.175 226.25 118.981C226.8 118.387 226.25 117.408 226.454 116.623C226.493 116.466 226.561 116.318 226.654 116.187C225.99 116.311 225.383 116.686 225.221 117.322C225.027 118.11 225.57 119.086 225.021 119.684C224.843 119.878 224.579 119.979 224.404 120.176C223.721 120.955 224.722 121.725 225.338 122.023C227.979 123.314 230.613 125.682 230.906 128.772C231.068 130.492 230.483 132.297 231.087 133.915C231.57 135.219 232.729 136.141 233.718 137.11C234.706 138.08 235.624 139.389 235.38 140.763C235.246 141.228 235.14 141.7 235.062 142.177C235.017 142.969 235.497 143.706 236.082 144.24C237.106 145.171 238.456 145.659 239.838 145.598C240.435 145.569 241.023 145.439 241.62 145.455C241.921 145.443 242.221 145.501 242.496 145.623C242.772 145.746 243.015 145.929 243.209 146.16C243.527 146.609 243.562 147.244 243.981 147.6C244.255 147.793 244.575 147.911 244.909 147.941C245.306 148.014 245.808 148.039 246.008 147.693C246.08 147.551 246.111 147.393 246.097 147.235C245.778 147.204 245.472 147.088 245.211 146.901Z" fill="black"/>
<path d="M198.955 128.009H176.976V106.342H198.971L198.955 128.009ZM198.638 95.3402H177.294C177.294 61.6698 209.286 63.6375 209.286 42.336C209.286 30.6029 199.686 21.203 187.958 21.203C176.23 21.203 166.633 31.3372 166.633 42.6698H145.306C145.296 37.0636 146.393 31.5107 148.533 26.3294C150.673 21.1481 153.814 16.4404 157.777 12.4763C161.739 8.51209 166.445 5.36943 171.624 3.22849C176.803 1.08754 182.354 -0.00956796 187.958 6.28604e-05C211.516 6.28604e-05 230.61 18.803 230.61 42.336C230.61 68.9716 198.622 72.0042 198.622 95.3402H198.638Z" fill="#27F26F"/>
<path opacity="0.1" d="M89.3335 121.556H83.6648V115.955H89.3335V121.556ZM89.2478 113.132H83.7506C83.7506 104.454 91.9963 104.959 91.9963 99.4631C91.9934 98.744 91.8489 98.0325 91.571 97.3693C91.2931 96.706 90.8874 96.1041 90.3769 95.5978C89.8664 95.0915 89.2611 94.6908 88.5958 94.4186C87.9304 94.1464 87.218 94.008 86.4992 94.0114C85.0475 94.0449 83.6652 94.6398 82.6426 95.6712C81.62 96.7025 81.0365 98.0901 81.0147 99.5426H75.5176C75.5541 96.6564 76.7228 93.9002 78.7718 91.8682C80.8209 89.8361 83.5861 88.691 86.4713 88.6798C89.3565 88.6685 92.1305 89.792 94.1953 91.808C96.2602 93.824 97.4504 96.571 97.5094 99.4568C97.4935 106.323 89.2478 107.105 89.2478 113.119V113.132Z" fill="#27F26F"/>
<path opacity="0.1" d="M132.256 160.468H126.587V154.883H132.256V160.468ZM132.173 152.048H126.676C126.676 143.366 134.922 143.875 134.922 138.379C134.919 137.66 134.774 136.948 134.496 136.285C134.219 135.622 133.813 135.02 133.302 134.514C132.792 134.008 132.186 133.608 131.521 133.336C130.856 133.064 130.143 132.926 129.425 132.93C127.967 132.956 126.577 133.549 125.548 134.582C124.519 135.616 123.932 137.009 123.912 138.468H118.415C118.451 135.581 119.62 132.825 121.669 130.793C123.718 128.761 126.483 127.616 129.368 127.605C132.253 127.594 135.027 128.717 137.092 130.733C139.157 132.749 140.347 135.496 140.406 138.382C140.416 145.248 132.173 146.033 132.173 152.048Z" fill="#27F26F"/>
<path opacity="0.1" d="M158.356 91.5828H154.247V87.5425H158.356V91.5828ZM158.296 85.4763H154.311C154.311 79.1885 160.288 79.5541 160.288 75.5741C160.285 75.0532 160.18 74.5378 159.979 74.0574C159.777 73.577 159.483 73.1411 159.113 72.7745C158.743 72.4079 158.304 72.1177 157.822 71.9207C157.34 71.7236 156.824 71.6235 156.303 71.626C155.249 71.6473 154.244 72.0776 153.5 72.8261C152.757 73.5746 152.333 74.5827 152.319 75.6377H148.334C148.326 73.5233 149.157 71.4921 150.646 69.991C152.134 68.4898 154.158 67.6418 156.272 67.6334C158.385 67.6249 160.416 68.4568 161.916 69.946C163.416 71.4352 164.264 73.4597 164.273 75.5741C164.266 80.549 158.296 81.1181 158.296 85.4763Z" fill="#27F26F"/>
<path opacity="0.1" d="M228.529 97.2857H226.206V94.9969H228.529V97.2857ZM228.494 93.8366H226.228C226.228 90.2826 229.606 90.4893 229.606 88.2387C229.606 87.9443 229.548 87.6528 229.434 87.3812C229.321 87.1096 229.155 86.8631 228.946 86.6561C228.736 86.4492 228.488 86.2858 228.215 86.1755C227.943 86.0652 227.651 86.0101 227.356 86.0135C226.76 86.0257 226.193 86.2689 225.772 86.6916C225.352 87.1144 225.112 87.6838 225.103 88.28H222.851C222.877 87.1053 223.361 85.9873 224.199 85.1642C225.037 84.3411 226.163 83.8779 227.338 83.8733C228.512 83.8688 229.642 84.3232 230.487 85.1398C231.331 85.9564 231.824 87.0706 231.859 88.245C231.872 91.0392 228.494 91.373 228.494 93.8366Z" fill="#27F26F"/>
<path opacity="0.1" d="M264.041 201.384H261.718V199.095H264.041V201.384ZM264.006 197.935H261.753C261.753 194.377 265.134 194.587 265.134 192.337C265.13 191.743 264.89 191.175 264.468 190.758C264.046 190.34 263.475 190.108 262.881 190.111C262.285 190.123 261.717 190.366 261.296 190.789C260.876 191.212 260.637 191.781 260.628 192.378H258.375C258.402 191.203 258.886 190.085 259.724 189.262C260.562 188.439 261.688 187.976 262.863 187.971C264.037 187.967 265.167 188.421 266.012 189.238C266.856 190.054 267.348 191.168 267.384 192.343C267.397 195.15 264.019 195.471 264.019 197.935H264.006Z" fill="#27F26F"/>
</g>
<defs>
<linearGradient id="paint0_linear" x1="221.538" y1="264.496" x2="221.538" y2="115.488" gradientUnits="userSpaceOnUse">
<stop stop-color="#808080" stop-opacity="0.25"/>
<stop offset="0.54" stop-color="#808080" stop-opacity="0.12"/>
<stop offset="1" stop-color="#808080" stop-opacity="0.1"/>
</linearGradient>
<clipPath id="clip0">
<rect width="319" height="266" fill="white"/>
</clipPath>
</defs>
</svg>
