<svg width="246" height="165" viewBox="0 0 246 165" fill="none" xmlns="http://www.w3.org/2000/svg">
<g clip-path="url(#clip0)">
<path d="M161.538 161.531C158.157 160.778 154.044 157.645 154.924 153.337C155.361 151.201 157.038 149.819 158.776 148.924C161.18 147.688 163.919 147.222 166.558 147.104C169.601 146.968 172.642 147.311 175.663 147.673C178.645 148.03 181.628 148.35 184.624 148.546C190.527 148.929 196.448 148.937 202.351 148.567C208.14 148.208 213.901 147.485 219.599 146.403C222.427 145.864 225.238 145.232 228.032 144.507C230.66 143.87 233.247 143.072 235.778 142.118C239.1 140.802 244.502 138.241 244.062 133.498C243.828 130.983 242.033 128.974 240.223 127.575C238.034 125.883 235.502 124.77 233.021 123.689C221.482 118.66 209.921 113.691 198.371 108.693C195.676 107.527 192.962 106.391 190.346 105.024C187.897 103.744 185.459 102.258 183.488 100.202C181.766 98.4064 180.228 95.9961 180.282 93.3016C180.327 91.0671 181.559 89.1709 183.069 87.7537C186.805 84.2451 192.091 82.8225 196.868 82.0773C202.803 81.1515 208.824 81.1563 214.763 80.2624C219.558 79.5405 224.682 78.1471 228.582 74.8817C230.077 73.6297 231.396 72.0183 231.95 70.0247C232.448 68.0843 232.2 66.0278 231.258 64.261C230.201 62.1787 228.516 60.5199 226.744 59.1616C224.649 57.5902 222.345 56.3198 219.899 55.3875C214.631 53.3162 209.093 52.2377 203.697 50.6482C201.051 49.8687 198.378 49.0138 195.921 47.6749C193.84 46.5405 191.572 45.0114 190.414 42.7375C188.025 38.046 193.725 35.2499 196.955 34.1908C199.168 33.4995 201.427 32.9658 203.715 32.5938C204.202 32.5075 203.996 31.7052 203.511 31.7911C201.104 32.1769 198.731 32.7488 196.412 33.5017C194.464 34.1695 192.454 35.0471 190.925 36.5574C189.64 37.8258 188.84 39.6282 189.183 41.5307C189.588 43.7817 191.35 45.5162 193.004 46.7726C195.192 48.4339 197.686 49.5189 200.215 50.4033C202.879 51.3348 205.599 52.0607 208.319 52.7728C213.752 54.1956 219.43 55.4636 224.335 58.4912C227.766 60.6092 232.427 64.5803 231.286 69.5025C230.779 71.6875 229.241 73.3958 227.58 74.6523C225.574 76.1708 223.275 77.2081 220.944 77.9822C210.074 81.5921 198.111 79.0106 187.522 83.9136C183.921 85.5806 179.548 88.6158 179.513 93.3915C179.494 95.8723 180.699 98.1476 182.189 99.946C183.974 102.1 186.284 103.693 188.635 105.024C191.134 106.386 193.704 107.613 196.333 108.702C199.229 109.957 202.127 111.211 205.025 112.463L222.611 120.074L231.349 123.856C234.016 125.01 236.751 126.117 239.176 127.811C241.162 129.198 243.507 131.474 243.305 134.3C243.144 136.544 241.337 138.163 239.686 139.246C237.549 140.648 235.148 141.555 232.758 142.309C230.002 143.178 227.201 143.899 224.395 144.547C218.615 145.878 212.753 146.825 206.848 147.381C200.924 147.944 194.97 148.127 189.023 147.93C186.016 147.83 183.015 147.631 180.018 147.334C176.928 147.027 173.852 146.554 170.755 146.344C167.953 146.154 165.125 146.198 162.366 146.809C160.062 147.318 157.629 148.226 155.88 149.998C155.261 150.62 154.779 151.366 154.466 152.187C154.154 153.008 154.017 153.886 154.065 154.763C154.21 156.536 154.961 158.203 156.191 159.485C157.579 160.933 159.372 161.926 161.333 162.334C161.816 162.442 162.023 161.64 161.538 161.531L161.538 161.531Z" fill="#E6E6E6"/>
<path d="M246 162.155H0V162.776H246V162.155Z" fill="#3F3D56"/>
<path d="M225.362 132.533L236.93 149.713L226.16 160.501L224.763 157.704L227.157 152.111C227.157 152.111 226.758 146.917 225.362 145.518C223.966 144.12 217.783 135.729 217.783 135.729L225.362 132.533Z" fill="#FFB8B8"/>
<path d="M210.602 76.9963C210.602 76.9963 212.796 80.4737 208.208 95.4567C208.208 95.4567 229.606 131.628 226.215 134.026C222.825 136.423 213.649 141.728 211.256 140.13C208.862 138.532 191.455 84.3879 191.455 84.3879L210.602 76.9963Z" fill="#2F2E41"/>
<path d="M234.836 146.617L238.326 150.113C240.121 151.911 241.318 154.508 237.927 156.706C234.536 158.903 222.769 167.094 218.78 164.497C214.791 161.9 223.567 159.503 223.567 159.503C223.567 159.503 225.018 154.113 225.788 155.31C226.558 156.506 226.558 158.903 226.558 158.903L234.836 146.617Z" fill="#2F2E41"/>
<path d="M192.652 141.922C192.652 141.922 186.27 153.709 186.27 155.107C186.27 156.506 186.668 160.501 186.668 160.501L174.502 163.498L170.313 161.5L171.71 157.904C171.71 157.904 179.289 155.307 180.884 150.313C182.48 145.319 184.275 140.125 184.275 140.125L192.652 141.922Z" fill="#FFB8B8"/>
<path d="M200.031 24.6559C204.658 24.6559 208.408 20.8994 208.408 16.2654C208.408 11.6315 204.658 7.875 200.031 7.875C195.405 7.875 191.654 11.6315 191.654 16.2654C191.654 20.8994 195.405 24.6559 200.031 24.6559Z" fill="#FFB8B8"/>
<path d="M197.838 23.4572L201.837 34.9671L210.603 31.0486C210.603 31.0486 204.619 21.859 204.619 20.6604L197.838 23.4572Z" fill="#FFB8B8"/>
<path d="M196.641 64.4107H207.212C207.212 64.4107 214.791 75.9975 210.403 88.1837C209.731 90.0498 209.064 92.6638 208.398 95.7543C206.867 102.862 205.343 112.489 203.78 121.336C201.586 133.763 199.317 144.65 196.85 144.847C191.864 145.247 182.168 145.18 182.168 143.182C182.168 141.185 188.663 83.3891 188.663 83.3891L190.059 80.9919L190.323 70.5497C190.364 68.9018 191.049 67.3361 192.231 66.1883C193.412 65.0406 194.995 64.4024 196.641 64.4107L196.641 64.4107Z" fill="#2F2E41"/>
<path d="M186.17 155.008C186.17 155.008 188.463 158.903 187.865 161.7C187.267 164.497 186.269 164.097 181.881 164.497C177.493 164.896 162.535 164.896 162.535 162.1C162.535 159.303 174.204 155.671 174.253 156.787C174.302 157.904 174.701 160.102 173.504 160.501C172.308 160.901 173.405 160.601 173.405 160.601L186.17 155.008Z" fill="#2F2E41"/>
<path d="M192.823 88.3027C192.823 88.3027 190.424 102.316 185.129 97.4875C179.834 92.6592 188.655 85.9463 188.655 85.9463L192.823 88.3027Z" fill="#FFB8B8"/>
<path d="M209.389 70.6556C209.667 70.7813 209.974 70.8287 210.277 70.7927C210.58 70.7568 210.868 70.6389 211.109 70.4517C211.459 70.1765 211.692 69.7788 211.761 69.3386C212.598 64.5076 213.617 51.1147 214.203 44.3424C214.94 35.8446 211.262 29.2627 211.231 29.2227L209.064 26.238C208.839 25.9262 208.515 25.6998 208.145 25.5959C207.775 25.4919 207.381 25.5164 207.027 25.6654C207.027 25.6654 200.261 32.6961 200.237 32.9676C200.13 34.1333 199.325 36.7164 195.128 40.9202C190.536 45.5199 190.51 49.5344 190.612 50.6553C190.619 50.7289 190.622 50.8026 190.622 50.8762C190.614 51.379 190.682 51.8802 190.825 52.3624C192.748 58.4363 191.242 65.7081 188.823 73.2987C188.731 73.6417 188.748 74.0047 188.872 74.3376C188.995 74.6704 189.219 74.9566 189.512 75.1565C190.218 75.6378 189.371 74.9235 189.623 75.2328C191.29 77.2789 193.689 74.4272 196.433 71.3156C197.389 70.2317 198.473 69.0031 199.75 67.7241C201.505 65.9655 204.86 69.9785 206.42 69.9785C207.446 69.9909 208.458 70.2217 209.389 70.6556Z" fill="#27F26F"/>
<path d="M211.403 32.9706C211.403 32.9706 215.358 37.1256 212.364 41.6267C209.37 46.1277 209.316 49.6829 209.316 49.6829C209.316 49.6829 205.087 82.3892 197.529 79.9518L192.952 89.2934L186.851 86.3031L191.458 78.126C191.458 78.126 188.536 77.6213 189.614 75.7076C190.371 74.3634 195.291 59.4162 198.152 50.6375C199.365 46.9175 200.208 44.3051 200.208 44.3051C200.208 44.3051 204.17 31.1758 211.403 32.9706Z" fill="#27F26F"/>
<path opacity="0.2" d="M210.503 49.7273L206.301 65.5542L209.497 48.4895L210.503 49.7273Z" fill="black"/>
<path d="M190.892 12.5477C190.892 12.5477 189.484 1.56986 200.975 5.16976C200.975 5.16976 209.181 3.66148 211.873 13.9436L214.598 24.7219L213.27 23.9978L212.651 25.3535L210.499 25.8994L209.578 24.0685L209.132 26.2919L191.505 28.052C191.505 28.052 199.4 23.3755 199.525 14.9939L198.021 16.5856L190.892 12.5477Z" fill="#2F2E41"/>
<path d="M26.2121 0.922363C25.9456 0.923362 25.6903 1.03021 25.5024 1.21947C25.3144 1.40872 25.2091 1.66493 25.2095 1.93188V83.7102C25.2091 83.9772 25.3144 84.2334 25.5024 84.4226C25.6903 84.6119 25.9456 84.7188 26.2121 84.7197H142.775C143.041 84.7187 143.296 84.6119 143.484 84.4226C143.672 84.2334 143.777 83.9771 143.777 83.7102V1.93188C143.777 1.66495 143.672 1.40874 143.484 1.21948C143.296 1.03022 143.041 0.923367 142.775 0.922363H26.2121Z" fill="#3F3D56"/>
<path d="M25.7928 48.984C29.3485 48.9737 32.7053 50.2394 35.633 52.2076C38.7061 54.2735 41.3034 57.0105 43.5849 59.9092C46.1061 63.1125 48.2664 66.5785 50.5854 69.9266C52.7271 73.0185 55.0219 76.0244 57.7821 78.5935C60.3935 81.0242 63.4178 83.0678 66.8288 84.1761C67.2443 84.3111 67.6645 84.4304 68.0882 84.5369C68.5657 84.6569 68.7694 83.9183 68.2915 83.7982C64.7888 82.9177 61.657 81.0106 58.9646 78.6337C56.1552 76.1535 53.8195 73.2104 51.6723 70.1515C49.3343 66.8209 47.183 63.3581 44.711 60.1228C42.4238 57.1293 39.8517 54.3147 36.7966 52.0904C33.9615 50.0263 30.6776 48.5561 27.1571 48.2692C26.7031 48.2322 26.2482 48.2165 25.7928 48.2178C25.6936 48.2213 25.5997 48.2632 25.5308 48.3346C25.4619 48.4061 25.4233 48.5016 25.4233 48.6009C25.4233 48.7003 25.4619 48.7957 25.5308 48.8672C25.5997 48.9387 25.6936 48.9805 25.7928 48.984L25.7928 48.984Z" fill="#696969"/>
<path d="M26.1899 84.3538C32.4446 78.017 40.9953 75.0215 49.4865 73.0783C58.3675 71.046 67.53 69.9549 75.9681 66.3291C79.9974 64.6443 83.696 62.2563 86.8917 59.2762C89.8754 56.4213 92.3505 53.0771 94.2103 49.3877C98.0059 41.9084 99.1864 33.3698 97.5628 25.1388C95.8451 16.7709 91.5865 9.13948 85.3702 3.29003C84.6127 2.57683 83.8285 1.89401 83.0174 1.24158C82.6375 0.935135 82.093 1.47391 82.4766 1.78331C89.0835 7.11931 93.8678 14.3834 96.1651 22.5669C98.4096 30.6398 97.8287 39.2388 94.5189 46.9352C92.9129 50.6739 90.6904 54.1153 87.9444 57.1154C85.0311 60.2445 81.5667 62.8088 77.7249 64.6795C69.5398 68.7272 60.3782 69.9802 51.541 71.8441C43.2085 73.6016 34.7089 76.1085 28.0282 81.6305C27.1989 82.317 26.4049 83.0452 25.649 83.8121C25.3026 84.1631 25.8432 84.7051 26.1899 84.3538Z" fill="#696969"/>
<path d="M105.523 84.6904C108.23 81.0504 110.997 77.1896 112.165 72.7363C112.746 70.6107 112.832 68.3794 112.414 66.2154C112.01 64.3286 111.223 62.5452 110.102 60.9761C107.802 57.7039 104.411 55.2721 100.802 53.6305C96.3338 51.5974 91.5149 50.555 86.851 49.089C82.5519 47.7377 78.1442 45.9744 74.9327 42.6901C71.8984 39.5871 70.1792 34.9163 71.8716 30.7152C73.4071 26.9033 77.1493 24.3754 80.8849 23.0409C85.465 21.4046 90.3704 21.1101 95.0377 19.8133C98.9395 18.7291 102.933 16.8805 105.349 13.4863C107.396 10.6098 108.053 6.46171 106.417 3.24672C106.018 2.46736 105.48 1.7671 104.831 1.18005C104.467 0.849636 103.925 1.38984 104.291 1.72178C107.05 4.22687 107.083 8.51284 105.528 11.6855C103.703 15.4107 99.7607 17.5328 95.9666 18.738C91.4506 20.1726 86.6717 20.4788 82.1338 21.8286C78.2554 22.9823 74.4614 25.0507 72.1791 28.5076C71.0709 30.1633 70.4631 32.104 70.4287 34.097C70.4406 36.2297 71.0087 38.3223 72.0768 40.1673C74.2344 44.0043 78.0801 46.4864 82.0379 48.1613C90.359 51.6826 100.23 52.2203 107.086 58.6765C110.03 61.449 112.029 65.1314 111.914 69.2564C111.786 73.8062 109.358 77.9457 106.832 81.5811C106.193 82.5011 105.531 83.4048 104.863 84.3037C104.569 84.6994 105.232 85.0817 105.523 84.6904V84.6904Z" fill="#696969"/>
<path d="M43.0536 1.94613C44.1063 2.71463 44.9583 3.72627 45.5372 4.89512C46.1161 6.06397 46.4049 7.3555 46.3789 8.66002C46.3374 9.98079 45.9705 11.2708 45.3107 12.4151C44.6509 13.5594 43.7187 14.5225 42.5973 15.2185C40.4731 16.4744 37.4876 16.6324 35.7962 14.5802C35.0965 13.7478 34.7477 12.6753 34.8236 11.5898C34.8838 11.0659 35.0691 10.5643 35.3638 10.1273C35.6585 9.69032 36.0539 9.33088 36.5167 9.07939C38.6624 7.85314 41.2342 8.57508 43.2171 9.75007C44.4444 10.4773 45.5675 11.3621 46.7411 12.17C47.8623 12.9486 49.0595 13.611 50.3145 14.1471C55.3104 16.2608 61.1725 16.286 66.0974 13.9495C68.3288 12.8794 70.3273 11.3784 71.9781 9.5328C73.629 7.68716 74.8997 5.53316 75.7174 3.1944C75.9147 2.61618 76.081 2.02781 76.2156 1.43179C76.3245 0.951737 75.5872 0.746777 75.478 1.22813C74.3287 6.29371 70.8175 10.674 66.2167 13.0384C61.2018 15.6156 55.0101 15.5435 49.9413 13.147C48.6419 12.5058 47.4033 11.7478 46.2408 10.8823C45.0451 10.024 43.8527 9.13774 42.5161 8.50772C40.4151 7.51738 37.665 7.23867 35.6948 8.7034C35.2326 9.04012 34.8476 9.4718 34.5655 9.96958C34.2833 10.4673 34.1105 11.0197 34.0587 11.5898C33.9843 12.7569 34.3318 13.9119 35.0377 14.8435C36.6766 17.0577 39.6267 17.3713 42.0465 16.349C44.5915 15.2738 46.4251 12.8393 46.9693 10.1489C47.2953 8.48785 47.1357 6.76782 46.5096 5.19539C45.8835 3.62297 44.8175 2.26501 43.4396 1.28461C43.0393 0.996309 42.657 1.66056 43.0535 1.94613H43.0536Z" fill="#696969"/>
<path d="M124.17 84.5431C124.981 80.8506 126.599 77.3841 128.908 74.3931C131.208 71.3932 134.114 68.9142 137.438 67.1185C139.304 66.113 141.291 65.352 143.351 64.8543C143.83 64.7389 143.627 63.9999 143.148 64.1155C139.387 65.0454 135.878 66.797 132.873 69.2446C129.854 71.677 127.384 74.7219 125.624 78.1791C124.633 80.1301 123.897 82.2005 123.432 84.3394C123.329 84.8202 124.066 85.0256 124.17 84.5431H124.17Z" fill="#696969"/>
<path d="M120.109 1.29347C118.478 1.30991 117.103 2.44053 116.435 3.88208C115.677 5.51799 115.884 7.31827 116.697 8.89443C118.592 12.5715 122.731 13.8746 125.711 16.4169C127.093 17.5964 128.298 19.0973 128.615 20.9339C128.925 22.7241 128.286 24.5691 127.241 26.0097C126.099 27.5827 124.377 28.6642 122.583 29.3462C120.738 30.0489 118.789 30.4402 116.816 30.5041C114.911 30.5582 112.896 30.2247 111.318 29.086C110.663 28.6171 110.112 28.0169 109.701 27.3237C109.289 26.6304 109.026 25.8591 108.928 25.0587C108.847 24.3349 108.97 23.6029 109.282 22.9451C109.594 22.2873 110.083 21.7298 110.694 21.3354C111.927 20.6053 113.389 20.3676 114.789 20.6698C118.277 21.3601 120.084 24.8266 120.855 28.0043C121.837 32.0507 121.447 36.3525 122.957 40.2844C124.245 43.6115 126.59 46.4223 129.629 48.2836C133.113 50.4063 136.865 51.0934 140.818 50.0564C141.825 49.7871 142.804 49.4223 143.742 48.967C144.186 48.7543 143.798 48.0935 143.356 48.3055C139.426 50.1898 135.405 50.2499 131.45 48.3932C128.172 46.8356 125.545 44.1738 124.029 40.873C122.239 36.9718 122.595 32.5915 121.743 28.4708C121.057 25.154 119.392 21.4569 115.99 20.2098C113.252 19.2062 109.582 19.9852 108.443 22.9383C107.847 24.482 108.191 26.2471 109.01 27.6407C109.933 29.1673 111.391 30.2946 113.1 30.8022C115.019 31.413 117.089 31.3619 119.057 31.051C121.038 30.7738 122.953 30.1436 124.712 29.1903C126.397 28.274 127.767 26.8706 128.644 25.163C129.462 23.494 129.725 21.5515 129.103 19.7729C127.73 15.8432 123.577 14.2206 120.477 11.9484C118.949 10.8289 117.515 9.35834 116.946 7.50531C116.68 6.71161 116.643 5.85845 116.841 5.04489C117.04 4.23132 117.464 3.49074 118.066 2.90914C118.616 2.37906 119.345 2.07579 120.109 2.05958C120.208 2.05613 120.302 2.01427 120.371 1.94281C120.44 1.87134 120.478 1.77587 120.478 1.67652C120.478 1.57716 120.44 1.48169 120.371 1.41023C120.302 1.33877 120.208 1.2969 120.109 1.29346L120.109 1.29347Z" fill="#696969"/>
<path d="M104.79 71.2741C112.957 71.2741 119.578 64.6427 119.578 56.4624C119.578 48.2821 112.957 41.6506 104.79 41.6506C96.6227 41.6506 90.002 48.2821 90.002 56.4624C90.002 64.6427 96.6227 71.2741 104.79 71.2741Z" fill="#696969"/>
<path d="M108.614 23.2638C111.853 23.2638 114.478 20.6341 114.478 17.3902C114.478 14.1463 111.853 11.5166 108.614 11.5166C105.375 11.5166 102.75 14.1463 102.75 17.3902C102.75 20.6341 105.375 23.2638 108.614 23.2638Z" fill="#696969"/>
<path d="M36.9696 27.6051C40.2083 27.6051 42.8337 24.9754 42.8337 21.7315C42.8337 18.4876 40.2083 15.8579 36.9696 15.8579C33.7309 15.8579 31.1055 18.4876 31.1055 21.7315C31.1055 24.9754 33.7309 27.6051 36.9696 27.6051Z" fill="#696969"/>
<path opacity="0.2" d="M204.001 121.968L207.932 95.7341L204.735 124.054L204.001 121.968Z" fill="black"/>
<path d="M210.425 9.71708C212.873 9.71708 214.858 7.72941 214.858 5.27749C214.858 2.82556 212.873 0.837891 210.425 0.837891C207.977 0.837891 205.993 2.82556 205.993 5.27749C205.993 7.72941 207.977 9.71708 210.425 9.71708Z" fill="#2F2E41"/>
<path d="M205.858 4.19055C205.93 3.06416 206.429 2.00794 207.252 1.237C208.075 0.466068 209.161 0.0384076 210.288 0.0411211C210.196 0.0294894 210.106 0.0153514 210.012 0.00934125C209.431 -0.0284754 208.848 0.048772 208.297 0.236665C207.746 0.424558 207.237 0.719414 206.799 1.10439C206.362 1.48936 206.004 1.95691 205.747 2.4803C205.49 3.0037 205.339 3.57268 205.302 4.15475C205.264 4.73682 205.342 5.32056 205.53 5.8726C205.718 6.42465 206.012 6.93419 206.397 7.37211C206.782 7.81002 207.249 8.16773 207.771 8.42479C208.294 8.68184 208.862 8.83321 209.444 8.87024C209.537 8.87625 209.629 8.87385 209.721 8.87407C208.603 8.73221 207.581 8.16883 206.863 7.29867C206.145 6.4285 205.786 5.317 205.858 4.19055Z" fill="#2F2E41"/>
<path d="M199.344 18.8737C200.109 18.8737 200.729 18.0041 200.729 16.9313C200.729 15.8586 200.109 14.989 199.344 14.989C198.579 14.989 197.959 15.8586 197.959 16.9313C197.959 18.0041 198.579 18.8737 199.344 18.8737Z" fill="#FFB8B8"/>
<path opacity="0.2" d="M196.574 53.2804L190.43 73.6687L197.959 51.231L196.574 53.2804Z" fill="black"/>
<path d="M25.7212 36.3818C35.3204 33.7812 45.4784 34.1297 54.8776 37.3819C57.6081 38.3199 60.4088 39.41 62.6931 41.2236C64.6583 42.7837 66.3838 45.1454 65.8929 47.7971C65.4404 50.2415 63.1956 52.1723 60.7796 52.5256C58.2878 52.89 56.0174 51.3712 54.8745 49.2189C54.291 48.1515 54.0245 46.9393 54.1063 45.7251C54.1882 44.511 54.615 43.3456 55.3364 42.3664C56.7809 40.4177 59.1824 39.3049 61.5425 38.9963C64.2403 38.6436 66.8938 39.4401 69.2272 40.772C74.5011 43.782 77.869 49.0296 82.2981 53.0299C84.4208 55.0076 86.9132 56.545 89.6318 57.5535C92.2611 58.4638 95.0346 58.8839 97.8151 58.7931C103.643 58.6445 109.232 56.5357 113.993 53.2277C118.77 49.9094 122.715 45.5527 126.169 40.9031C128.016 38.4169 129.621 35.7455 131.554 33.3249C133.456 30.9422 135.811 28.824 138.821 28.0264C140.191 27.6468 141.637 27.6388 143.011 28.0032C143.108 28.0262 143.209 28.0109 143.295 27.9603C143.38 27.9098 143.443 27.8279 143.469 27.7321C143.496 27.6363 143.484 27.534 143.436 27.4468C143.389 27.3595 143.309 27.2941 143.215 27.2644C140.288 26.465 137.211 27.4007 134.785 29.1068C132.189 30.9317 130.329 33.5768 128.565 36.1673C125.04 41.3428 121.243 46.3585 116.425 50.4073C111.614 54.4496 105.824 57.3462 99.5128 57.9266C96.4936 58.2315 93.444 57.9339 90.5404 57.051C87.5051 56.0959 84.873 54.3709 82.5465 52.2207C77.9752 47.996 74.4197 42.4507 68.6984 39.6228C66.2869 38.4309 63.6479 37.859 60.9756 38.3129C58.6226 38.7125 56.3083 39.8746 54.8248 41.7837C54.0734 42.7435 53.5831 43.8819 53.4018 45.088C53.2206 46.2942 53.3545 47.5267 53.7905 48.6656C54.6357 50.8881 56.5214 52.8077 58.9162 53.2453C61.3335 53.6871 63.859 52.5706 65.3684 50.6702C66.124 49.7166 66.5829 48.5615 66.688 47.3487C66.793 46.1358 66.5395 44.9188 65.9591 43.8491C64.7176 41.4452 62.2953 39.7832 59.9359 38.6103C56.9718 37.1851 53.8605 36.0898 50.6579 35.3442C44.0859 33.739 37.2592 33.4697 30.5814 34.5524C28.8764 34.8311 27.1865 35.1951 25.5178 35.643C25.4231 35.6727 25.3437 35.7381 25.2962 35.8254C25.2487 35.9126 25.2369 36.0149 25.2633 36.1107C25.2896 36.2065 25.3521 36.2884 25.4375 36.3389C25.523 36.3895 25.6246 36.4048 25.7211 36.3818H25.7212Z" fill="#27F26F"/>
</g>
<defs>
<clipPath id="clip0">
<rect width="246" height="165" fill="white"/>
</clipPath>
</defs>
</svg>
