<svg width="450" height="400" viewBox="0 0 450 400" fill="none" xmlns="http://www.w3.org/2000/svg">
<g opacity="0.1">
<path d="M100.58 84.0679C102.048 84.9309 102.094 88.6182 101.868 91.5764C101.706 93.7408 101.406 95.5129 101.406 95.5129L110.955 118.726C110.955 118.726 114.494 102.186 114.55 94.8022C114.554 94.2196 114.465 93.6401 114.287 93.0854C112.602 87.7644 103.243 84.7924 100.58 84.0679Z" fill="#67647E"/>
<path d="M99.874 83.8695C99.874 83.8695 100.132 83.9295 100.58 84.0541C100.365 83.9305 100.122 83.8667 99.874 83.8695Z" fill="#67647E"/>
<path d="M103.183 366.469L107.027 369.238C107.027 369.238 109.413 369.238 109.413 371.394C109.413 373.549 115.256 375.699 115.256 375.699C115.256 375.699 123.95 378.159 130.642 375.699C132.811 374.901 133.476 373.535 133.222 371.869C132.691 368.394 128.145 363.645 124.873 360.161C122.663 357.812 121.643 354.697 121.209 352.002C120.889 350.073 120.802 348.113 120.951 346.164L106.875 345.162C107.681 347.287 107.681 349.633 106.875 351.757C106.568 352.517 106.153 353.229 105.643 353.871C103.926 356.049 103.336 359.469 103.169 362.177C103.073 363.607 103.078 365.041 103.183 366.469Z" fill="#67647E"/>
<path d="M74.2615 372.852C74.2615 372.852 75.3368 376.082 85.4158 377.162C95.4948 378.242 94.0503 370.775 94.0503 370.775C94.0503 370.775 94.1011 370.563 94.1657 370.18C94.6038 367.655 94.6163 365.075 94.2026 362.547C93.8519 360.581 94.1565 357.17 94.5949 354.046C95.1118 350.326 95.8179 347.008 95.8179 347.008L80.2009 348.162C80.2009 348.162 79.9287 351.342 79.7717 354.554C79.721 355.555 79.6795 356.556 79.6656 357.47C79.593 358.857 79.1254 360.194 78.318 361.324C76.4691 364.052 75.2 367.13 74.5892 370.369C74.4544 371.096 74.3589 371.829 74.3031 372.566C74.2708 372.764 74.2615 372.852 74.2615 372.852Z" fill="#67647E"/>
<path d="M103.183 366.469L107.027 369.238C107.027 369.238 109.413 369.238 109.413 371.394C109.413 373.549 115.256 375.699 115.256 375.699C115.256 375.699 123.95 378.159 130.642 375.699C132.811 374.901 133.476 373.535 133.222 371.869C133.014 371.869 132.816 371.897 132.65 371.901C129.908 371.989 127.241 372.727 124.513 372.972C122.959 373.086 121.4 373.111 119.843 373.046C119.071 373.04 118.3 372.98 117.536 372.866C115.69 372.538 113.978 371.583 112.33 370.646C111.927 370.457 111.572 370.179 111.292 369.834C111.07 369.45 110.914 369.032 110.83 368.597C110.249 366.511 108.624 364.84 106.76 363.742C105.625 363.096 104.422 362.578 103.174 362.196C103.077 363.619 103.08 365.047 103.183 366.469Z" fill="#67647E"/>
<path d="M74.2613 372.852C74.2613 372.852 75.3366 376.082 85.4156 377.162C95.4946 378.242 94.0502 370.775 94.0502 370.775C94.0502 370.775 94.1009 370.563 94.1655 370.18C93.704 370.42 93.3118 370.641 93.1318 370.743C92.2088 371.283 91.3827 372.026 90.4228 372.529C88.1154 373.742 85.3233 373.382 82.7436 372.99C81.5206 372.806 80.2977 372.621 79.0793 372.395C78.1506 372.267 77.2465 372 76.398 371.601C75.7677 371.234 75.1633 370.824 74.589 370.374C74.4542 371.1 74.3587 371.833 74.3029 372.57C74.2706 372.764 74.2613 372.852 74.2613 372.852Z" fill="#67647E"/>
<path opacity="0.1" d="M103.183 366.469L107.027 369.238C107.027 369.238 109.413 369.238 109.413 371.394C109.413 373.549 115.256 375.699 115.256 375.699C115.256 375.699 123.95 378.159 130.642 375.699C132.811 374.901 133.476 373.535 133.222 371.869C133.014 371.869 132.816 371.897 132.65 371.901C129.908 371.989 127.241 372.727 124.513 372.972C122.959 373.086 121.4 373.111 119.843 373.046C119.071 373.04 118.3 372.98 117.536 372.866C115.69 372.538 113.978 371.583 112.33 370.646C111.927 370.457 111.572 370.179 111.292 369.834C111.07 369.45 110.914 369.032 110.83 368.597C110.249 366.511 108.624 364.84 106.76 363.742C105.625 363.096 104.422 362.578 103.174 362.196C103.077 363.619 103.08 365.047 103.183 366.469Z" fill="black"/>
<path opacity="0.1" d="M74.2613 372.852C74.2613 372.852 75.3366 376.082 85.4156 377.162C95.4946 378.242 94.0502 370.775 94.0502 370.775C94.0502 370.775 94.1009 370.563 94.1655 370.18C93.704 370.42 93.3118 370.641 93.1318 370.743C92.2088 371.283 91.3827 372.026 90.4228 372.529C88.1154 373.742 85.3233 373.382 82.7436 372.99C81.5206 372.806 80.2977 372.621 79.0793 372.395C78.1506 372.267 77.2465 372 76.398 371.601C75.7677 371.234 75.1633 370.824 74.589 370.374C74.4542 371.1 74.3587 371.833 74.3029 372.57C74.2706 372.764 74.2613 372.852 74.2613 372.852Z" fill="black"/>
<path opacity="0.1" d="M106.875 345.162C107.681 347.287 107.681 349.633 106.875 351.757C110.913 352.445 118.44 353.834 121.209 352.002C120.889 350.073 120.802 348.113 120.951 346.164L106.875 345.162Z" fill="black"/>
<path opacity="0.1" d="M79.7439 354.554C82.5959 354.757 90.2706 355.158 94.5671 354.046C95.0839 350.326 95.79 347.008 95.79 347.008L80.1731 348.162C80.1731 348.162 79.9101 351.342 79.7439 354.554Z" fill="black"/>
<path d="M68.4927 246.943C68.4927 246.943 68.7327 249.827 69.1157 253.865C69.9787 263.03 71.5709 278.163 72.8077 279.395C74.5798 281.172 73.8091 294.232 73.1169 296.539C72.4247 298.847 73.1169 315.46 73.1169 315.46C74.8589 322.401 75.7118 329.534 75.6551 336.689C75.4244 347.765 78.6548 353.534 78.6548 353.534C78.6548 353.534 93.8841 354.918 97.0361 351.974C100.188 349.029 97.0361 325.613 97.0361 325.613C97.0361 325.613 91.3459 306.461 92.7304 303.692C94.1148 300.923 95.7301 294.232 95.7301 294.232V270.926C97.9683 267.234 98.9605 262.158 99.3897 257.571C99.7312 253.647 99.7421 249.701 99.422 245.775C99.422 245.775 102.288 251.636 105.209 257.432C107.849 262.67 110.535 267.853 111.209 268.619C112.593 270.234 111.439 277.618 111.209 281.31C110.978 285.002 113.747 292.386 113.747 292.386C110.286 294.463 109.593 318.922 109.593 318.922C109.593 318.922 112.132 324.921 106.824 331.613C101.517 338.304 103.594 350.995 104.286 350.534C104.978 350.072 119.054 353.995 121.823 350.534C124.592 347.073 127.592 337.612 127.592 337.612C127.592 337.612 126.207 327.921 129.207 319.152C131.431 312.655 134.159 297.421 135.423 289.958C135.884 287.251 135.968 284.493 135.672 281.762C135.091 276.312 134.195 266.224 134.514 258.226C134.62 255.619 134.546 251.474 134.371 246.615C133.776 229.955 131.976 204.924 131.976 204.924L119.432 196.474L111.172 190.871L109.15 191.18L71.4832 196.981L70.0203 215.561L68.4927 246.943Z" fill="#444053"/>
<path opacity="0.1" d="M119.432 196.474L120.092 200.101C120.092 200.101 125.63 226.637 126.784 240.251C127.938 253.865 132.783 249.942 132.783 249.942C133.206 248.799 133.725 247.694 134.334 246.638C133.739 229.978 131.939 204.947 131.939 204.947L119.432 196.474Z" fill="black"/>
<path d="M79.8782 95.8037C79.8782 95.8037 105.722 116.492 100.95 112.339C98.3379 110.059 100.115 100.34 102.256 92.0333C104.019 85.1801 106.026 79.2822 106.026 79.2822C106.026 79.2822 83.4686 58.1781 85.1069 75.4334C85.6837 81.5158 85.2038 85.84 84.3408 88.8951C82.7579 94.4838 79.8782 95.8037 79.8782 95.8037Z" fill="#EFB7B9"/>
<path opacity="0.1" d="M82.0285 90.3027L98.4115 103.109L103.183 97.8019C103.183 97.8019 107.258 96.0344 107.568 98.0327C107.877 100.031 109.026 112.339 106.645 113.493C104.263 114.646 101.18 115.417 98.4899 115.034C95.7994 114.651 92.7997 111.647 90.7969 110.493C88.794 109.339 81.4147 103.34 81.4147 103.34L77.7228 98.1896L82.0285 90.3027Z" fill="black"/>
<path d="M82.0285 90.7642L98.4115 103.571L103.183 98.2634C103.183 98.2634 107.258 96.4959 107.568 98.4942C107.877 100.492 109.026 112.8 106.645 113.954C104.263 115.108 101.18 115.879 98.4899 115.496C95.7994 115.113 92.7997 112.108 90.7969 110.954C88.794 109.801 81.4147 103.801 81.4147 103.801L77.7228 98.6511L82.0285 90.7642Z" fill="#A36468"/>
<path opacity="0.1" d="M68.4925 246.943C68.4925 246.943 68.7325 249.827 69.1155 253.865C74.192 254.059 84.0402 254.659 90.9534 256.468C93.7121 257.15 96.5388 257.52 99.3802 257.571C99.7218 253.647 99.7326 249.701 99.4126 245.775C99.4126 245.775 102.278 251.636 105.2 257.432C107.698 257.264 110.184 256.942 112.644 256.468L109.565 216.47C109.565 216.47 109.667 203.045 109.159 191.167L71.4922 196.967L70.0293 215.547L68.4925 246.943Z" fill="black"/>
<path opacity="0.1" d="M96.7959 102.034C96.7959 102.034 85.6047 89.7996 82.9511 91.7425C80.2975 93.6854 78.5808 98.4203 78.5808 98.4203L87.6814 108.416L96.7959 102.034Z" fill="black"/>
<path d="M96.335 101.572C96.335 101.572 85.1438 89.3381 82.4902 91.281C79.8366 93.2239 78.1198 97.9588 78.1198 97.9588L87.2205 107.955L96.335 101.572Z" fill="#A36468"/>
<path opacity="0.1" d="M105.615 109.413L99.182 101.314C99.182 101.314 100.202 93.6578 102.56 94.6361C104.918 95.6145 105.615 99.5326 105.615 99.5326V109.413Z" fill="black"/>
<path d="M106.104 108.878L99.6713 100.778C99.6713 100.778 100.687 93.1223 103.049 94.1007C105.412 95.079 106.104 98.9971 106.104 98.9971V108.878Z" fill="#A36468"/>
<path opacity="0.1" d="M76.4906 94.3407C76.4906 94.3407 89.7401 108.647 97.6501 109.607C98.37 109.695 99.0807 109.815 99.7914 109.958C101.854 110.364 106.358 109.958 105.643 98.1296L106.645 96.0344L112.796 99.8048L114.873 116.723L118.565 160.103L124.024 208.408C124.024 208.408 107.258 206.793 102.565 211.025C97.8716 215.256 96.5656 187.95 96.5656 187.95L83.7222 132.571L70.0297 96.9574L76.4906 94.3407Z" fill="black"/>
<path opacity="0.1" d="M70.0297 98.8034L83.7222 134.417L96.5656 189.796C96.5656 189.796 97.8762 217.098 102.565 212.871C104.097 211.486 106.921 210.729 110.027 210.337C113.847 209.925 117.694 209.838 121.528 210.079C123.06 210.162 124.024 210.254 124.024 210.254L118.565 161.949L114.873 118.569L112.796 101.651L106.645 97.8804L105.643 99.9756C105.643 100.285 105.675 100.589 105.689 100.899C106.123 111.827 101.799 112.214 99.7914 111.817C99.0807 111.674 98.37 111.554 97.6501 111.467C92.0476 110.779 83.7684 103.409 79.4165 99.1726C77.6213 97.4189 76.4906 96.2006 76.4906 96.2006L70.0297 98.8034Z" fill="black"/>
<path d="M70.0297 97.4189L83.7222 133.032L96.5656 188.412C96.5656 188.412 97.8762 215.713 102.565 211.486C104.097 210.102 106.921 209.345 110.027 208.953C113.847 208.54 117.694 208.454 121.528 208.694C123.06 208.777 124.024 208.869 124.024 208.869L118.565 160.565L114.873 117.185L112.796 100.266L106.645 96.4959L105.643 98.5911C105.643 98.9003 105.675 99.2049 105.689 99.5141C106.123 110.442 101.799 110.83 99.7914 110.433C99.0807 110.29 98.37 110.17 97.6501 110.082C92.0476 109.395 83.7684 102.025 79.4165 97.7881C77.6213 96.0344 76.4906 94.8161 76.4906 94.8161L70.0297 97.4189Z" fill="#E1E7EF"/>
<path opacity="0.1" d="M105.643 98.591C105.643 98.9002 105.675 99.2048 105.689 99.514L105.795 99.5878C107.42 100.658 110.027 118.74 110.027 118.74L113.41 164.811L119.64 199.192C119.64 199.192 120.457 203.11 121.528 208.708C123.06 208.791 124.024 208.883 124.024 208.883L118.565 160.579L114.873 117.198L112.796 100.28L106.645 96.5096L105.643 98.591Z" fill="black"/>
<path d="M101.402 95.513C101.402 95.513 105.094 98.5035 106.718 99.5741C108.343 100.645 110.95 118.726 110.95 118.726L114.333 164.797L120.563 199.178C120.563 199.178 126.101 225.714 127.255 239.328C128.408 252.942 133.254 249.019 133.254 249.019C133.254 249.019 136.872 238.405 145.484 237.791C154.095 237.177 149.637 232.327 149.637 232.327C149.637 232.327 144.593 195.975 141.275 189.501C141.223 189.389 141.164 189.282 141.099 189.178C140.61 188.375 140.07 186.773 139.503 184.632C136.221 172.245 132.026 141.713 132.026 141.713L129.41 103.871C122.718 92.9471 101.923 93.3255 101.923 93.3255L101.402 95.513Z" fill="#67647E"/>
<path opacity="0.1" d="M70.0297 97.4189L83.7222 133.032L96.5656 188.411C96.5656 188.411 97.8762 215.713 102.565 211.486C104.097 210.102 106.921 209.345 110.027 208.953C109.972 199.566 109.686 182.721 108.334 175.642C107.164 169.173 106.675 162.599 106.875 156.029L90.1047 119.492C90.1047 119.492 77.4921 103.944 77.4136 101.72C77.3859 100.899 78.2812 99.3756 79.4165 97.7743C77.6213 96.0206 76.4907 94.8022 76.4907 94.8022L70.0297 97.4189Z" fill="black"/>
<path d="M112.182 255.545L109.104 215.547C109.104 215.547 109.335 185.702 107.41 175.628C106.24 169.159 105.751 162.585 105.952 156.015L89.1813 119.478C89.1813 119.478 76.5687 103.93 76.4903 101.706C76.4118 99.4817 83.0989 92.0839 83.0989 92.0839C83.0989 92.0839 68.4926 93.7914 66.5682 100.326C64.6437 106.861 54.1079 109.404 54.1079 109.404C54.1079 109.404 49.0314 114.019 49.1099 127.25C49.1883 140.481 65.2621 150.86 65.2621 150.86C65.2621 150.86 67.9527 175.78 65.6452 187.013C63.3377 198.246 65.3406 252.85 65.3406 252.85C65.3406 252.85 80.8006 253.007 90.492 255.545C100.183 258.083 112.182 255.545 112.182 255.545Z" fill="#67647E"/>
<path d="M89.4121 192.103L77.5702 236.942C77.5702 236.942 75.955 240.943 67.6481 237.865C59.3412 234.787 35.1867 224.791 35.1867 224.791C35.1867 224.791 33.0361 221.251 37.0326 214.717L49.1099 179.334L89.4121 192.103Z" fill="#B07473"/>
<path d="M74.0859 211.929L54.934 190.871L42.7044 185.91L37.688 211.232L60.9334 236.499L74.0859 211.929Z" fill="#E1E7EF"/>
<path d="M53.6233 218.967C53.6233 218.967 59.3181 222.317 60.8226 222.428C62.327 222.539 67.6204 232.544 65.3821 232.466C63.1439 232.387 57.9383 229.697 58.4597 231.081C58.9812 232.466 62.3778 236.619 63.3608 236.222C64.3438 235.825 64.8053 239.273 60.5918 238.068C56.3784 236.864 50.7851 235.821 50.7851 235.821C50.7851 235.821 47.7854 233.629 47.67 232.069C47.5547 230.509 44.9564 222.317 44.9564 222.317L53.6233 218.967Z" fill="#EFB7B9"/>
<path d="M145.05 100.825C145.05 100.825 140.121 90.1827 137.177 86.6662C134.232 83.1496 121.389 79.3653 120.101 80.4037C118.814 81.4421 126.562 87.2707 127.947 88.0183C129.331 88.766 119.003 95.7114 118.791 95.8637C118.579 96.016 110.715 95.1669 114.753 97.8204C118.791 100.474 130.73 103.174 130.73 103.174C131.534 103.035 132.358 103.061 133.151 103.252C133.945 103.442 134.691 103.793 135.345 104.281C137.657 105.957 145.05 100.825 145.05 100.825Z" fill="#EFB7B9"/>
<path opacity="0.1" d="M42.5202 219.498C43.1726 221.637 44.0481 223.702 45.1322 225.659C46.2859 224.616 57.3018 220.984 57.3018 220.984L56.0788 219.096L54.0852 216.023C54.0852 216.023 44.2646 213.89 42.594 216.023C42.031 216.738 42.1325 218.058 42.5202 219.498Z" fill="black"/>
<path d="M42.0582 219.036C42.7107 221.176 43.5862 223.241 44.6703 225.197C45.824 224.154 56.8398 220.522 56.8398 220.522L55.6169 218.635L53.6233 215.561C53.6233 215.561 43.8027 213.429 42.1321 215.561C41.569 216.276 41.6706 217.596 42.0582 219.036Z" fill="#A36468"/>
<path opacity="0.1" d="M133.794 103.224C134.148 104.016 134.564 104.779 135.04 105.504C136.817 108.306 139.507 111.61 139.507 111.61C139.507 111.61 150.001 106.783 150.001 106.57C150.001 106.358 146.817 101.342 144.228 97.3866C143.181 95.7898 142.235 94.3776 141.635 93.5516C141.635 93.5516 137.717 101.748 133.849 101.803C132.815 101.817 133.374 102.223 133.794 103.224Z" fill="black"/>
<path d="M134.255 103.686C134.609 104.478 135.026 105.24 135.501 105.966C137.278 108.767 139.969 112.071 139.969 112.071C139.969 112.071 150.463 107.244 150.463 107.032C150.463 106.82 147.279 101.803 144.69 97.8481C143.642 96.2514 142.696 94.8392 142.096 94.0131C142.096 94.0131 138.178 102.209 134.311 102.265C133.277 102.278 133.835 102.685 134.255 103.686Z" fill="#A36468"/>
<path d="M75.0689 188.333L76.4165 184.295L57.5045 182.966L64.57 183.718L73.5691 185.652L72.8768 188.333H75.0689Z" fill="#B07473"/>
<path opacity="0.1" d="M42.0585 219.036C44.1445 218.053 49.7101 216.009 55.6172 218.635L53.6236 215.561C53.6236 215.561 43.803 213.429 42.1324 215.561C41.5694 216.276 41.6709 217.596 42.0585 219.036Z" fill="black"/>
<path d="M40.9554 194.102C41.0015 194.771 41.043 195.44 41.0846 196.104C41.2 198.14 41.2784 200.156 41.3292 202.104C41.5599 211.121 41.1861 218.561 41.1861 218.561C41.1861 218.561 48.3393 214.255 55.9539 217.868L56.7108 203.276V203.022L57.4907 196.64L60.0197 176.025C60.0197 176.025 64.7869 147.412 66.2498 146.337C67.7127 145.262 55.4047 122.109 55.4047 122.109L49.11 127.25L45.1873 153.707V167.243C45.1873 167.243 40.1108 181.95 40.9554 194.102Z" fill="#67647E"/>
<path opacity="0.1" d="M134.025 103.035L135.501 105.966C137.278 108.767 139.969 112.071 139.969 112.071C139.969 112.071 150.463 107.244 150.463 107.032C150.463 106.82 147.279 101.803 144.69 97.8481C143.891 96.9482 143.407 96.4175 143.407 96.4175C146.485 104.032 134.025 103.035 134.025 103.035Z" fill="black"/>
<path d="M125.104 101.72L129.41 103.88C129.41 103.88 134.717 111.033 136.254 111.804C137.79 112.574 138.561 112.496 138.561 112.496L134.025 103.497C134.025 103.497 146.485 104.494 143.407 96.8789C143.407 96.8789 157.33 112.108 158.867 118.264C158.867 118.264 166.56 131.029 164.714 137.338C162.868 143.647 155.406 144.874 150.025 142.954C144.644 141.035 128.104 132.571 128.104 132.571L125.104 101.72Z" fill="#67647E"/>
<path opacity="0.1" d="M140.564 116.723C140.564 116.723 152.175 129.723 151.252 131.491C150.329 133.259 141.178 119.34 140.564 116.723Z" fill="black"/>
<path opacity="0.2" d="M88.1431 81.7282C88.1431 81.7282 71.8017 76.804 62.5718 94.5715C53.3419 112.339 53.0327 113.571 53.4942 114.416C53.9557 115.26 71.8755 110.571 72.8769 112.648C73.8784 114.725 62.7241 123.263 62.7241 123.263L105.952 156.029L87.7878 117.429C86.5708 114.726 84.9476 112.225 82.9744 110.013C79.9886 106.672 75.9044 101.554 77.3534 99.9756C78.6272 98.5911 80.6623 94.9776 83.4128 90.8196C85.4157 87.7737 88.6139 84.331 88.1431 81.7282Z" fill="black"/>
<path d="M88.6046 81.2666C88.6046 81.2666 72.2632 76.3425 63.0333 94.11C53.8034 111.877 53.4942 113.11 53.9557 113.954C54.4172 114.799 72.337 110.11 73.3384 112.187C74.3399 114.263 63.1856 122.801 63.1856 122.801L105.952 156.028L88.2493 116.968C87.0323 114.265 85.4091 111.764 83.4359 109.552C80.4501 106.21 76.3658 101.092 77.8149 99.514C79.0887 98.1296 81.1238 94.5161 83.8743 90.358C85.8772 87.3122 89.0754 83.8694 88.6046 81.2666Z" fill="#67647E"/>
<path opacity="0.1" d="M88.6046 81.2666C88.6046 81.2666 72.2632 76.3425 63.0333 94.11C53.8034 111.877 53.4942 113.11 53.9557 113.954C54.4172 114.799 72.337 110.11 73.3384 112.187C74.3399 114.263 63.1856 122.801 63.1856 122.801L105.952 156.028L87.4002 115.089C86.6811 113.5 85.7102 112.036 84.525 110.756C81.5992 107.609 76.1628 101.3 77.8011 99.514C79.0748 98.1296 81.11 94.5161 83.8605 90.358C85.8772 87.3122 89.0754 83.8694 88.6046 81.2666Z" fill="black"/>
<path d="M85.2588 162.72C83.3906 162.72 81.8761 161.206 81.8761 159.337C81.8761 157.469 83.3906 155.955 85.2588 155.955C87.1271 155.955 88.6416 157.469 88.6416 159.337C88.6416 161.206 87.1271 162.72 85.2588 162.72Z" fill="#444053"/>
<path d="M85.2588 183.718C83.3906 183.718 81.8761 182.204 81.8761 180.335C81.8761 178.467 83.3906 176.953 85.2588 176.953C87.1271 176.953 88.6416 178.467 88.6416 180.335C88.6416 182.204 87.1271 183.718 85.2588 183.718Z" fill="#444053"/>
<path d="M41.3292 202.104C43.2767 202.565 52.5112 202.358 56.7108 203.276V203.022L57.4907 196.64C52.7558 196.049 42.4645 194.928 41.0708 196.105C39.2664 197.641 39.0079 201.573 41.3292 202.104Z" fill="#67647E"/>
<path opacity="0.1" d="M41.3292 202.565C43.2767 203.027 52.5112 202.819 56.7108 203.738V203.484L57.4907 197.101C52.7558 196.511 42.4645 195.389 41.0708 196.566C39.2664 198.103 39.0079 202.035 41.3292 202.565Z" fill="black"/>
<path opacity="0.1" d="M41.3292 202.104C43.2767 202.565 52.5112 202.358 56.7108 203.276V203.022L57.4907 196.64C52.7558 196.049 42.4645 194.928 41.0708 196.105C39.2664 197.641 39.0079 201.573 41.3292 202.104Z" fill="black"/>
<path d="M43.3413 201.066C42.2147 201.066 41.3015 200.152 41.3015 199.026C41.3015 197.899 42.2147 196.986 43.3413 196.986C44.4678 196.986 45.3811 197.899 45.3811 199.026C45.3811 200.152 44.4678 201.066 43.3413 201.066Z" fill="#444053"/>
<path opacity="0.1" d="M81.876 207.176L73.2599 236.559C73.2599 236.559 70.9524 237.634 70.9524 235.715C70.9524 233.795 81.876 207.176 81.876 207.176Z" fill="white"/>
<path opacity="0.1" d="M85.1853 87.4552C85.7295 87.8918 86.298 88.297 86.8882 88.6689C89.8187 90.5149 92.4262 93.0208 96.1596 93.0208C98.2329 93.0238 100.293 92.6855 102.256 92.0193C104.019 85.1662 106.026 79.2683 106.026 79.2683C106.026 79.2683 83.4686 58.1642 85.1069 75.4194C85.6837 81.5019 86.0483 84.4001 85.1853 87.4552Z" fill="black"/>
<path d="M77.2106 73.1489C77.2106 76.8967 78.3219 80.5603 80.404 83.6764C82.4862 86.7925 85.4456 89.2213 88.908 90.6554C92.3705 92.0896 96.1805 92.4649 99.8562 91.7337C103.532 91.0026 106.908 89.1979 109.558 86.5478C112.208 83.8978 114.013 80.5214 114.744 76.8457C115.475 73.17 115.1 69.36 113.666 65.8975C112.232 62.435 109.803 59.4756 106.687 57.3935C103.571 55.3114 99.9072 54.2 96.1595 54.2C93.6678 54.1884 91.1985 54.6706 88.8943 55.6188C86.5901 56.5669 84.4966 57.9623 82.7347 59.7242C80.9728 61.486 79.5775 63.5796 78.6293 65.8838C77.6812 68.188 77.199 70.6573 77.2106 73.1489Z" fill="#EFB7B9"/>
<path d="M106.899 89.0058C107.077 89.4369 107.387 89.8004 107.785 90.0442L110.794 91.8901L116.419 95.3098L125.321 100.719C125.531 100.842 125.743 100.957 125.958 101.065C127.002 101.595 128.153 101.879 129.323 101.895C130.494 101.911 131.652 101.658 132.71 101.157C133.509 100.798 134.211 100.254 134.759 99.5703C135.307 98.8867 135.685 98.083 135.862 97.225C136.099 96.0306 135.999 94.7939 135.573 93.6529C135.148 92.512 134.414 91.5118 133.453 90.7641C133.406 90.7218 133.349 90.6931 133.287 90.681C131.393 90.1458 129.61 89.2734 128.026 88.1059L122.423 84.2294L117.421 79.656L114.892 77.9069C114.521 77.65 114.084 77.5047 113.634 77.4884C113.183 77.472 112.737 77.5852 112.349 77.8146C109.741 79.296 104.591 83.1772 106.899 89.0058Z" fill="#E1E7EF"/>
<path d="M110.793 91.8671L116.419 95.2868C117.591 90.5611 120.572 87.2245 123.161 84.7047L117.42 79.6283C113.054 81.7927 111.319 89.0243 110.793 91.8671Z" fill="#A36468"/>
<path opacity="0.1" d="M125.958 101.042C127.002 101.572 128.153 101.856 129.323 101.872C130.494 101.888 131.652 101.635 132.71 101.134C133.509 100.774 134.211 100.231 134.759 99.5472C135.307 98.8637 135.685 98.0599 135.862 97.2019C136.099 96.0075 135.999 94.7708 135.573 93.6299C135.148 92.4889 134.414 91.4887 133.453 90.741C132.056 91.3324 130.762 92.1442 129.622 93.1454C128.032 94.5225 126.88 96.3355 126.309 98.3603C126.083 99.2364 125.965 100.137 125.958 101.042Z" fill="black"/>
<path opacity="0.1" d="M77.2103 73.1489C77.2064 75.9086 77.8082 78.6356 78.9732 81.1374C80.1163 82.2756 80.9871 83.6576 81.5206 85.18C82.8035 86.7399 83.3112 87.6213 85.0233 88.7012C85.711 87.9767 87.257 87.5383 87.5385 86.6014C88.2538 84.1878 87.8477 81.6081 87.8107 79.0929C87.8107 77.9761 87.9677 76.6563 88.9506 76.1209C89.7675 75.6594 90.7966 75.9917 91.5996 76.444C92.4026 76.8962 93.201 77.4823 94.124 77.5885C95.5084 77.7454 96.773 76.7716 97.5483 75.6271C98.3236 74.4826 98.7712 73.1443 99.505 71.9721C100.474 70.4261 101.905 69.2401 103.312 68.0863C104.923 66.7572 106.487 65.2851 108.204 64.0944C109.229 63.3791 110.456 63.0468 111.467 62.3269L111.628 62.2069C109.306 58.9236 105.998 56.4645 102.185 55.1854C98.3722 53.9064 94.2511 53.8737 90.4182 55.0923C86.5853 56.3108 83.2396 58.7172 80.8651 61.9634C78.4906 65.2096 77.2106 69.127 77.2103 73.1489Z" fill="black"/>
<path d="M114.545 52.2064C114.143 49.5436 111.947 47.0469 109.256 47.0007C107.036 46.9638 105.144 48.4683 103.178 49.4974C101.166 50.5349 98.9488 51.1142 96.6861 51.194C94.4233 51.2738 92.171 50.852 90.0904 49.9589C88.8813 49.4328 87.6583 48.7267 86.3431 48.8329C85.0278 48.939 83.9756 49.802 83.0665 50.6788C80.9065 52.8149 79.214 55.3765 78.0962 58.2012C77.7685 59.0318 77.4686 59.9179 76.8317 60.5409C76.3462 60.9477 75.8168 61.2991 75.2534 61.5885C74.2886 62.2285 73.4616 63.0552 72.8212 64.0197C72.1808 64.9843 71.7399 66.0673 71.5246 67.2049C71.1062 69.4926 71.3413 71.8518 72.2029 74.0119C72.7137 75.4988 73.5565 76.8497 74.6673 77.9623C75.5072 78.7514 76.5133 79.3468 77.3947 80.0852C78.8311 81.305 79.9264 82.8767 80.5735 84.6466C81.2206 86.4165 81.3974 88.324 81.0867 90.1826C83.5418 90.7503 85.8954 88.5489 86.6246 86.1399C87.3538 83.731 86.9338 81.1466 86.8969 78.6315C86.8969 77.5146 87.0538 76.1948 88.0368 75.6594C88.8536 75.198 89.8828 75.5302 90.6858 75.9825C91.4888 76.4348 92.2871 77.0208 93.2101 77.127C94.5946 77.2839 95.8591 76.3148 96.6344 75.1656C97.4097 74.0165 97.8527 72.6828 98.5911 71.5106C99.5557 69.9646 100.991 68.7786 102.398 67.6249C104.009 66.3004 105.574 64.8236 107.286 63.6329C108.315 62.9176 109.542 62.5853 110.553 61.8654C113.603 59.6779 114.545 55.6906 114.545 52.2064Z" fill="#585268"/>
<path opacity="0.1" d="M99.874 83.8695C99.874 83.8695 100.132 83.9295 100.58 84.0541C100.365 83.9305 100.122 83.8667 99.874 83.8695Z" fill="black"/>
<g opacity="0.1">
<path opacity="0.1" d="M85.6924 84.6308C86.4077 82.2172 86.0016 79.6375 85.9647 77.1223C85.9647 76.0055 86.1216 74.6857 87.1046 74.1503C87.9214 73.6888 88.9505 74.0257 89.7535 74.4734C90.5565 74.921 91.3549 75.5117 92.2779 75.6179C93.6624 75.7748 94.9269 74.8056 95.7022 73.6611C96.4775 72.5166 96.9205 71.1737 97.6589 70.0015C98.628 68.4601 100.059 67.2741 101.466 66.1157C103.077 64.7912 104.641 63.3145 106.353 62.1238C107.383 61.4085 108.61 61.0808 109.621 60.3563C112.68 58.1688 113.622 54.1815 113.622 50.6973C113.518 50.0359 113.312 49.3946 113.013 48.7959C113.821 49.7334 114.351 50.8777 114.545 52.1002C114.545 55.5845 113.622 59.5718 110.544 61.7592C109.533 62.4838 108.306 62.8114 107.276 63.5268C105.564 64.7174 104 66.1942 102.389 67.5187C100.982 68.677 99.551 69.8631 98.5819 71.4044C97.8435 72.5766 97.4051 73.9196 96.6252 75.0641C95.8452 76.2086 94.5761 77.1777 93.2009 77.0208C92.2779 76.9147 91.4934 76.324 90.6765 75.8763C89.8597 75.4287 88.8305 75.1102 88.0275 75.5533C87.0446 76.0886 86.8692 77.3992 86.8876 78.5253C86.9246 81.0404 87.3492 83.6017 86.6154 86.0338C85.8816 88.4658 83.5418 90.6487 81.0775 90.0765C81.1542 89.6431 81.2036 89.2054 81.2251 88.7658C83.2742 88.5858 85.0786 86.6891 85.6924 84.6308Z" fill="black"/>
<path opacity="0.1" d="M73.7442 76.4532C74.5841 77.2469 75.5901 77.8377 76.4716 78.576C77.4431 79.391 78.2578 80.3763 78.876 81.4834C78.4386 80.9238 77.9419 80.4132 77.3946 79.9605C76.5085 79.2221 75.5071 78.6314 74.6672 77.8376C73.9981 77.1922 73.4316 76.4483 72.9873 75.6317C73.2201 75.9229 73.473 76.1974 73.7442 76.4532Z" fill="black"/>
</g>
<path opacity="0.1" d="M99.2468 241.188C99.5836 242.189 100.064 243.168 100.128 244.224C100.239 246.024 99.1406 247.695 99.0621 249.499C98.9698 251.59 100.244 253.468 101.462 255.176C100.017 255.176 98.4391 254.673 97.7054 253.431C97.456 252.952 97.2743 252.442 97.1654 251.913C95.8594 246.703 94.5903 241.003 96.8608 236.139C97.2118 235.299 97.721 234.535 98.3607 233.887C98.7437 236.342 98.4207 238.756 99.2468 241.188Z" fill="black"/>
<path opacity="0.1" d="M135.345 204.416L139.18 199.243C140.103 197.992 141.058 196.691 141.39 195.172C141.75 193.506 141.33 191.78 141.275 190.096C141.275 189.907 141.275 189.713 141.275 189.519C141.223 189.408 141.165 189.3 141.1 189.196C140.61 188.393 140.07 186.792 139.503 184.65C138.943 185.206 138.509 185.875 138.229 186.612C136.443 190.968 138.095 196.082 136.618 200.549C136.194 201.832 135.502 203.059 135.345 204.416Z" fill="black"/>
<path opacity="0.1" d="M125.584 361.019C123.688 362.377 121.524 363.313 119.236 363.766C116.949 364.219 114.591 364.178 112.321 363.645" fill="black"/>
<path opacity="0.1" d="M93.8057 361.781C92.8354 362.689 91.689 363.39 90.4373 363.838C89.1857 364.286 87.8553 364.473 86.5287 364.386C85.202 364.3 83.9072 363.942 82.7243 363.335C81.5415 362.728 80.4957 361.885 79.6517 360.858" fill="black"/>
<path opacity="0.1" d="M114.056 292.21C115.897 292.637 117.826 292.454 119.555 291.69C121.283 290.926 122.717 289.622 123.641 287.974" fill="black"/>
<path opacity="0.1" d="M92.1812 303.872C89.2569 304.089 86.3474 303.29 83.9435 301.611L92.1812 303.872Z" fill="black"/>
<path opacity="0.1" d="M107.111 331.747C109.571 332.743 111.767 334.303 114.162 335.438C116.558 336.574 119.331 337.317 121.865 336.523" fill="black"/>
</g>
<path d="M347.374 389.544C344.642 389.544 342.426 387.328 342.426 384.595C342.426 381.862 344.642 379.647 347.374 379.647C350.107 379.647 352.323 381.862 352.323 384.595C352.323 387.328 350.107 389.544 347.374 389.544Z" fill="#535461"/>
<path d="M364.886 294.577C364.886 294.577 359.951 290.564 355.628 291.952C351.305 293.341 340.047 294.73 338.038 301.826C336.029 308.922 338.038 386.845 338.038 386.845C338.038 386.845 347.625 389.335 350.231 388.081C352.837 386.826 352.545 375.12 352.545 375.12L353.313 306.015L364.886 294.577Z" fill="#20D15B"/>
<path opacity="0.1" d="M364.886 294.577C364.886 294.577 359.951 290.564 355.628 291.952C351.305 293.341 340.047 294.73 338.038 301.826C336.029 308.922 338.038 386.845 338.038 386.845C338.038 386.845 347.625 389.335 350.231 388.081C352.837 386.826 352.545 375.12 352.545 375.12L353.313 306.015L364.886 294.577Z" fill="black"/>
<path d="M319.986 382.855L340.755 387.484L340.973 383.781L341.107 311.075C341.113 307.677 341.901 304.327 343.408 301.283C344.915 298.239 347.102 295.581 349.8 293.517C349.8 293.517 339.047 293.374 330.822 297.091C329.063 297.882 327.299 298.66 325.489 299.326C323.244 300.155 320.198 301.919 320.004 305.399C319.754 309.936 318.884 354.873 318.574 371.232C318.493 375.153 318.969 379.067 319.986 382.855Z" fill="#20D15B"/>
<path d="M337.497 203.772H342.32V211.331H337.497V203.772Z" fill="#535461"/>
<path opacity="0.1" d="M337.497 203.772H342.32V211.331H337.497V203.772Z" fill="black"/>
<path d="M328.433 204.966H333.256V212.525H328.433V204.966Z" fill="#535461"/>
<path d="M328.438 204.966H333.275C334.176 204.989 335.051 205.266 335.802 205.763C336.553 206.261 337.148 206.96 337.52 207.781C337.589 207.929 337.654 208.081 337.714 208.243L338.779 207.216L340.992 205.077L342.343 203.772C342.343 203.772 333.414 199.259 328.438 204.966Z" fill="#535461"/>
<path d="M326.332 393.029C323.599 393.029 321.383 390.814 321.383 388.081C321.383 385.348 323.599 383.133 326.332 383.133C329.064 383.133 331.28 385.348 331.28 388.081C331.28 390.814 329.064 393.029 326.332 393.029Z" fill="#535461"/>
<path d="M377.426 386.276C374.693 386.276 372.477 384.06 372.477 381.327C372.477 378.595 374.693 376.379 377.426 376.379C380.159 376.379 382.374 378.595 382.374 381.327C382.374 384.06 380.159 386.276 377.426 386.276Z" fill="#535461"/>
<path d="M368.126 293.517C368.126 293.517 382.17 297.22 382.938 332.557C383.707 367.894 383.864 371.593 383.864 371.593C383.864 371.593 383.559 381.776 362.881 388.104H350.231L348.222 306.941C348.222 306.941 350.536 294.577 368.126 293.517Z" fill="#20D15B"/>
<path opacity="0.1" d="M369.38 348.272C369.38 348.272 372.977 298.863 353.586 298.651L351.767 300.419C351.767 300.419 368.746 294.267 369.38 348.272Z" fill="black"/>
<path d="M360.646 397.343C357.913 397.343 355.698 395.128 355.698 392.395C355.698 389.662 357.913 387.447 360.646 387.447C363.379 387.447 365.594 389.662 365.594 392.395C365.594 395.128 363.379 397.343 360.646 397.343Z" fill="#535461"/>
<path opacity="0.1" d="M333.206 204.938C333.204 204.948 333.204 204.957 333.206 204.966H333.275C334.176 204.989 335.051 205.266 335.802 205.763C336.553 206.261 337.148 206.96 337.52 207.78C337.589 207.929 337.654 208.081 337.714 208.243L338.779 207.216C338.786 207.125 338.786 207.034 338.779 206.943C338.682 206.223 338.306 205.57 337.733 205.124C337.181 204.667 336.521 204.36 335.817 204.233C335.112 204.106 334.387 204.162 333.71 204.397C333.437 204.485 333.155 204.679 333.206 204.938Z" fill="black"/>
<path d="M338.08 210.331H340.973V298.65H338.08V210.331Z" fill="#9D9CB5"/>
<path d="M329.091 210.331H331.988V298.65H329.091V210.331Z" fill="#9D9CB5"/>
<g opacity="0.1">
<path d="M404.87 90.1906C426.889 90.1906 444.739 72.3403 444.739 50.3209C444.739 28.3015 426.889 10.4513 404.87 10.4513C382.85 10.4513 365 28.3015 365 50.3209C365 72.3403 382.85 90.1906 404.87 90.1906Z" fill="#3F3D56"/>
<path d="M404.869 86.9003C425.072 86.9003 441.449 70.5232 441.449 50.3209C441.449 30.1186 425.072 13.7415 404.869 13.7415C384.667 13.7415 368.29 30.1186 368.29 50.3209C368.29 70.5232 384.667 86.9003 404.869 86.9003Z" fill="white"/>
<path d="M404.773 55.353C407.498 55.353 409.708 53.1434 409.708 50.4177C409.708 47.692 407.498 45.4824 404.773 45.4824C402.047 45.4824 399.837 47.692 399.837 50.4177C399.837 53.1434 402.047 55.353 404.773 55.353Z" fill="#3F3D56"/>
<path d="M405.837 15.4833H403.708V19.5477H405.837V15.4833Z" fill="#3F3D56"/>
<path d="M405.837 81.2876H403.708V85.352H405.837V81.2876Z" fill="#3F3D56"/>
<path d="M373.903 51.4821V49.3532H369.838V51.4821H373.903Z" fill="#3F3D56"/>
<path d="M403.321 52.5305L405.124 48.3855L427.708 60.9657L403.321 52.5305Z" fill="#3F3D56"/>
<path d="M410.095 0.77417H399.837V12.5802H410.095V0.77417Z" fill="#3F3D56"/>
<path d="M404.773 6.58042C411.347 6.58042 416.676 5.10735 416.676 3.29021C416.676 1.47308 411.347 0 404.773 0C398.199 0 392.87 1.47308 392.87 3.29021C392.87 5.10735 398.199 6.58042 404.773 6.58042Z" fill="#3F3D56"/>
</g>
<path d="M297.179 221.174H289.963V389.553H297.179V221.174Z" fill="#381E1D"/>
<path d="M289.963 221.174C289.963 221.174 302.23 205.779 312.333 225.744C312.333 225.744 307.522 234.644 306.079 230.315C304.636 225.985 301.179 219.512 297.134 223.35" fill="#381E1D"/>
<path d="M288.878 191.765C288.878 191.765 307.029 209.633 298.091 224.725C297.814 225.192 297.434 225.59 296.981 225.888C296.527 226.186 296.012 226.377 295.473 226.446C294.935 226.515 294.388 226.46 293.874 226.285C293.36 226.111 292.893 225.822 292.507 225.44C289.426 222.392 284.554 214.823 278.568 196.094L288.878 191.765Z" fill="#FDA57D"/>
<path opacity="0.1" d="M276.132 97.6563C276.132 97.6563 294.894 103.429 291.286 126.04C287.678 148.651 289.121 164.527 289.121 164.527L293.932 193.392L285.272 205.178C285.272 205.178 270.359 190.265 265.308 175.11C260.256 159.956 260.737 100.062 276.132 97.6563Z" fill="black"/>
<path d="M275.891 97.4157C275.891 97.4157 294.653 103.189 291.045 125.8C287.437 148.41 288.88 164.286 288.88 164.286L293.691 193.151L285.032 204.937C285.032 204.937 270.118 190.024 265.067 174.87C260.016 159.716 260.497 99.8211 275.891 97.4157Z" fill="#20D15B"/>
<path d="M253.89 354.896L250.814 377.929C250.814 377.929 258.71 381.162 261.076 380.43C263.442 379.699 267.589 382.671 267.589 382.671C267.589 382.671 285.232 388.245 288.697 383.237C292.161 378.228 284.303 376.697 277.926 372.921C271.55 369.146 268.854 354.573 268.854 354.573L253.89 354.896Z" fill="black"/>
<path d="M287.557 192.309V277.461L271.201 358.764H253.882L256.528 280.828C256.528 280.828 238.487 217.807 246.425 194.234L287.557 192.309Z" fill="#333333"/>
<path d="M274.214 203.052C274.214 203.052 299.433 206.622 301.223 224.071C301.278 224.611 301.21 225.157 301.023 225.666C300.835 226.175 300.534 226.635 300.142 227.011C299.751 227.387 299.278 227.668 298.761 227.833C298.244 227.999 297.697 228.044 297.159 227.966C292.87 227.349 284.451 224.161 268.501 212.664L274.214 203.052Z" fill="#FDA57D"/>
<path d="M277.334 93.5672C277.334 93.5672 273.245 100.543 274.929 112.57C274.929 112.57 250.755 110.525 251.476 96.574C251.476 96.574 263.263 93.6875 266.029 82.9834L277.334 93.5672Z" fill="#FDA57D"/>
<path d="M237.052 359.947L233.977 382.981C233.977 382.981 241.872 386.213 244.238 385.481C246.604 384.75 250.751 387.723 250.751 387.723C250.751 387.723 268.395 393.296 271.859 388.288C275.324 383.28 267.465 381.748 261.089 377.972C254.713 374.197 252.017 359.624 252.017 359.624L237.052 359.947Z" fill="black"/>
<path opacity="0.1" d="M269.397 198.924V284.076L253.04 365.378H235.721L238.367 287.443C238.367 287.443 220.327 224.421 228.265 200.848L269.397 198.924Z" fill="black"/>
<path d="M268.675 198.924V284.076L252.318 365.378H234.999L237.645 287.443C237.645 287.443 219.605 224.421 227.542 200.848L268.675 198.924Z" fill="#333333"/>
<path opacity="0.1" d="M260.015 97.8969C260.015 97.8969 244.861 88.0347 234.759 117.381C224.656 146.727 228.745 200.848 228.745 200.848C228.745 200.848 271.802 214.8 287.197 195.316V166.211C287.197 166.211 295.375 133.016 283.829 104.151C283.829 104.151 273.726 108.24 260.015 97.8969Z" fill="black"/>
<path opacity="0.1" d="M259.534 98.6185C259.534 98.6185 244.38 88.7564 234.277 118.102C224.175 147.448 228.264 201.57 228.264 201.57C228.264 201.57 271.321 215.521 286.715 196.038V166.932C286.715 166.932 294.894 133.737 283.348 104.873C283.348 104.873 273.245 108.962 259.534 98.6185Z" fill="black"/>
<path d="M259.534 97.8969C259.534 97.8969 244.38 88.0347 234.277 117.381C224.175 146.727 228.264 200.848 228.264 200.848C228.264 200.848 271.321 214.8 286.715 195.316V166.211C286.715 166.211 294.894 133.016 283.348 104.151C283.348 104.151 273.245 108.24 259.534 97.8969Z" fill="#20D15B"/>
<path opacity="0.1" d="M244.14 112.57C244.14 112.57 262.902 118.343 259.294 140.954C255.686 163.565 257.129 179.44 257.129 179.44L281.183 203.735L272.524 215.521C272.524 215.521 238.367 205.178 233.315 190.024C228.264 174.87 228.745 114.975 244.14 112.57Z" fill="black"/>
<path opacity="0.1" d="M242.937 113.292C242.937 113.292 261.699 119.064 258.091 141.675C254.483 164.286 255.926 180.162 255.926 180.162L279.98 204.456L271.321 216.243C271.321 216.243 237.164 205.9 232.113 190.746C227.061 175.592 227.542 115.697 242.937 113.292Z" fill="black"/>
<path d="M243.418 112.57C243.418 112.57 262.18 118.343 258.572 140.954C254.964 163.565 256.407 179.44 256.407 179.44L280.461 203.735L271.802 215.521C271.802 215.521 237.645 205.178 232.594 190.024C227.542 174.87 228.023 114.975 243.418 112.57Z" fill="#20D15B"/>
<path opacity="0.1" d="M265.668 83.8253L276.974 94.4091C276.789 94.742 276.621 95.0841 276.471 95.4339C274.83 95.8716 273.139 96.0932 271.441 96.0929C267.123 96.0929 263.366 93.8999 260.136 91.5226C262.393 89.4826 264.33 87.5054 265.668 83.8253Z" fill="black"/>
<path d="M268.555 86.2307C279.315 86.2307 288.038 77.5075 288.038 66.7469C288.038 55.9863 279.315 47.2631 268.555 47.2631C257.794 47.2631 249.071 55.9863 249.071 66.7469C249.071 77.5075 257.794 86.2307 268.555 86.2307Z" fill="#E0E0E0"/>
<path d="M271.802 95.2511C282.562 95.2511 291.285 86.5279 291.285 75.7672C291.285 65.0066 282.562 56.2834 271.802 56.2834C261.041 56.2834 252.318 65.0066 252.318 75.7672C252.318 86.5279 261.041 95.2511 271.802 95.2511Z" fill="#FDA57D"/>
<path d="M252.438 66.7469C252.438 66.7469 245.142 85.8512 260.577 91.6937C261.862 91.0372 262.973 90.0855 263.819 88.9166C264.666 87.7477 265.223 86.3948 265.445 84.969C265.667 83.5431 265.548 82.0849 265.098 80.7139C264.648 79.3429 263.879 78.0982 262.854 77.0818L252.438 66.7469Z" fill="#E0E0E0"/>
<path d="M287.567 62.4698C287.567 62.4698 294.293 64.101 282.506 68.1902C280.566 68.8412 278.781 69.8845 277.261 71.2553C275.742 72.6261 274.521 74.295 273.674 76.158C273.146 77.2942 272.391 78.31 271.455 79.1428C270.519 79.9756 269.423 80.6076 268.233 81C267.043 81.3923 265.786 81.5365 264.538 81.4237C263.291 81.3109 262.079 80.9435 260.979 80.3442L257.25 78.293L250.755 63.1389L258.452 54.2389L271.682 52.5551L287.567 62.4698Z" fill="#E0E0E0"/>
<path d="M266.63 85.5092C267.693 85.5092 268.555 84.0015 268.555 82.1416C268.555 80.2818 267.693 78.774 266.63 78.774C265.568 78.774 264.706 80.2818 264.706 82.1416C264.706 84.0015 265.568 85.5092 266.63 85.5092Z" fill="#FDA57D"/>
<path d="M260.015 97.897C260.015 97.897 273.125 118.463 280.581 118.463C288.038 118.463 275.352 99.1785 275.352 99.1785L275.049 104.512L260.015 97.897Z" fill="#333333"/>
<path d="M22.4951 257.848H12.6536V387.397H22.4951V257.848Z" fill="#E0E0E0"/>
<path d="M9.44366 383.144H25.7048C28.2094 383.144 30.6115 384.07 32.3825 385.719C34.1535 387.367 35.1485 389.603 35.1485 391.934V399.501H0V391.934C1.319e-06 389.603 0.994956 387.367 2.76599 385.719C4.53702 384.07 6.93905 383.144 9.44366 383.144Z" fill="#E0E0E0"/>
<path opacity="0.1" d="M17.5742 272.896C23.0096 272.896 27.4158 268.795 27.4158 263.736C27.4158 258.677 23.0096 254.576 17.5742 254.576C12.1389 254.576 7.73267 258.677 7.73267 263.736C7.73267 268.795 12.1389 272.896 17.5742 272.896Z" fill="black"/>
<path d="M17.5742 272.242C23.0096 272.242 27.4158 268.141 27.4158 263.082C27.4158 258.023 23.0096 253.922 17.5742 253.922C12.1389 253.922 7.73267 258.023 7.73267 263.082C7.73267 268.141 12.1389 272.242 17.5742 272.242Z" fill="#E0E0E0"/>
<path opacity="0.1" d="M12.6536 383.795C12.6536 383.795 18.9803 385.755 22.4951 383.795L12.6536 383.795Z" fill="black"/>
<path d="M436.607 257.848H426.765V387.397H436.607V257.848Z" fill="#E0E0E0"/>
<path d="M423.555 383.144H439.817C442.321 383.144 444.723 384.07 446.494 385.719C448.265 387.367 449.26 389.603 449.26 391.934V399.501H414.112V391.934C414.112 389.603 415.107 387.367 416.878 385.719C418.649 384.07 421.051 383.144 423.555 383.144Z" fill="#E0E0E0"/>
<path opacity="0.1" d="M431.686 272.896C437.121 272.896 441.527 268.795 441.527 263.736C441.527 258.677 437.121 254.576 431.686 254.576C426.25 254.576 421.844 258.677 421.844 263.736C421.844 268.795 426.25 272.896 431.686 272.896Z" fill="black"/>
<path d="M431.686 272.242C437.121 272.242 441.527 268.141 441.527 263.082C441.527 258.023 437.121 253.922 431.686 253.922C426.25 253.922 421.844 258.023 421.844 263.082C421.844 268.141 426.25 272.242 431.686 272.242Z" fill="#E0E0E0"/>
<path opacity="0.1" d="M426.765 386.572C426.765 386.572 433.092 388.532 436.607 386.572L426.765 386.572Z" fill="black"/>
<path d="M240.859 332.554C211.353 332.554 180.795 329.764 149.506 324.195C65.3585 309.216 12.3893 268.556 9.9003 267.308C10.6025 267.659 70.3566 297.242 152.461 311.796C227.807 325.152 338.053 328.22 435.388 266.984C390.604 295.159 347.192 323.241 291.295 329.708C274.562 331.624 257.718 332.574 240.859 332.554Z" fill="#8B8B8B"/>
</svg>
