<?xml version="1.0" encoding="utf-8"?>
<!-- Generator: Adobe Illustrator 24.1.0, SVG Export Plug-In . SVG Version: 6.00 Build 0)  -->
<svg version="1.1" id="Layer_1" xmlns="http://www.w3.org/2000/svg" xmlns:xlink="http://www.w3.org/1999/xlink" x="0px" y="0px"
	 viewBox="0 0 174.5 229.1" style="enable-background:new 0 0 174.5 229.1;" xml:space="preserve">
<style type="text/css">
	.st0{fill:#C0E1FF;}
	.st1{fill-rule:evenodd;clip-rule:evenodd;fill:#E6E6E6;}
	.st2{fill-rule:evenodd;clip-rule:evenodd;fill:#FFFFFF;}
	.st3{fill:#C4C4C4;}
	.st4{fill:#E8E8E8;}
</style>
<rect x="24.9" y="27.3" class="st0" width="134.3" height="179.3"/>
<path class="st1" d="M67.1,27l-0.5,0c-6.2-0.5-15.9,0.7-24,5.7c-7.4,4.6-14.4,12.8-15.7,28.5v108.6c0.5,4.9,2.6,12.7,7.5,19.4
	c4.7,6.4,12,11.9,23.6,13.1h56c4.7,0,12.9-1.5,19.9-6.4c6.4-4.4,12.5-12.1,13.6-26.1c-0.2-35.5-0.3-87.3-0.2-109
	c0-6.1-1.8-14-6.6-20.5c-4.5-6.1-12.2-11.8-26-13.3H67.1z M115.3,15.4c34.5,3.5,43.7,29.3,43.7,45.4c-0.1,21.7,0,73.9,0.2,109.4
	c-2.5,35.7-32.1,43.6-45.2,43.6H57.5c-31.3-2.8-41.2-30.2-42.2-43.6V60.7c3-39.4,36.1-46.6,52.3-45.2H115.3z"/>
<g>
	<path class="st2" d="M112.3,16.6H62.2C37,16.6,16.6,37,16.6,62.3v104.6c0,25.2,20.4,45.7,45.6,45.7h50.1
		c25.2,0,45.6-20.4,45.6-45.7V62.3C157.9,37,137.5,16.6,112.3,16.6z M62.2,0C27.8,0,0,27.9,0,62.3v104.6c0,34.4,27.8,62.3,62.2,62.3
		h50.1c34.3,0,62.2-27.9,62.2-62.3V62.3c0-34.4-27.8-62.3-62.2-62.3H62.2z"/>
</g>
<path class="st3" d="M63.5,16.5c-26.7,0-39.3,16.9-42.2,25.3h131.4c-5.6-11.7-18.1-25.3-43-25.3H63.5z"/>
<path class="st4" d="M67.5,25.7h37.8c1.8,0,3.2,1.4,3.2,3.2l0,0c0,1.8-1.4,3.2-3.2,3.2H67.5c-1.8,0-3.2-1.4-3.2-3.2l0,0
	C64.3,27.2,65.8,25.7,67.5,25.7z"/>
</svg>
